<svg width="39" height="39" viewBox="0 0 39 39" fill="none" xmlns="http://www.w3.org/2000/svg">
<g id="ph:clock-light">
<path id="Vector" d="M19.5 3.96094C16.4267 3.96094 13.4224 4.87229 10.867 6.57974C8.31158 8.2872 6.3199 10.7141 5.14378 13.5535C3.96767 16.3929 3.65995 19.5172 4.25952 22.5315C4.8591 25.5458 6.33905 28.3146 8.51223 30.4878C10.6854 32.661 13.4542 34.1409 16.4685 34.7405C19.4828 35.3401 22.6072 35.0323 25.4465 33.8562C28.2859 32.6801 30.7128 30.6884 32.4203 28.133C34.1277 25.5777 35.0391 22.5733 35.0391 19.5C35.0342 15.3803 33.3955 11.4307 30.4824 8.51757C27.5693 5.60448 23.6197 3.96578 19.5 3.96094ZM19.5 33.2109C16.7882 33.2109 14.1374 32.4068 11.8826 30.9002C9.62787 29.3937 7.8705 27.2523 6.83275 24.747C5.795 22.2416 5.52348 19.4848 6.05252 16.8251C6.58156 14.1655 7.8874 11.7224 9.80491 9.8049C11.7224 7.88739 14.1655 6.58155 16.8251 6.05251C19.4848 5.52347 22.2416 5.795 24.747 6.83275C27.2523 7.87049 29.3937 9.62786 30.9002 11.8826C32.4068 14.1374 33.2109 16.7882 33.2109 19.5C33.2069 23.1351 31.7611 26.6202 29.1907 29.1906C26.6202 31.7611 23.1351 33.2069 19.5 33.2109ZM28.9453 19.5C28.9453 19.7424 28.849 19.9749 28.6776 20.1463C28.5062 20.3178 28.2737 20.4141 28.0313 20.4141H19.5C19.2576 20.4141 19.0251 20.3178 18.8537 20.1463C18.6822 19.9749 18.5859 19.7424 18.5859 19.5V10.9688C18.5859 10.7263 18.6822 10.4938 18.8537 10.3224C19.0251 10.151 19.2576 10.0547 19.5 10.0547C19.7424 10.0547 19.9749 10.151 20.1463 10.3224C20.3178 10.4938 20.4141 10.7263 20.4141 10.9688V18.5859H28.0313C28.2737 18.5859 28.5062 18.6822 28.6776 18.8537C28.849 19.0251 28.9453 19.2576 28.9453 19.5Z" fill="black"/>
</g>
</svg>
