<svg width="40" height="40" viewBox="0 0 40 40" fill="none" xmlns="http://www.w3.org/2000/svg">
<path fill-rule="evenodd" clip-rule="evenodd" d="M20 40C8.95455 40 0 31.0455 0 20C0 8.95455 8.95455 0 20 0C31.0455 0 40 8.95455 40 20C40 31.0455 31.0455 40 20 40Z" fill="#CB98FF"/>
<path d="M12.8991 19.8036C12.7838 19.9412 12.6608 20.0728 12.5308 20.1976C12.128 20.5488 11.5704 20.5555 11.1825 20.1886C10.2091 19.2683 9.24458 18.3395 8.28891 17.4021C7.89788 17.0179 7.90572 16.4675 8.30065 16.0856C9.95861 14.4818 11.6173 12.8788 13.2964 11.296C13.4716 11.1314 13.7797 11.0366 14.0331 11.0223C14.6939 10.9847 15.3626 11.0043 16.0227 11.0118C16.4481 11.0163 16.6303 11.1622 16.7601 11.5592C17.2294 12.9938 18.4924 13.9179 19.9932 13.9216C21.5119 13.9216 22.7859 13.0043 23.259 11.5607C23.3959 11.1457 23.5718 11.0148 24.0223 11.0111C24.6667 11.0051 25.3104 11.0111 25.9548 11.0111C26.1155 11.009 26.2748 11.0389 26.4229 11.099C26.5709 11.159 26.7045 11.2479 26.8151 11.3599C28.425 12.9138 30.0371 14.4677 31.6513 16.0217C32.1205 16.4728 32.115 17.0292 31.6419 17.4893C30.7504 18.3565 29.8552 19.2207 28.9563 20.0818C28.4378 20.5781 27.8802 20.5781 27.3711 20.0818C27.2848 19.9825 27.2081 19.8758 27.1419 19.763L27.0324 19.8382V20.1337C27.0324 22.7403 27.0324 25.3486 27.0324 27.9586C27.0324 29.2496 26.2504 29.9992 24.9045 30C21.6355 30 18.3668 30 15.0983 30C13.7563 30 12.9766 29.2421 12.9766 27.9496C12.9766 25.3501 12.9766 22.751 12.9766 20.1525V19.845L12.8991 19.8036Z" fill="white"/>
</svg>
