<svg width="211" height="221" viewBox="0 0 211 221" fill="none" xmlns="http://www.w3.org/2000/svg">
<g filter="url(#filter0_f_328_16446)">
<path d="M105.437 53.2709C92.2744 71.1417 89.992 95.5305 101.603 115.641C113.214 135.752 135.476 145.97 157.534 143.506C152.844 149.874 146.772 155.414 139.456 159.639C111.606 175.718 76.2629 166.64 60.5147 139.364C44.7665 112.087 54.5767 76.9399 82.4265 60.8609C89.7431 56.6366 97.5768 54.1487 105.437 53.2709Z" fill="#FFEE94"/>
</g>
<g filter="url(#filter1_i_328_16446)">
<path d="M104.209 60.8023C92.1943 77.1153 90.1108 99.3782 100.71 117.736C111.309 136.094 131.63 145.421 151.765 143.172C147.484 148.985 141.942 154.042 135.263 157.898C109.841 172.576 77.5785 164.29 63.203 139.39C48.8275 114.491 57.7826 82.4082 83.2048 67.7307C89.8836 63.8746 97.0345 61.6036 104.209 60.8023Z" fill="url(#paint0_linear_328_16446)"/>
</g>
<defs>
<filter id="filter0_f_328_16446" x="0.000976562" y="0.270508" width="210.533" height="220.319" filterUnits="userSpaceOnUse" color-interpolation-filters="sRGB">
<feFlood flood-opacity="0" result="BackgroundImageFix"/>
<feBlend mode="normal" in="SourceGraphic" in2="BackgroundImageFix" result="shape"/>
<feGaussianBlur stdDeviation="26.5" result="effect1_foregroundBlur_328_16446"/>
</filter>
<filter id="filter1_i_328_16446" x="56.3438" y="60.8027" width="95.4219" height="108.354" filterUnits="userSpaceOnUse" color-interpolation-filters="sRGB">
<feFlood flood-opacity="0" result="BackgroundImageFix"/>
<feBlend mode="normal" in="SourceGraphic" in2="BackgroundImageFix" result="shape"/>
<feColorMatrix in="SourceAlpha" type="matrix" values="0 0 0 0 0 0 0 0 0 0 0 0 0 0 0 0 0 0 127 0" result="hardAlpha"/>
<feOffset dy="4"/>
<feGaussianBlur stdDeviation="4"/>
<feComposite in2="hardAlpha" operator="arithmetic" k2="-1" k3="1"/>
<feColorMatrix type="matrix" values="0 0 0 0 1 0 0 0 0 1 0 0 0 0 1 0 0 0 0.55 0"/>
<feBlend mode="normal" in2="shape" result="effect1_innerShadow_328_16446"/>
</filter>
<linearGradient id="paint0_linear_328_16446" x1="106.825" y1="52.151" x2="87.7513" y2="167.645" gradientUnits="userSpaceOnUse">
<stop stop-color="#FFEE94"/>
<stop offset="1" stop-color="#FF9900"/>
</linearGradient>
</defs>
</svg>
