<svg width="49" height="50" viewBox="0 0 49 50" fill="none" xmlns="http://www.w3.org/2000/svg">
<path d="M17.1836 43.9099C17.1836 41.2343 18.7214 38.9276 20.9357 37.7897V24H18.7521V36.498C16.507 37.6359 15 39.9426 15 42.6182C15 45.5707 16.8761 48.0926 19.4902 49.046C18.0755 47.7851 17.1836 45.9705 17.1836 43.9099Z" fill="#6CAFFF"/>
<path d="M20.9663 1.65283C19.7053 2.05265 18.7827 3.22133 18.7827 4.6053V24H20.9663V1.65283Z" fill="white"/>
<path d="M20.9664 24V37.7897C18.7213 38.9276 17.1836 41.2343 17.1836 43.9099C17.1836 45.9705 18.0755 47.7851 19.4902 49.046C20.2283 49.3228 21.028 49.4766 21.8891 49.4766C25.6719 49.4766 28.7474 46.4011 28.7474 42.6182C28.7474 39.9426 27.2097 37.6359 24.9953 36.498V24H20.9664Z" fill="#579FF5"/>
<path d="M21.889 1.5C21.5814 1.5 21.2739 1.56151 20.9663 1.65377V24H24.9952V4.60624C24.9952 2.88397 23.6112 1.5 21.889 1.5Z" fill="#E0DCE3"/>
<path d="M42.9371 33.9906C42.9371 33.9906 42.9926 33.6698 42.8816 33.3491C42.7706 33.0283 42.604 32.5566 42.53 32.2925C42.4375 32.0283 41.9009 31.9906 41.3274 32.1792C40.7538 32.3868 40.2357 32.5189 40.1802 32.4811C40.1247 32.4434 40.0137 32.2736 39.9582 32.0849C39.9027 31.8962 39.7917 31.5943 39.7176 31.3868C39.6436 31.1981 39.6436 30.8585 39.7176 30.6509C39.7917 30.4434 39.8842 30.1226 39.9582 29.934C40.0137 29.7453 40.1247 29.5755 40.1802 29.5377C40.2357 29.5 40.7538 29.6321 41.3274 29.8396C41.9009 30.0472 42.4375 29.9906 42.53 29.7264C42.6225 29.4623 42.7891 28.9906 42.9001 28.6698C43.0111 28.3491 43.0296 28.066 42.9556 28.0283C42.8816 28.0094 42.8816 27.934 42.9556 27.8774C43.0481 27.8208 42.9741 27.5566 42.8076 27.2547C42.641 26.9717 42.4375 26.7642 42.345 26.8208C42.2525 26.8774 42.197 26.8396 42.2155 26.7641C42.2155 26.6887 41.9749 26.5566 41.6419 26.5C41.3089 26.4245 40.8278 26.3302 40.5687 26.2925C40.2912 26.2358 39.9952 26.6887 39.8842 27.2925C39.7731 27.8962 39.6251 28.4245 39.5696 28.4623C39.5141 28.5 39.3106 28.5 39.1256 28.4623C38.9405 28.4245 38.626 28.3679 38.4225 28.3302C38.2189 28.2925 37.9414 28.1226 37.8119 27.9528C37.6824 27.8019 37.4603 27.5377 37.3308 27.3868C37.2013 27.2359 37.1088 27.066 37.1088 26.9906C37.1088 26.9151 37.4788 26.5377 37.9414 26.1226C38.404 25.7264 38.626 25.217 38.4595 25.0094C38.2929 24.8019 37.9599 24.4245 37.7379 24.1604C37.5158 23.8962 37.2938 23.7264 37.2198 23.783C37.1458 23.8396 37.1088 23.783 37.1088 23.6887C37.1088 23.5943 36.9793 23.5 36.8127 23.5H36.5167C36.5167 23.5 36.3872 23.5 36.2207 23.5C36.0541 23.5 35.9246 23.5755 35.9246 23.6887C35.9246 23.8019 35.8691 23.8396 35.8136 23.783C35.7581 23.7264 35.5176 23.8962 35.2955 24.1604C35.0735 24.4245 34.759 24.8019 34.5739 25.0094C34.3889 25.217 34.6294 25.7075 35.092 26.1226C35.5546 26.5189 35.9246 26.9151 35.9246 26.9906C35.9246 27.066 35.8136 27.2359 35.7026 27.3868C35.5731 27.5377 35.3696 27.783 35.24 27.9528C35.1105 28.1226 34.8145 28.2736 34.6109 28.3113C34.4074 28.3491 34.0744 28.4057 33.8893 28.4623C33.7043 28.5 33.5008 28.5 33.4453 28.4623C33.3898 28.4245 33.2418 27.9151 33.1307 27.2925C33.0197 26.6887 32.7052 26.2358 32.4461 26.2925C32.1871 26.3491 31.706 26.4434 31.373 26.5C31.0399 26.5566 30.7809 26.6887 30.7994 26.7641C30.7994 26.8396 30.7624 26.8774 30.6699 26.8208C30.5774 26.7642 30.3739 26.9717 30.2073 27.2547C30.0408 27.5377 29.9853 27.8208 30.0593 27.8774C30.1518 27.934 30.1518 27.9906 30.0593 28.0283C29.9853 28.0472 30.0038 28.3491 30.1148 28.6698C30.2258 28.9906 30.3924 29.4623 30.4664 29.7264C30.5589 29.9906 31.0955 30.0283 31.669 29.8396C32.2426 29.6321 32.7607 29.5 32.8162 29.5377C32.8717 29.5755 32.9642 29.7453 33.0382 29.934C33.0937 30.1226 33.2047 30.4245 33.2787 30.6321C33.3528 30.8396 33.3343 31.1604 33.2787 31.3679C33.2047 31.5755 33.0937 31.8962 33.0382 32.0849C32.9827 32.2736 32.8717 32.4434 32.8162 32.4811C32.7607 32.5189 32.2426 32.3868 31.669 32.1792C31.0955 31.9717 30.5589 32.0283 30.4664 32.2736C30.3739 32.5377 30.2073 33.0094 30.1148 33.3302C30.0038 33.6509 29.9668 33.934 30.0593 33.9717C30.1333 33.9906 30.1333 34.066 30.0408 34.1226C29.9483 34.1792 30.0223 34.4434 30.1703 34.7453C30.3369 35.0283 30.5404 35.2359 30.6329 35.1792C30.7254 35.1226 30.7809 35.1604 30.7624 35.2359C30.7624 35.3113 31.003 35.4434 31.336 35.5C31.669 35.5566 32.1501 35.6509 32.4092 35.7075C32.6682 35.7642 32.9827 35.3113 33.0937 34.7076C33.2048 34.1038 33.3528 33.5755 33.4083 33.5566C33.4638 33.5189 33.6673 33.5189 33.8523 33.5566C34.0374 33.5943 34.3519 33.6509 34.5554 33.6887C34.759 33.7264 35.0365 33.8962 35.166 34.066C35.314 34.2359 35.5176 34.4811 35.6471 34.6321C35.7766 34.783 35.8691 34.9528 35.8691 35.0283C35.8691 35.1038 35.4991 35.4811 35.0365 35.8774C34.5739 36.2736 34.3519 36.783 34.5184 36.9906C34.685 37.1981 35.018 37.5755 35.24 37.8396C35.4621 38.1038 35.6841 38.2736 35.7581 38.217C35.8136 38.1604 35.8691 38.217 35.8691 38.3113C35.8691 38.4057 36.1281 38.5 36.4612 38.5C36.7942 38.5 37.0533 38.4245 37.0533 38.3113C37.0533 38.1981 37.1088 38.1604 37.1643 38.217C37.2198 38.2736 37.4603 38.1038 37.6824 37.8396C37.9044 37.5755 38.2189 37.1981 38.404 36.9906C38.5705 36.783 38.3484 36.2925 37.8859 35.8774C37.4233 35.4811 37.0533 35.0849 37.0533 35.0283C37.0533 34.9717 37.1643 34.783 37.2753 34.6321C37.4048 34.4811 37.6084 34.2358 37.7564 34.0849C37.8859 33.9151 38.1634 33.7642 38.3855 33.7264C38.589 33.6887 38.922 33.6321 39.1071 33.5943C39.2921 33.5566 39.4956 33.5566 39.5511 33.5943C39.6066 33.6321 39.7547 34.1415 39.8657 34.7642C39.9767 35.3679 40.2912 35.8208 40.5503 35.7641C40.8093 35.7075 41.2904 35.6132 41.6234 35.5566C41.9565 35.5 42.2155 35.3679 42.197 35.2925C42.197 35.217 42.234 35.1792 42.3265 35.2359C42.419 35.2925 42.6225 35.0849 42.789 34.8019C42.9556 34.5189 43.0111 34.2358 42.9186 34.1792C42.8261 34.1226 42.8261 34.066 42.9001 34.0283L42.9371 33.9906Z" fill="white"/>
<path d="M24.9954 25.3037H21.9199V26.5647H24.9954V25.3037Z" fill="#F5F4F6"/>
<path d="M24.9954 28.8398H21.9199V30.1008H24.9954V28.8398Z" fill="#F5F4F6"/>
<path d="M24.9954 32.3779H21.9199V33.6389H24.9954V32.3779Z" fill="#F5F4F6"/>
</svg>
