<svg width="119" height="86" viewBox="0 0 119 86" fill="none" xmlns="http://www.w3.org/2000/svg">
<g filter="url(#filter0_d_35_1596)">
<path opacity="0.1" d="M81.7798 57C79.6866 56.9924 77.6062 56.6723 75.6075 56.0502C70.7088 54.5341 66.5454 51.2567 63.9212 46.851C61.2971 42.4453 60.3982 37.2235 61.3982 32.1939C62.1017 28.6808 63.6101 25.5449 65.8825 22.8726C68.1026 20.2645 70.8134 18.297 73.9392 17.0253C74.4676 16.8106 74.9639 16.6361 75.4432 16.4673C75.6321 16.4043 75.8173 16.3357 76.0031 16.2683L76.7419 16H78.9141L79.7801 16.3848C83.0552 17.8397 83.6522 20.7129 83.1698 22.7315C82.9009 23.8564 82.3265 24.6928 81.9171 25.2243C81.0744 26.3209 80.6064 27.5918 80.488 29.1103C80.3558 30.8008 80.7242 32.3142 81.6141 33.7357C82.6892 35.4539 84.112 36.5145 86.0909 37.0738C86.7399 37.2587 87.4113 37.3535 88.0862 37.3553C88.6503 37.3544 89.2126 37.291 89.7627 37.1664C90.9027 36.9094 91.9306 36.4055 92.9055 35.6252C94.0392 34.7182 95.3518 34.2396 96.7034 34.2396C99.113 34.2396 101.207 35.8141 101.915 38.1602C102.148 38.9336 102.194 39.7513 102.05 40.546V40.563C101.997 40.8959 101.914 41.2236 101.804 41.5423V41.5386C101.731 41.759 101.657 41.9977 101.578 42.2503C101.363 42.9879 101.106 43.7128 100.809 44.4212C98.7748 49.1027 95.4443 52.6032 90.9109 54.8246C87.9621 56.2675 84.8911 57 81.7798 57Z" fill="#FFEE94"/>
</g>
<path d="M77.5269 20.4648H77.9678C78.6606 20.7728 78.9598 21.1513 78.8294 21.6961C78.7601 21.9858 78.568 22.2629 78.3803 22.5048C76.9588 24.354 76.2188 26.4638 76.0393 28.7646C75.8334 31.3979 76.4254 33.8598 77.8318 36.1064C79.4983 38.768 81.8595 40.5151 84.8776 41.371C86.7895 41.9161 88.8085 41.9673 90.7456 41.5197C92.5828 41.1053 94.2247 40.2859 95.6947 39.11C96.5135 38.4556 97.3877 38.6024 97.6428 39.4482C97.6894 39.6013 97.6661 39.7001 97.6428 39.845C97.6284 39.9386 97.6048 40.0306 97.5722 40.1196C97.2894 40.961 97.0683 41.8296 96.7156 42.6389C95.1235 46.3032 92.5393 49.053 88.9462 50.8139C85.0715 52.7122 81.0407 53.0479 76.9166 51.782C68.9645 49.3389 64.1439 41.2092 65.7732 33.0675C66.3199 30.3353 67.4738 27.8916 69.2801 25.7654C71.0215 23.7191 73.1289 22.1754 75.6192 21.1595C76.2471 20.9069 76.8908 20.696 77.5269 20.4648Z" fill="#FFEE94"/>
<path opacity="0.827" d="M52.2339 75.3181V52.0459H62.258C63.7024 49.9229 65.6712 48.2094 67.9731 47.0716C70.2751 45.9339 72.8322 45.4107 75.396 45.5527C77.9599 45.6947 80.4435 46.4971 82.6057 47.8821C84.768 49.2671 86.5355 51.1875 87.7366 53.4571C88.9377 55.7267 89.5316 58.2682 89.4608 60.835C89.3899 63.4018 88.6566 65.9067 87.3321 68.1065C86.0076 70.3064 84.1369 72.1264 81.9015 73.39C79.6661 74.6536 77.142 75.3177 74.5743 75.3181H52.2339Z" fill="url(#paint0_linear_35_1596)"/>
<path d="M29.8933 75.3173C25.9434 75.3173 22.1552 73.7482 19.3622 70.9551C16.5691 68.1621 15 64.3739 15 60.424C15 56.474 16.5691 52.6859 19.3622 49.8928C22.1552 47.0998 25.9434 45.5307 29.8933 45.5307C30.3156 45.5307 30.7343 45.5479 31.1493 45.5825C32.5053 41.7147 34.899 38.2945 38.0686 35.6961C41.2381 33.0976 45.0614 31.4211 49.1199 30.8499C53.1784 30.2787 57.3159 30.8349 61.0795 32.4575C64.8432 34.0802 68.088 36.7069 70.4588 40.0501C72.8297 43.3933 74.2353 47.3242 74.5218 51.4127C74.8083 55.5012 73.9647 59.5898 72.0833 63.2309C70.2019 66.8721 67.3551 69.9257 63.8546 72.0574C60.354 74.1891 56.3346 75.3169 52.236 75.3173H29.8933Z" fill="url(#paint1_linear_35_1596)"/>
<defs>
<filter id="filter0_d_35_1596" x="45" y="0" width="73.1323" height="73" filterUnits="userSpaceOnUse" color-interpolation-filters="sRGB">
<feFlood flood-opacity="0" result="BackgroundImageFix"/>
<feColorMatrix in="SourceAlpha" type="matrix" values="0 0 0 0 0 0 0 0 0 0 0 0 0 0 0 0 0 0 127 0" result="hardAlpha"/>
<feOffset/>
<feGaussianBlur stdDeviation="8"/>
<feColorMatrix type="matrix" values="0 0 0 0 1 0 0 0 0 0.933333 0 0 0 0 0.580392 0 0 0 0.5 0"/>
<feBlend mode="normal" in2="BackgroundImageFix" result="effect1_dropShadow_35_1596"/>
<feBlend mode="normal" in="SourceGraphic" in2="effect1_dropShadow_35_1596" result="shape"/>
</filter>
<linearGradient id="paint0_linear_35_1596" x1="70.8502" y1="57.9515" x2="70.8502" y2="75.3181" gradientUnits="userSpaceOnUse">
<stop stop-color="#F0F1F6"/>
<stop offset="1" stop-color="#E1E3EF"/>
</linearGradient>
<linearGradient id="paint1_linear_35_1596" x1="44.7882" y1="51.0084" x2="44.7882" y2="75.3173" gradientUnits="userSpaceOnUse">
<stop stop-color="white"/>
<stop offset="1" stop-color="#E1E3EF"/>
</linearGradient>
</defs>
</svg>
