<svg width="110" height="74" viewBox="0 0 110 74" fill="none" xmlns="http://www.w3.org/2000/svg">
<path opacity="0.827" d="M55.2334 53.6863V30.4141H65.2575C66.7019 28.2911 68.6707 26.5776 70.9727 25.4398C73.2746 24.3021 75.8317 23.7789 78.3955 23.9209C80.9594 24.0629 83.443 24.8653 85.6053 26.2503C87.7675 27.6353 89.535 29.5558 90.7361 31.8253C91.9372 34.0949 92.5312 36.6364 92.4603 39.2032C92.3894 41.77 91.6562 44.2749 90.3317 46.4748C89.0072 48.6746 87.1364 50.4946 84.901 51.7582C82.6657 53.0218 80.1416 53.6859 77.5738 53.6863H55.2334Z" fill="url(#paint0_linear_35_1743)"/>
<path d="M32.8933 53.6855C28.9434 53.6855 25.1552 52.1163 22.3622 49.3233C19.5691 46.5303 18 42.7421 18 38.7921C18 34.8422 19.5691 31.054 22.3622 28.261C25.1552 25.4679 28.9434 23.8988 32.8933 23.8988C33.3156 23.8988 33.7343 23.9161 34.1493 23.9506C35.5053 20.0829 37.899 16.6627 41.0686 14.0643C44.2381 11.4658 48.0614 9.78925 52.1199 9.21805C56.1784 8.64686 60.3159 9.20302 64.0795 10.8257C67.8432 12.4484 71.088 15.075 73.4588 18.4182C75.8297 21.7614 77.2353 25.6923 77.5218 29.7809C77.8083 33.8694 76.9647 37.9579 75.0833 41.5991C73.2019 45.2403 70.3551 48.2938 66.8546 50.4255C63.354 52.5573 59.3346 53.685 55.236 53.6855H32.8933Z" fill="url(#paint1_linear_35_1743)"/>
<path d="M50.1325 43C50.3669 43.2087 50.5941 43.4059 50.8164 43.61C52.3632 45.0365 53.822 46.5394 55.1138 48.1863C56.1305 49.4826 57.037 50.8436 57.7429 52.3212C58.2133 53.3054 58.5763 54.3238 58.8065 55.3852C58.9968 56.2652 59.0403 57.1504 58.9651 58.0442C58.8196 59.7772 58.173 61.324 57.0641 62.6894C56.0607 63.9241 54.7963 64.8368 53.2747 65.41C52.291 65.7819 51.2456 65.9812 50.1885 65.9983C48.6723 66.026 47.2441 65.7164 45.9025 65.0475C44.2872 64.242 43.0395 63.0686 42.1496 61.5456C41.6297 60.6549 41.2793 59.6825 41.115 58.6739C40.9509 57.6874 40.9659 56.6998 41.1377 55.7152C41.4145 54.129 42.0442 52.6678 42.859 51.2728C43.6885 49.8527 44.6908 48.5498 45.7727 47.3002C47.031 45.8466 48.4218 44.5158 49.8601 43.2291C49.9446 43.1529 50.0349 43.0816 50.1325 43Z" fill="#C1DDFF"/>
<path d="M64.0262 51.0406C64.0054 50.189 64.2323 49.3957 64.5634 48.6303C64.9886 47.6481 65.5728 46.77 66.2272 45.9401C67.029 44.9229 67.9362 44.0133 68.8871 43.1496C69.1196 42.9386 69.0712 42.9591 69.2859 43.1589C70.0408 43.8616 70.767 44.5944 71.4259 45.3961C72.1368 46.2608 72.7835 47.1717 73.2736 48.1941C73.595 48.8651 73.857 49.5619 73.9509 50.3064C74.1765 52.1011 73.6247 53.6024 72.3 54.7818C71.5399 55.4589 70.647 55.8397 69.6536 55.9583C68.2603 56.1245 66.9871 55.7981 65.8689 54.9075C64.9618 54.185 64.3751 53.2342 64.1217 52.0761C64.048 51.7396 64.0386 51.3878 64 51.0432L64.0262 51.0406Z" fill="#9ECAFF"/>
<defs>
<linearGradient id="paint0_linear_35_1743" x1="73.8497" y1="36.3198" x2="73.8497" y2="53.6863" gradientUnits="userSpaceOnUse">
<stop stop-color="#F0F1F6"/>
<stop offset="1" stop-color="#E1E3EF"/>
</linearGradient>
<linearGradient id="paint1_linear_35_1743" x1="47.7882" y1="29.3766" x2="47.7882" y2="53.6855" gradientUnits="userSpaceOnUse">
<stop stop-color="white"/>
<stop offset="1" stop-color="#E1E3EF"/>
</linearGradient>
</defs>
</svg>
