<svg width="110" height="74" viewBox="0 0 110 74" fill="none" xmlns="http://www.w3.org/2000/svg">
<path d="M60.1088 34.3369H43.3991C42.7505 34.3369 42.1285 34.0793 41.6699 33.6207C41.2113 33.1621 40.9536 32.54 40.9536 31.8915C40.9536 31.2429 41.2113 30.6209 41.6699 30.1622C42.1285 29.7036 42.7505 29.446 43.3991 29.446H60.1088C62.4107 29.446 64.5011 28.6098 65.9921 27.0905C67.6061 25.4449 68.4597 23.1067 68.4597 20.3299C68.4597 17.9034 66.6185 12.8909 60.9276 12.8909C52.43 12.8909 51.731 20.5823 51.7184 20.7685C51.7167 21.4171 51.4575 22.0384 50.9977 22.4959C50.5379 22.9533 49.9152 23.2093 49.2667 23.2077C48.6181 23.206 47.9967 22.9467 47.5393 22.4869C47.0819 22.0271 46.8258 21.4045 46.8275 20.7559C46.8275 19.8093 47.2677 16.7106 49.2777 13.7571C51.0621 11.1302 54.5347 8 60.9276 8C64.6842 8 68.0274 9.51935 70.3419 12.2788C72.2257 14.5223 73.3506 17.5326 73.3506 20.3252C73.3506 28.4457 67.7812 34.3369 60.1088 34.3369Z" fill="url(#paint0_linear_35_2169)"/>
<path d="M35.0008 34.337H32.3029C31.6543 34.337 31.0323 34.0793 30.5737 33.6207C30.1151 33.1621 29.8574 32.5401 29.8574 31.8915C29.8574 31.2429 30.1151 30.6209 30.5737 30.1623C31.0323 29.7037 31.6543 29.446 32.3029 29.446H35.0008C35.6494 29.446 36.2714 29.7037 36.73 30.1623C37.1886 30.6209 37.4462 31.2429 37.4462 31.8915C37.4462 32.5401 37.1886 33.1621 36.73 33.6207C36.2714 34.0793 35.6494 34.337 35.0008 34.337Z" fill="url(#paint1_linear_35_2169)"/>
<path d="M84.3787 23.1272C82.1352 21.3034 79.2243 20.2147 76.5927 20.2147C75.4953 20.2112 74.4024 20.3566 73.3441 20.647C73.3249 22.8911 72.8133 25.1037 71.8453 27.1283V27.1378C72.0236 26.8917 73.423 25.1041 76.5974 25.1041C79.147 25.1041 83.6972 27.3129 83.6972 31.7148C83.6972 36.0661 80.6995 38.7688 75.8843 38.7688H23.4455C22.7969 38.7688 22.1749 39.0264 21.7163 39.485C21.2576 39.9437 21 40.5657 21 41.2142C21 41.8628 21.2576 42.4848 21.7163 42.9435C22.1749 43.4021 22.7969 43.6597 23.4455 43.6597H75.8859C79.6124 43.6597 82.7994 42.4938 85.1029 40.2897C87.3512 38.1393 88.5897 35.0943 88.5897 31.7148C88.5897 28.3826 87.094 25.3329 84.3787 23.1272Z" fill="url(#paint2_linear_35_2169)" fill-opacity="0.7"/>
<path d="M75.8858 43.6612H67.273C69.0716 43.6612 70.4095 44.2703 71.3751 45.523C72.1199 46.5256 72.5385 47.7329 72.5742 48.9813C72.5742 50.6932 70.6809 53.9685 67.7258 53.9685C62.1486 53.9685 61.9876 48.8819 61.9876 48.3013C61.9876 47.6528 61.73 47.0307 61.2714 46.5721C60.8128 46.1135 60.1907 45.8559 59.5422 45.8559C58.8936 45.8559 58.2715 46.1135 57.8129 46.5721C57.3543 47.0307 57.0967 47.6528 57.0967 48.3013C57.0967 53.5488 60.7476 58.8595 67.7258 58.8595C70.4711 58.8595 73.0333 57.5973 74.9392 55.3254C76.5169 53.4321 77.4635 51.0655 77.4635 48.9813C77.4363 47.1109 76.9301 45.2787 75.9931 43.6597L75.8858 43.6612Z" fill="url(#paint3_linear_35_2169)" fill-opacity="0.4"/>
<defs>
<linearGradient id="paint0_linear_35_2169" x1="50.6899" y1="8" x2="61.159" y2="43.3335" gradientUnits="userSpaceOnUse">
<stop stop-color="white"/>
<stop offset="1" stop-color="#E1E3EF"/>
</linearGradient>
<linearGradient id="paint1_linear_35_2169" x1="28.8791" y1="16.2881" x2="37.1672" y2="42.461" gradientUnits="userSpaceOnUse">
<stop stop-color="white"/>
<stop offset="1" stop-color="#E1E3EF"/>
</linearGradient>
<linearGradient id="paint2_linear_35_2169" x1="54.7948" y1="20.2147" x2="54.7948" y2="43.6597" gradientUnits="userSpaceOnUse">
<stop stop-color="white"/>
<stop offset="1" stop-color="#E1E3EF"/>
</linearGradient>
<linearGradient id="paint3_linear_35_2169" x1="57.233" y1="27.1935" x2="68.5746" y2="57.7286" gradientUnits="userSpaceOnUse">
<stop stop-color="white"/>
<stop offset="1" stop-color="#E1E3EF"/>
</linearGradient>
</defs>
</svg>
