<svg width="44" height="44" viewBox="0 0 44 44" fill="none" xmlns="http://www.w3.org/2000/svg">
<path d="M31.2235 41.5H19.7764C19.3969 41.5 19.033 41.3595 18.7646 41.1095C18.4963 40.8594 18.3455 40.5203 18.3455 40.1667V29.5933L16.4854 30.9267C16.353 31.0503 16.1958 31.1483 16.0227 31.2152C15.8496 31.2822 15.664 31.3166 15.4766 31.3166C15.2892 31.3166 15.1037 31.2822 14.9306 31.2152C14.7575 31.1483 14.6002 31.0503 14.4679 30.9267L10.4185 27.22C10.2858 27.0966 10.1806 26.9501 10.1088 26.7888C10.037 26.6275 10 26.4546 10 26.28C10 26.1054 10.037 25.9325 10.1088 25.7712C10.1806 25.6099 10.2858 25.4634 10.4185 25.34L18.832 17.5H21.2073C21.2073 18.9667 23.1247 20.1667 25.5 20.1667C27.8752 20.1667 29.7926 18.9667 29.7926 17.5H32.1679L40.5815 25.34C41.1395 25.86 41.1395 26.7 40.5815 27.22L36.5321 30.9933C35.974 31.5 35.0726 31.5 34.5145 30.9933L32.6544 29.66V40.1667C32.6544 40.5203 32.5036 40.8594 32.2353 41.1095C31.9669 41.3595 31.603 41.5 31.2235 41.5Z" fill="white" stroke="#272727" stroke-width="3" stroke-linejoin="round"/>
<rect x="5.5" y="7.16016" width="3" height="5" rx="1.5" transform="rotate(-45 5.5 7.16016)" fill="#272727"/>
<rect x="26.3799" y="5.0498" width="3" height="5" rx="1.5" transform="rotate(45 26.3799 5.0498)" fill="#272727"/>
<rect x="15.5" y="2" width="3" height="5" rx="1.5" fill="#272727"/>
<rect x="8" y="15" width="3" height="5" rx="1.5" transform="rotate(90 8 15)" fill="#272727"/>
<path fill-rule="evenodd" clip-rule="evenodd" d="M11.7212 16.2431C11.7212 13.3458 14.0699 10.9971 16.9672 10.9971C19.7877 10.9971 22.0883 13.2229 22.2082 16.0139C22.4224 16.0413 22.6436 16.0556 22.8699 16.0556C23.7549 16.0556 24.562 15.8359 25.1778 15.4745C24.7902 11.2807 21.2621 7.99707 16.9672 7.99707C12.413 7.99707 8.72119 11.6889 8.72119 16.2431C8.72119 18.0438 9.29838 19.7097 10.2779 21.0658C10.2874 21.0364 10.2981 21.0072 10.3099 20.9785C10.3685 20.8369 10.4544 20.7082 10.5627 20.5998L12.3753 18.7817C11.9585 18.0295 11.7212 17.164 11.7212 16.2431ZM16.8344 24.488C16.8786 24.4887 16.9228 24.489 16.9672 24.489C16.9886 24.489 17.0101 24.489 17.0315 24.4888V24.3359L16.8344 24.488Z" fill="#272727"/>
</svg>
