<svg width="368" height="295" viewBox="0 0 368 295" fill="none" xmlns="http://www.w3.org/2000/svg">
<g filter="url(#filter0_d_1905_22725)">
<ellipse cx="184" cy="142.5" rx="169" ry="132.5" fill="#FDFDFD"/>
</g>
<mask id="mask0_1905_22725" style="mask-type:alpha" maskUnits="userSpaceOnUse" x="15" y="10" width="338" height="265">
<ellipse cx="184" cy="142.5" rx="169" ry="132.5" fill="#FDFDFD"/>
</mask>
<g mask="url(#mask0_1905_22725)">
<path d="M123.612 119.873C123.612 120.256 123.498 120.63 123.286 120.949C123.073 121.267 122.77 121.515 122.416 121.661C122.062 121.807 121.673 121.845 121.298 121.769C120.922 121.694 120.578 121.509 120.308 121.237C120.037 120.966 119.854 120.621 119.78 120.245C119.707 119.869 119.746 119.48 119.894 119.127C120.042 118.774 120.291 118.472 120.611 118.261C120.93 118.05 121.305 117.938 121.687 117.939C121.941 117.939 122.192 117.99 122.426 118.087C122.66 118.184 122.873 118.327 123.052 118.506C123.23 118.686 123.372 118.899 123.468 119.134C123.564 119.369 123.613 119.62 123.612 119.873Z" fill="white" fill-opacity="0.41"/>
<path d="M132.859 112.284C133.927 112.284 134.793 111.418 134.793 110.35C134.793 109.282 133.927 108.416 132.859 108.416C131.791 108.416 130.926 109.282 130.926 110.35C130.926 111.418 131.791 112.284 132.859 112.284Z" fill="white" fill-opacity="0.41"/>
<path d="M106.757 143.712C106.759 144.095 106.647 144.469 106.436 144.789C106.224 145.108 105.923 145.357 105.57 145.505C105.217 145.653 104.828 145.692 104.452 145.619C104.076 145.545 103.731 145.362 103.459 145.092C103.188 144.822 103.003 144.477 102.927 144.102C102.852 143.726 102.89 143.337 103.036 142.983C103.182 142.629 103.43 142.327 103.748 142.114C104.066 141.901 104.441 141.787 104.823 141.787C105.077 141.786 105.328 141.835 105.563 141.931C105.797 142.027 106.011 142.169 106.19 142.348C106.37 142.526 106.513 142.739 106.61 142.973C106.707 143.207 106.757 143.458 106.757 143.712Z" fill="white" fill-opacity="0.41"/>
<path d="M-76.6702 198.459C-76.7194 198.335 -76.7685 198.209 -76.8176 198.084C-54.6979 215.902 -30.7914 226.241 -11.2247 225.748C-6.27782 225.618 -1.36893 224.848 3.37945 223.456L7.63704 226.912C1.60532 229.017 -4.71884 230.164 -11.1056 230.312C-31.892 230.871 -50.7079 224.373 -73.7764 205.704C-74.8847 203.336 -75.9541 200.837 -76.9844 198.207C-76.8797 198.291 -76.7749 198.375 -76.6702 198.459ZM-76.6702 198.459C-75.6869 200.951 -74.6684 203.324 -73.6148 205.578M-76.6702 198.459C-54.608 216.158 -30.7721 226.44 -11.2197 225.948C-6.18005 225.815 -1.17996 225.021 3.65221 223.584L3.96658 223.491L3.73958 223.254C-1.58098 217.706 -4.26987 210.454 -4.2334 201.626V201.626C-4.2334 191.972 -0.0917282 187.631 3.30952 185.687L3.30984 185.687C8.1374 182.917 14.7686 183.285 20.6058 186.685C27.0388 190.438 30.8531 196.772 30.8263 203.631C30.7821 206.445 30.0998 209.213 28.8309 211.726C27.5618 214.239 25.739 216.431 23.4997 218.138L23.4992 218.138C20.1376 220.718 16.4949 222.908 12.6406 224.668L12.278 224.833L12.6274 225.025C23.7324 231.118 36.6145 233.148 49.055 230.765L49.0563 230.765C68.6102 226.884 84.9547 219.944 97.6232 210.133C107.541 202.511 115.505 192.642 120.86 181.338C126.214 170.035 128.806 157.621 128.422 145.12V145.04H128.422L128.422 145.03C127.291 122.372 114.067 100.242 94.7074 88.6409C77.9205 78.5743 56.4198 75.8228 34.1807 80.873L34.225 81.068L34.1806 80.873C20.3662 84.0122 1.5335 91.4629 -9.57027 109.153L-9.40087 109.26L-9.57029 109.154C-15.5518 118.687 -17.7321 129.367 -17.1835 139.038C-16.6351 148.705 -13.3585 157.381 -8.40413 162.899C-4.84329 166.87 0.337784 168.123 5.94869 168.114C11.5185 168.105 17.5525 166.851 22.9215 165.735L23.0381 165.711L23.0384 165.711L26.5928 164.978C26.5928 164.978 26.5929 164.978 26.5929 164.978C29.5166 164.397 34.6553 162.575 40.7057 160.179C46.7621 157.78 53.7487 154.799 60.3766 151.888C67.0048 148.977 73.2756 146.136 77.9007 144.019C80.2132 142.96 82.1144 142.083 83.4432 141.468C83.9637 141.227 84.3965 141.026 84.7316 140.871L84.9868 140.753C85.129 140.687 85.2453 140.633 85.3346 140.592L86.2285 143.954C86.2131 143.961 86.197 143.968 86.1803 143.976C86.069 144.027 85.916 144.098 85.7238 144.188C85.3394 144.369 84.7965 144.626 84.1151 144.95C83.8914 145.056 83.6529 145.169 83.4 145.289C82.1117 145.901 80.4532 146.688 78.5154 147.603C73.879 149.792 67.6446 152.71 61.0614 155.694C54.4779 158.677 47.5469 161.727 41.5171 164.178C35.4816 166.631 30.3659 168.478 27.4041 169.067C26.266 169.288 25.0917 169.535 23.8915 169.792C17.9297 171.044 11.2482 172.443 4.96379 172.314C-1.31595 172.185 -7.17148 170.531 -11.5066 165.702C-17.8098 158.67 -21.3265 148.511 -21.3904 137.084V137.084C-21.4604 126.465 -18.5904 116.034 -13.0982 106.945C-1.22459 88.0674 18.647 80.1397 33.2615 76.7904C56.5629 71.5026 79.1463 74.4331 96.8478 85.0155C117.32 97.3538 131.307 120.82 132.55 144.785L132.55 144.791C132.65 146.002 133.877 163.486 124.522 183.274C118.909 195.124 110.553 205.467 100.147 213.446L100.146 213.446C86.969 223.651 70.0533 230.826 49.8214 234.873C46.1703 235.598 42.4567 235.962 38.7343 235.96C34.7638 235.959 30.805 235.53 26.9265 234.681M26.9265 234.681C26.9266 234.681 26.9266 234.681 26.9267 234.681L26.8837 234.876L26.9265 234.681Z" fill="url(#paint0_linear_1905_22725)" stroke="white" stroke-width="0.4"/>
<path d="M16.087 226.601C15.3724 226.561 14.6722 226.384 14.0249 226.079C12.4363 225.425 10.9537 224.538 9.62564 223.448C8.29181 222.371 7.08906 221.14 6.04209 219.782C5.57364 219.235 5.19612 218.616 4.92395 217.949C4.97894 217.949 5.4372 218.572 6.28955 219.553C7.40308 220.829 8.63013 222.001 9.95559 223.054C11.2568 224.119 12.6815 225.024 14.199 225.749C15.3172 226.335 16.1054 226.528 16.087 226.601Z" fill="white" fill-opacity="0.41"/>
<path d="M112.742 196.814C112.371 197.527 111.922 198.197 111.404 198.812C109.05 201.89 106.336 204.674 103.321 207.107C102.722 207.641 102.064 208.106 101.359 208.491C101.897 207.918 102.476 207.385 103.091 206.896C104.191 205.915 105.685 204.531 107.261 202.928C108.838 201.324 110.176 199.775 111.129 198.647C111.621 197.998 112.161 197.385 112.742 196.814Z" fill="white"/>
<path d="M150.456 146.663L142.309 104.778C142.127 103.983 141.642 103.289 140.959 102.844C140.275 102.4 139.445 102.238 138.644 102.394C137.843 102.55 137.134 103.011 136.667 103.68C136.2 104.349 136.011 105.173 136.141 105.979L136.516 107.885L119.662 112.028C117.874 112.466 116.222 113.336 114.849 114.561C113.477 115.787 112.426 117.331 111.789 119.057L101.625 121.559C99.9334 121.976 98.4765 123.046 97.5743 124.536C96.672 126.026 96.3983 127.814 96.8132 129.505L97.7297 133.172L87.7856 135.628C87.1266 135.79 86.5061 136.081 85.9595 136.483C85.4129 136.886 84.9508 137.392 84.5998 137.972C84.2487 138.553 84.0155 139.198 83.9134 139.868C83.8114 140.539 83.8425 141.224 84.005 141.883C84.1675 142.542 84.4581 143.162 84.8604 143.709C85.2627 144.256 85.7687 144.718 86.3496 145.069C86.9304 145.42 87.5747 145.653 88.2457 145.755C88.9167 145.857 89.6012 145.826 90.2601 145.664L100.213 143.216L100.919 146.085C101.335 147.777 102.406 149.233 103.896 150.136C105.386 151.038 107.174 151.312 108.865 150.897L119.213 148.349V148.266C120.568 149.426 122.181 150.246 123.916 150.659C125.652 151.072 127.461 151.065 129.193 150.64L144.151 146.974L144.325 147.891C144.507 148.686 144.991 149.379 145.675 149.824C146.359 150.269 147.189 150.431 147.99 150.275C148.791 150.119 149.5 149.658 149.967 148.989C150.434 148.32 150.623 147.496 150.493 146.69L150.456 146.663Z" fill="url(#paint1_linear_1905_22725)"/>
<path d="M150.456 146.663C150.52 146.893 150.548 147.131 150.539 147.369C150.527 148.079 150.275 148.764 149.824 149.312C149.453 149.755 148.97 150.091 148.425 150.285C147.88 150.478 147.294 150.522 146.726 150.412C146.171 150.294 145.657 150.031 145.237 149.649C144.816 149.267 144.505 148.781 144.334 148.24C144.215 147.837 144.16 147.424 144.068 147.003L144.187 147.076L133.189 149.825L129.899 150.65C128.734 150.985 127.528 151.152 126.316 151.145C123.662 151.094 121.109 150.122 119.093 148.396L119.368 148.221V148.295L119.414 148.469H119.24C115.748 149.321 112.091 150.302 108.16 151.173C107.111 151.307 106.045 151.195 105.048 150.845C104.05 150.495 103.148 149.917 102.413 149.156C101.651 148.372 101.094 147.412 100.791 146.361C100.507 145.316 100.268 144.271 100.003 143.217L100.25 143.373L91.8548 145.49C91.1308 145.646 90.4434 145.866 89.6644 145.985C88.6716 146.106 87.6649 145.947 86.7575 145.527C85.85 145.107 85.078 144.441 84.5283 143.606C83.9787 142.77 83.6732 141.798 83.6463 140.798C83.6194 139.799 83.8722 138.811 84.3761 137.947C84.8007 137.248 85.3722 136.648 86.0511 136.191C86.7299 135.734 87.4999 135.429 88.3079 135.299L97.6747 132.998L97.5097 133.264C97.3264 132.503 97.1339 131.715 96.9323 130.918C96.6949 130.099 96.5263 129.262 96.4282 128.416C96.3028 126.669 96.8578 124.942 97.9771 123.595C98.5242 122.933 99.1931 122.383 99.9476 121.973C100.699 121.587 101.501 121.309 102.331 121.148L111.734 118.838L111.587 118.976C112.484 116.577 114.15 114.544 116.326 113.193C117.387 112.546 118.544 112.073 119.753 111.79L123.236 110.929L136.47 107.693L136.324 107.923C136.223 107.428 136.131 106.924 136.031 106.429C135.9 105.923 135.866 105.398 135.93 104.88C136.012 104.367 136.213 103.881 136.517 103.46C136.821 103.039 137.219 102.695 137.679 102.456C138.139 102.216 138.65 102.088 139.169 102.08C139.688 102.073 140.201 102.188 140.668 102.414C141.125 102.623 141.528 102.934 141.846 103.324C142.164 103.713 142.388 104.17 142.501 104.66L144.508 115.026C145.755 121.533 146.845 127.215 147.744 131.917C148.642 136.618 149.329 140.285 149.815 142.823C150.044 144.07 150.218 145.032 150.337 145.701C150.392 146.022 150.438 146.26 150.466 146.443C150.474 146.529 150.474 146.615 150.466 146.7C150.435 146.62 150.413 146.537 150.401 146.453C150.401 146.269 150.31 146.031 150.246 145.719L149.65 142.842C149.146 140.312 148.413 136.628 147.478 131.963C146.543 127.298 145.434 121.588 144.151 115.09C143.509 111.839 142.828 108.39 142.107 104.742C142.006 104.31 141.808 103.907 141.529 103.563C141.25 103.218 140.896 102.941 140.494 102.753C140.08 102.557 139.625 102.459 139.167 102.47C138.709 102.48 138.259 102.598 137.855 102.814C137.45 103.029 137.101 103.337 136.837 103.712C136.573 104.086 136.4 104.518 136.333 104.971C136.268 105.446 136.299 105.929 136.425 106.392C136.525 106.887 136.626 107.382 136.718 107.886V108.069L136.535 108.115L123.309 111.387C121.027 112.019 118.571 112.303 116.527 113.596C114.426 114.895 112.814 116.855 111.945 119.168L111.899 119.278H111.789L102.386 121.597C101.595 121.747 100.829 122.009 100.113 122.376C99.4127 122.761 98.7911 123.274 98.2796 123.888C97.2316 125.144 96.7123 126.757 96.8315 128.388C96.9257 129.211 97.0913 130.023 97.3264 130.817C97.5189 131.624 97.7205 132.412 97.9038 133.172L97.9588 133.383L97.7388 133.438L88.4271 135.739C87.6736 135.848 86.9539 136.124 86.3199 136.545C85.6859 136.967 85.1535 137.524 84.761 138.177C84.3084 138.968 84.0843 139.869 84.1137 140.78C84.1431 141.69 84.4249 142.575 84.9275 143.335C85.4302 144.096 86.1341 144.701 86.9607 145.085C87.7874 145.469 88.7043 145.615 89.6094 145.509C90.3059 145.417 91.0391 145.188 91.754 145.023L100.14 142.97L100.342 142.924L100.388 143.117C100.653 144.171 100.892 145.234 101.167 146.251C101.45 147.239 101.973 148.143 102.688 148.881C103.379 149.598 104.227 150.145 105.166 150.477C106.104 150.81 107.107 150.919 108.095 150.797C111.954 149.935 115.675 148.964 119.148 148.13L119.029 148.341V148.267L118.901 147.745L119.304 148.093C121.261 149.77 123.74 150.713 126.316 150.76C127.499 150.77 128.679 150.61 129.817 150.284L133.107 149.486L144.105 146.819H144.206V146.92C144.297 147.342 144.352 147.772 144.462 148.148C144.572 148.518 144.753 148.864 144.994 149.165C145.442 149.71 146.057 150.09 146.745 150.247C147.184 150.337 147.638 150.332 148.075 150.23C148.512 150.128 148.922 149.933 149.277 149.658C149.631 149.383 149.922 149.034 150.129 148.636C150.335 148.237 150.454 147.799 150.475 147.351C150.48 147.122 150.474 146.892 150.456 146.663Z" fill="white" fill-opacity="0.41"/>
<path d="M144.481 146.883C144.362 146.883 142.4 138.213 140.1 127.472C137.799 116.73 136.021 107.987 136.15 107.959C136.278 107.932 138.23 116.62 140.54 127.371C142.849 138.121 144.609 146.856 144.481 146.883Z" fill="white" fill-opacity="0.41"/>
<path d="M119.176 148.239C119.057 148.239 117.343 141.741 115.272 133.666C113.201 125.592 111.688 119.002 111.808 119.002C111.927 119.002 113.641 125.5 115.712 133.593C117.783 141.686 119.295 148.239 119.176 148.239Z" fill="white" fill-opacity="0.41"/>
<path d="M100.195 143.217C99.523 141.628 99.0341 139.968 98.738 138.268C98.2993 136.604 97.9626 134.914 97.7299 133.209C98.3973 134.802 98.8831 136.465 99.1779 138.167C99.6172 139.829 99.9569 141.515 100.195 143.217Z" fill="white" fill-opacity="0.41"/>
<path d="M109.232 121.468C109.232 121.532 108.252 121.679 106.675 122.009C105.887 122.174 104.952 122.385 103.926 122.669C102.821 122.952 101.756 123.371 100.754 123.915C99.737 124.377 98.934 125.21 98.509 126.243C98.3031 127.146 98.2844 128.082 98.454 128.993C98.6557 130.578 98.9215 131.55 98.8573 131.568C98.4847 130.768 98.2403 129.914 98.1333 129.038C97.9247 128.084 97.9247 127.096 98.1333 126.142C98.2968 125.565 98.6134 125.042 99.0498 124.63C99.4979 124.2 100 123.83 100.544 123.53C101.575 122.961 102.679 122.536 103.825 122.265C104.87 122 105.823 121.825 106.574 121.697C107.446 121.503 108.34 121.426 109.232 121.468Z" fill="white"/>
<path d="M133.336 110.35C133.062 110.483 132.768 110.572 132.466 110.615C131.907 110.753 131.082 110.945 130.064 111.165L122.127 112.833C120.689 113.133 119.296 113.62 117.985 114.282C116.922 114.834 115.986 115.602 115.235 116.536C114.565 117.419 114.098 118.439 113.87 119.524C113.822 119.217 113.844 118.904 113.934 118.607C114.136 117.788 114.5 117.019 115.006 116.344C115.751 115.344 116.705 114.518 117.802 113.924C119.136 113.214 120.565 112.698 122.045 112.393C125.161 111.724 127.975 111.23 130.028 110.854C131.045 110.67 131.861 110.533 132.457 110.441C132.746 110.379 133.041 110.348 133.336 110.35Z" fill="white"/>
<path d="M95.9882 135.491C95.4568 135.852 94.8532 136.093 94.2194 136.197C93.0737 136.508 91.4698 136.637 89.7376 137.003C88.9376 137.166 88.1636 137.437 87.4372 137.81C86.8507 138.115 86.3207 138.518 85.87 139.001C85.4808 139.482 85.1458 140.005 84.871 140.559C84.9112 139.904 85.1767 139.282 85.6225 138.8C86.0677 138.248 86.6155 137.787 87.2356 137.443C87.9835 137.015 88.7937 136.705 89.6368 136.527C91.4057 136.151 93.0187 136.077 94.146 135.848C95.2734 135.619 95.9607 135.408 95.9882 135.491Z" fill="white"/>
<path d="M140.201 103.221C140.201 103.294 139.862 103.285 139.376 103.413C138.757 103.581 138.2 103.925 137.772 104.403C137.36 104.9 137.108 105.51 137.048 106.154C136.993 106.648 137.048 106.978 136.984 106.988C136.92 106.997 136.755 106.703 136.727 106.144C136.696 105.403 136.945 104.677 137.424 104.11C137.911 103.552 138.586 103.193 139.321 103.102C139.88 103.037 140.21 103.166 140.201 103.221Z" fill="white"/>
<path d="M426.074 236.148L426.074 236.148C434.556 236.148 443.374 230.669 451.661 223.261C459.94 215.859 467.647 206.569 473.909 199.01L473.909 199.009C475.946 196.574 478.023 194.21 479.781 192.226C480.156 191.803 480.517 191.397 480.859 191.012C482.034 189.689 482.995 188.607 483.603 187.884L480.444 185.363C479.27 186.343 477.945 187.751 476.384 189.553C475.199 190.922 473.882 192.511 472.396 194.306C471.856 194.957 471.293 195.636 470.707 196.342L426.074 236.148ZM426.074 236.148C424.263 236.153 422.46 235.893 420.724 235.377C412.068 232.785 407.999 228.379 406.164 223.391C404.328 218.398 404.719 212.795 405.072 207.748L405.075 207.703C405.414 203.005 405.595 199.134 404.705 196.072C404.257 194.535 403.539 193.197 402.435 192.059C401.332 190.921 399.85 189.99 397.889 189.254L397.889 189.254C392.721 187.317 389.045 187.28 385.846 188.463C382.671 189.637 379.991 192.007 376.807 194.822L376.78 194.845L376.913 194.995L376.78 194.845L376.775 194.849C372.963 198.222 368.712 201.983 362.552 204.483C356.392 206.983 348.309 208.229 336.836 206.528C324.961 204.765 305.748 198.486 282.211 178.547L282.211 178.546C273.869 171.53 266.153 163.801 259.151 155.448L262.393 152.841C263.534 154.228 272.172 164.57 285.138 175.509C298.926 187.143 317.635 199.474 337.446 202.406C347.922 203.959 355.243 202.909 360.864 200.652C366.472 198.401 370.371 194.953 374.003 191.742L374.021 191.726L374.021 191.726C377.289 188.834 380.433 186.055 384.354 184.586C388.263 183.122 392.964 182.956 399.352 185.348C404.965 187.456 407.58 190.94 408.726 194.969C409.878 199.019 409.548 203.629 409.231 207.995L409.229 208.024C408.864 213.101 408.52 217.89 410.025 221.93C411.541 226.002 414.921 229.282 421.92 231.379L421.978 231.188L421.92 231.379C425.899 232.571 430.177 231.882 434.531 229.969C438.885 228.056 443.332 224.912 447.664 221.166C456.313 213.687 464.536 203.777 470.676 196.378L470.706 196.342L426.074 236.148Z" fill="url(#paint2_linear_1905_22725)" stroke="white" stroke-width="0.4"/>
<path d="M361.47 200.266C361.47 200.266 361.287 200.44 360.92 200.669C360.406 201.01 359.87 201.316 359.316 201.586C357.484 202.482 355.548 203.147 353.551 203.566C351.557 203.976 349.518 204.133 347.484 204.033C346.87 204.001 346.258 203.936 345.651 203.84C345.425 203.821 345.202 203.769 344.991 203.685C344.991 203.611 345.963 203.685 347.502 203.685C351.524 203.705 355.505 202.881 359.188 201.265C360.59 200.624 361.433 200.156 361.47 200.266Z" fill="white"/>
<path d="M262.909 156.428C261.969 157.462 260.657 158.081 259.262 158.148C257.866 158.215 256.501 157.725 255.467 156.786L247.42 149.454L254.513 141.654L262.551 148.986C263.585 149.926 264.204 151.238 264.271 152.633C264.338 154.029 263.848 155.394 262.909 156.428Z" fill="url(#paint3_linear_1905_22725)"/>
<path d="M262.909 156.428C263.179 156.033 263.426 155.623 263.651 155.2C264.217 154.004 264.306 152.637 263.898 151.378C263.623 150.507 263.12 149.726 262.441 149.114L260.012 146.942C258.299 145.384 256.392 143.67 254.367 141.846H254.678L251.131 145.751L247.585 149.646V149.334L253.194 154.439L255.595 156.648C256.266 157.264 257.088 157.69 257.978 157.885C259.272 158.169 260.625 157.949 261.763 157.271C262.164 157.007 262.55 156.719 262.918 156.41C262.624 156.803 262.261 157.138 261.845 157.4C260.69 158.161 259.28 158.435 257.923 158.16C256.973 157.975 256.09 157.538 255.366 156.896C254.605 156.217 253.799 155.484 252.937 154.723L247.282 149.618L247.117 149.472L247.273 149.307L250.811 145.403L254.358 141.517L254.504 141.352L254.669 141.498L260.278 146.64L262.68 148.849C263.391 149.507 263.911 150.347 264.183 151.277C264.581 152.599 264.443 154.025 263.798 155.246C263.581 155.694 263.279 156.096 262.909 156.428Z" fill="white" fill-opacity="0.41"/>
<path d="M222.252 112.4L208.376 100.926C208.117 100.711 207.903 100.448 207.746 100.151C207.589 99.8545 207.492 99.5295 207.46 99.1949C207.429 98.8604 207.464 98.523 207.563 98.2019C207.662 97.8809 207.823 97.5824 208.037 97.3237C208.251 97.0648 208.514 96.8507 208.811 96.6935C209.108 96.5363 209.433 96.4392 209.768 96.4077C210.102 96.3762 210.44 96.411 210.761 96.51C211.082 96.609 211.38 96.7702 211.639 96.9846L225.506 108.459L222.252 112.4Z" fill="url(#paint4_linear_1905_22725)"/>
<path d="M209.201 129.162L195.343 117.687C195.084 117.474 194.869 117.211 194.711 116.914C194.553 116.618 194.455 116.293 194.423 115.958C194.39 115.624 194.424 115.286 194.522 114.965C194.621 114.643 194.781 114.345 194.995 114.085C195.209 113.825 195.471 113.61 195.768 113.452C196.065 113.295 196.391 113.197 196.725 113.166C197.06 113.134 197.398 113.169 197.719 113.269C198.041 113.368 198.339 113.531 198.597 113.746L212.473 125.212L209.201 129.162Z" fill="url(#paint5_linear_1905_22725)"/>
<g opacity="0.6">
<path opacity="0.6" d="M222.252 112.4L208.376 100.926C208.117 100.711 207.903 100.448 207.746 100.151C207.589 99.8545 207.492 99.5295 207.46 99.1949C207.429 98.8604 207.464 98.523 207.563 98.2019C207.662 97.8809 207.823 97.5824 208.037 97.3237C208.251 97.0648 208.514 96.8507 208.811 96.6935C209.108 96.5363 209.433 96.4392 209.768 96.4077C210.102 96.3762 210.44 96.411 210.761 96.51C211.082 96.609 211.38 96.7702 211.639 96.9846L225.506 108.459L222.252 112.4Z" fill="white"/>
</g>
<g opacity="0.6">
<path opacity="0.6" d="M209.201 129.162L195.343 117.687C195.084 117.474 194.869 117.211 194.711 116.914C194.553 116.618 194.455 116.293 194.423 115.958C194.39 115.624 194.424 115.286 194.522 114.965C194.621 114.643 194.781 114.345 194.995 114.085C195.209 113.825 195.471 113.61 195.768 113.452C196.065 113.295 196.391 113.197 196.725 113.166C197.06 113.134 197.398 113.169 197.719 113.269C198.041 113.368 198.339 113.531 198.597 113.746L212.473 125.212L209.201 129.162Z" fill="white"/>
</g>
<path d="M222.252 112.4C222.316 112.294 222.386 112.193 222.463 112.097L223.086 111.291L225.405 108.367V108.56L218.889 103.262L214.81 99.9077L212.62 98.0747L211.493 97.1582C211.149 96.8624 210.724 96.6772 210.274 96.6266C209.893 96.5778 209.506 96.6243 209.148 96.7618C208.789 96.8994 208.471 97.1238 208.221 97.4148C207.978 97.6989 207.807 98.0366 207.721 98.3999C207.635 98.7632 207.637 99.1418 207.726 99.5044C207.814 99.8457 207.983 100.16 208.221 100.421C208.479 100.692 208.758 100.943 209.055 101.172L210.778 102.602L216.717 107.597L220.74 111.025L221.84 111.941C221.98 112.054 222.112 112.176 222.234 112.308C222.097 112.229 221.968 112.137 221.849 112.033L220.749 111.117C219.732 110.301 218.339 109.192 216.652 107.826L210.549 102.868L208.789 101.429C208.468 101.182 208.162 100.916 207.872 100.632C207.484 100.212 207.237 99.6824 207.164 99.1158C207.091 98.5492 207.197 97.9739 207.466 97.47C207.735 96.9661 208.154 96.5585 208.666 96.3039C209.177 96.0492 209.755 95.9602 210.319 96.0492C210.855 96.1181 211.36 96.3374 211.777 96.6816L212.895 97.5981L215.076 99.4311L219.136 102.813L225.552 108.211L225.662 108.303L225.57 108.404L223.086 111.3L222.426 112.033C222.384 112.162 222.325 112.285 222.252 112.4Z" fill="white" fill-opacity="0.41"/>
<path d="M209.201 129.162C209.263 129.054 209.337 128.952 209.421 128.86C209.586 128.64 209.788 128.374 210.044 128.053L212.363 125.129V125.322L205.847 120.015L201.768 116.67L199.578 114.837L198.451 113.921C198.1 113.631 197.674 113.446 197.222 113.389C196.841 113.344 196.454 113.393 196.097 113.532C195.739 113.671 195.42 113.896 195.169 114.186C194.926 114.47 194.755 114.808 194.67 115.172C194.586 115.535 194.59 115.914 194.684 116.276C194.77 116.616 194.937 116.93 195.169 117.192C195.432 117.461 195.713 117.709 196.013 117.935L197.727 119.374L203.675 124.369L207.698 127.796L208.798 128.713C208.939 128.821 209.068 128.944 209.183 129.08C209.183 129.08 209.055 128.997 208.807 128.805L207.698 127.934L203.601 124.644L197.507 119.685L195.747 118.237C195.421 117.996 195.115 117.729 194.83 117.44C194.545 117.115 194.344 116.724 194.244 116.303C194.132 115.874 194.127 115.423 194.227 114.991C194.328 114.558 194.531 114.156 194.821 113.82C195.124 113.48 195.505 113.219 195.931 113.059C196.358 112.899 196.817 112.846 197.268 112.903C197.804 112.973 198.309 113.192 198.725 113.536C199.101 113.856 199.477 114.159 199.853 114.452L202.034 116.285L206.094 119.658L212.51 125.065L212.611 125.157L212.528 125.258C211.483 126.458 210.649 127.43 210.035 128.145L209.384 128.887C209.293 129.089 209.201 129.171 209.201 129.162Z" fill="white" fill-opacity="0.41"/>
<path d="M253.78 126.945L254.147 126.505C254.921 125.572 255.323 124.385 255.274 123.173C255.225 121.962 254.728 120.811 253.881 119.944C253.033 119.077 251.894 118.555 250.684 118.478C249.474 118.402 248.278 118.777 247.328 119.53L227.018 102.611L203.784 130.409L224.571 146.906C223.926 147.913 223.672 149.122 223.856 150.303C224.04 151.485 224.65 152.558 225.57 153.322C226.555 154.137 227.821 154.533 229.095 154.427C230.369 154.321 231.552 153.72 232.389 152.754C235.323 154.967 239.004 155.95 242.651 155.493C246.297 155.036 249.622 153.175 251.919 150.306L255.256 146.146C257.482 143.351 258.568 139.817 258.294 136.255C258.021 132.692 256.408 129.366 253.78 126.945Z" fill="url(#paint6_linear_1905_22725)"/>
<path d="M253.78 126.945L253.954 127.101L254.44 127.568C254.709 127.817 254.957 128.086 255.183 128.375L255.632 128.925L256.09 129.594C256.9 130.762 257.519 132.053 257.923 133.416C258.533 135.473 258.666 137.643 258.312 139.76C257.958 141.877 257.126 143.885 255.879 145.633C255.137 146.687 254.275 147.686 253.432 148.776C252.582 149.928 251.641 151.01 250.618 152.012C248.294 154.186 245.303 155.51 242.131 155.769C238.62 156.074 235.12 155.076 232.297 152.965H232.581C231.724 153.942 230.529 154.561 229.236 154.697C228.564 154.768 227.885 154.704 227.238 154.508C226.591 154.313 225.99 153.991 225.469 153.561C224.508 152.761 223.871 151.639 223.679 150.404C223.487 149.168 223.752 147.905 224.425 146.852L224.47 147.136L208.349 134.277L203.647 130.538L203.464 130.4L203.611 130.217C212.079 120.135 219.989 110.659 226.872 102.447L227 102.291L227.147 102.419L247.411 119.384H247.255C247.996 118.801 248.886 118.439 249.824 118.341C250.761 118.243 251.708 118.412 252.553 118.829C253.399 119.246 254.109 119.894 254.602 120.698C255.095 121.501 255.35 122.428 255.338 123.371C255.321 124.359 255.001 125.319 254.422 126.12C254.275 126.322 254.116 126.515 253.945 126.698L253.771 126.89C253.771 126.89 253.991 126.615 254.367 126.084C254.907 125.268 255.194 124.312 255.192 123.334C255.189 122.563 255.002 121.804 254.646 121.12C254.291 120.437 253.777 119.847 253.148 119.402C252.351 118.815 251.389 118.494 250.398 118.486C249.298 118.473 248.227 118.838 247.365 119.521L247.282 119.586L247.2 119.521L226.853 102.658H227.128L203.959 130.519V130.199L208.651 133.938L224.736 146.769L224.892 146.888L224.782 147.053C224.16 148.014 223.91 149.169 224.079 150.301C224.247 151.434 224.823 152.465 225.698 153.203C226.643 153.984 227.855 154.364 229.076 154.263C230.297 154.162 231.43 153.588 232.233 152.662L232.362 152.525L232.508 152.635C235.124 154.587 238.341 155.562 241.601 155.39C244.861 155.217 247.957 153.909 250.353 151.691C251.35 150.7 252.269 149.634 253.102 148.501C253.954 147.42 254.834 146.412 255.568 145.385C257.206 143.094 258.119 140.364 258.187 137.549C258.256 134.733 257.477 131.962 255.952 129.594C255.797 129.356 255.65 129.126 255.503 128.916L255.063 128.366C254.844 128.069 254.605 127.788 254.349 127.522L253.881 127.037C253.808 126.976 253.774 126.945 253.78 126.945Z" fill="white" fill-opacity="0.41"/>
<path d="M230.528 127.478L216.198 115.627L213.879 118.431L228.21 130.282L230.528 127.478Z" fill="#E0E0E0"/>
<path d="M253.78 126.945C253.554 127.327 253.297 127.689 253.01 128.027C252.497 128.714 251.736 129.686 250.783 130.877C248.886 133.269 246.2 136.523 243.203 140.088C240.206 143.653 237.539 146.815 235.514 149.207L233.186 151.957C232.911 152.308 232.604 152.633 232.27 152.928C232.495 152.547 232.753 152.185 233.039 151.847C233.553 151.159 234.313 150.188 235.267 148.997C237.164 146.604 239.849 143.351 242.846 139.831L250.536 130.666L252.873 127.917C253.144 127.565 253.448 127.24 253.78 126.945Z" fill="white" fill-opacity="0.41"/>
<path d="M247.328 119.494C247.088 119.897 246.812 120.278 246.503 120.631C245.944 121.345 245.119 122.372 244.102 123.628C242.049 126.139 239.171 129.567 235.963 133.324C232.755 137.082 229.877 140.418 227.715 142.938C226.688 144.112 225.881 145.092 225.203 145.835C224.908 146.203 224.583 146.546 224.232 146.861C224.481 146.462 224.76 146.082 225.066 145.725C225.625 145.01 226.441 143.983 227.467 142.728C229.52 140.216 232.398 136.789 235.606 133.031L243.854 123.426L246.365 120.521C246.659 120.154 246.981 119.811 247.328 119.494Z" fill="white" fill-opacity="0.41"/>
<path d="M212.279 79.3786H205.661L208.961 70.3535L198.879 84.1752H205.497L202.198 93.2003L212.279 79.3786Z" fill="#DCDCDC"/>
<path d="M163.911 89.4436H153.953L158.918 106.098L143.748 80.5923H153.706L148.741 63.9383L163.911 89.4436Z" fill="#DCDCDC"/>
</g>
<defs>
<filter id="filter0_d_1905_22725" x="0" y="0" width="368" height="295" filterUnits="userSpaceOnUse" color-interpolation-filters="sRGB">
<feFlood flood-opacity="0" result="BackgroundImageFix"/>
<feColorMatrix in="SourceAlpha" type="matrix" values="0 0 0 0 0 0 0 0 0 0 0 0 0 0 0 0 0 0 127 0" result="hardAlpha"/>
<feOffset dy="5"/>
<feGaussianBlur stdDeviation="7.5"/>
<feComposite in2="hardAlpha" operator="out"/>
<feColorMatrix type="matrix" values="0 0 0 0 0 0 0 0 0 0 0 0 0 0 0 0 0 0 0.25 0"/>
<feBlend mode="normal" in2="BackgroundImageFix" result="effect1_dropShadow_1905_22725"/>
<feBlend mode="normal" in="SourceGraphic" in2="effect1_dropShadow_1905_22725" result="shape"/>
</filter>
<linearGradient id="paint0_linear_1905_22725" x1="27.8623" y1="74.0195" x2="27.8623" y2="236.16" gradientUnits="userSpaceOnUse">
<stop offset="0.411458" stop-color="#AC6BFF"/>
<stop offset="1" stop-color="#49C9F1" stop-opacity="0.28"/>
</linearGradient>
<linearGradient id="paint1_linear_1905_22725" x1="117.194" y1="102.336" x2="117.194" y2="151.086" gradientUnits="userSpaceOnUse">
<stop offset="0.411458" stop-color="#AC6BFF"/>
<stop offset="1" stop-color="#49C9F1" stop-opacity="0.28"/>
</linearGradient>
<linearGradient id="paint2_linear_1905_22725" x1="371.377" y1="152.561" x2="371.377" y2="236.348" gradientUnits="userSpaceOnUse">
<stop stop-color="#AC6BFF"/>
<stop offset="0.8125" stop-color="#49C9F1" stop-opacity="0.28"/>
</linearGradient>
<linearGradient id="paint3_linear_1905_22725" x1="255.848" y1="141.654" x2="255.848" y2="158.154" gradientUnits="userSpaceOnUse">
<stop offset="0.411458" stop-color="#AC6BFF"/>
<stop offset="1" stop-color="#49C9F1" stop-opacity="0.28"/>
</linearGradient>
<linearGradient id="paint4_linear_1905_22725" x1="216.478" y1="96.3965" x2="216.478" y2="112.4" gradientUnits="userSpaceOnUse">
<stop offset="0.411458" stop-color="#AC6BFF"/>
<stop offset="1" stop-color="#49C9F1" stop-opacity="0.28"/>
</linearGradient>
<linearGradient id="paint5_linear_1905_22725" x1="203.442" y1="113.154" x2="203.442" y2="129.162" gradientUnits="userSpaceOnUse">
<stop offset="0.411458" stop-color="#AC6BFF"/>
<stop offset="1" stop-color="#49C9F1" stop-opacity="0.28"/>
</linearGradient>
<linearGradient id="paint6_linear_1905_22725" x1="231.06" y1="102.611" x2="231.06" y2="155.602" gradientUnits="userSpaceOnUse">
<stop offset="0.411458" stop-color="#AC6BFF"/>
<stop offset="1" stop-color="#49C9F1" stop-opacity="0.28"/>
</linearGradient>
</defs>
</svg>
