<svg width="190" height="198" viewBox="0 0 190 198" fill="none" xmlns="http://www.w3.org/2000/svg">
<g filter="url(#filter0_i_328_16444)">
<path d="M127.881 88.8199C128.016 88.0137 128.087 87.1844 128.087 86.3379C128.087 78.4193 121.909 72 114.289 72C108.624 72 103.757 75.5477 101.632 80.6218C99.9104 79.0773 97.6766 78.1448 95.2355 78.1448C89.7926 78.1448 85.3802 82.781 85.3802 88.5C85.3802 88.8185 85.3938 89.1336 85.4206 89.4447C82.8027 90.7772 81 93.5733 81 96.8069C81 101.332 84.5299 105 88.8843 105H126.116C130.47 105 134 101.332 134 96.8069C134 92.9126 131.385 89.6528 127.881 88.8199Z" fill="url(#paint0_linear_328_16444)"/>
</g>
<g filter="url(#filter1_f_328_16444)">
<path d="M95.2728 53.3889C84.8284 67.5695 83.0173 86.9223 92.2307 102.88C101.444 118.838 119.11 126.946 136.613 124.992C132.891 130.045 128.073 134.441 122.267 137.793C100.168 150.552 72.1231 143.349 59.6267 121.704C47.1303 100.06 54.9149 72.1705 77.014 59.4116C82.8198 56.0596 89.0359 54.0854 95.2728 53.3889Z" fill="#FFEE94"/>
</g>
<g filter="url(#filter2_i_328_16444)">
<path d="M94.2988 59.3651C84.7648 72.3097 83.1116 89.9755 91.5219 104.543C99.9322 119.11 116.058 126.511 132.035 124.727C128.638 129.339 124.24 133.352 118.94 136.412C98.7676 148.059 73.167 141.483 61.7599 121.726C50.3528 101.968 57.4588 76.5096 77.6315 64.8628C82.9313 61.803 88.6056 60.0009 94.2988 59.3651Z" fill="url(#paint1_linear_328_16444)"/>
</g>
<g clip-path="url(#clip0_328_16444)">
<g filter="url(#filter3_d_328_16444)">
<path d="M55.4499 106.548C55.4367 103.618 54.1358 100.811 51.8312 98.7412C49.5267 96.6713 46.4057 95.5062 43.1499 95.5003C41.7032 95.4307 40.2555 95.622 38.8921 96.063C37.5286 96.5039 36.2768 97.1857 35.2102 98.0681C34.1435 98.9505 33.2836 100.016 32.6807 101.202C32.0779 102.387 31.7445 103.669 31.6999 104.973H38.7499C38.8027 104.503 38.959 104.047 39.2097 103.632C39.4604 103.217 39.8006 102.851 40.2102 102.556C40.6199 102.26 41.0908 102.041 41.5956 101.912C42.1003 101.782 42.6287 101.744 43.1499 101.8C44.5469 101.806 45.8848 102.308 46.8726 103.197C47.8605 104.086 48.4183 105.29 48.4249 106.548C48.4249 109.18 46.2999 111.318 40.9249 111.318H21.7749V117.64H40.9249C49.9749 117.64 55.4499 112.668 55.4499 106.548ZM55.4499 106.548C55.4367 103.618 54.1358 100.811 51.8312 98.7412C49.5267 96.6713 46.4057 95.5062 43.1499 95.5003C41.7032 95.4307 40.2555 95.622 38.8921 96.063C37.5286 96.5039 36.2768 97.1857 35.2102 98.0681C34.1435 98.9505 33.2836 100.016 32.6807 101.202C32.0779 102.387 31.7445 103.669 31.6999 104.973H38.7499C38.8027 104.503 38.959 104.047 39.2097 103.632C39.4604 103.217 39.8006 102.851 40.2102 102.556C40.6199 102.26 41.0908 102.041 41.5956 101.912C42.1003 101.782 42.6287 101.744 43.1499 101.8C44.5469 101.806 45.8848 102.308 46.8726 103.197C47.8605 104.086 48.4183 105.29 48.4249 106.548C48.4249 109.18 46.2999 111.318 40.9249 111.318H21.7749V117.64H40.9249C49.9749 117.64 55.4499 112.668 55.4499 106.548Z" fill="url(#paint2_linear_328_16444)"/>
</g>
<g filter="url(#filter4_d_328_16444)">
<path d="M71.0749 147.453C71.0617 150.387 69.7573 153.197 67.4474 155.267C65.1374 157.338 62.01 158.5 58.7499 158.5C57.3031 158.567 55.8562 158.372 54.4941 157.929C53.1319 157.485 51.882 156.801 50.8177 155.916C49.7534 155.032 48.8962 153.965 48.2964 152.778C47.6966 151.591 47.3663 150.309 47.3249 149.005H54.3499C54.4028 149.476 54.559 149.933 54.8094 150.349C55.0598 150.765 55.3995 151.132 55.8087 151.43C56.218 151.727 56.6886 151.948 57.1935 152.08C57.6984 152.213 58.2274 152.253 58.7499 152.2C60.1446 152.194 61.4799 151.692 62.4637 150.802C63.4476 149.912 63.9999 148.708 63.9999 147.453C63.9999 144.82 61.3499 142.75 56.4999 142.75H35.2749V136.36H56.4999C65.5999 136.36 71.0749 141.333 71.0749 147.453ZM71.0749 147.453C71.0617 150.387 69.7573 153.197 67.4474 155.267C65.1374 157.338 62.01 158.5 58.7499 158.5C57.3031 158.567 55.8562 158.372 54.4941 157.929C53.1319 157.485 51.882 156.801 50.8177 155.916C49.7534 155.032 48.8962 153.965 48.2964 152.778C47.6966 151.591 47.3663 150.309 47.3249 149.005H54.3499C54.4028 149.476 54.559 149.933 54.8094 150.349C55.0598 150.765 55.3995 151.132 55.8087 151.43C56.218 151.727 56.6886 151.948 57.1935 152.08C57.6984 152.213 58.2274 152.253 58.7499 152.2C60.1446 152.194 61.4799 151.692 62.4637 150.802C63.4476 149.912 63.9999 148.708 63.9999 147.453C63.9999 144.82 61.3499 142.75 56.4999 142.75H35.2749V136.36H56.4999C65.5999 136.36 71.0749 141.333 71.0749 147.453Z" fill="url(#paint3_linear_328_16444)"/>
</g>
<g filter="url(#filter5_d_328_16444)">
<path d="M72.9249 105.243C71.1405 105.216 69.369 105.52 67.72 106.134C66.071 106.748 64.5795 107.66 63.3376 108.813C62.0958 109.967 61.13 111.337 60.5 112.84C59.87 114.343 59.5892 115.946 59.6749 117.55H65.8999C65.8801 116.729 66.051 115.914 66.4017 115.156C66.7524 114.398 67.2752 113.714 67.9366 113.149C68.598 112.583 69.3833 112.148 70.2423 111.872C71.1013 111.595 72.015 111.483 72.9249 111.543C73.7989 111.494 74.6741 111.619 75.4885 111.909C76.3029 112.199 77.0366 112.646 77.6376 113.219C78.2387 113.792 78.6924 114.477 78.9667 115.226C79.241 115.974 79.3291 116.768 79.2249 117.55C79.2249 121.015 76.4999 123.873 69.0749 123.873H21.7749V130.218H70.1249C81.1249 130.218 86.2249 123.85 86.2249 117.55C86.3299 115.938 86.0607 114.324 85.4344 112.81C84.8082 111.297 83.8387 109.917 82.5875 108.76C81.3364 107.602 79.8311 106.691 78.1676 106.086C76.504 105.48 74.7185 105.193 72.9249 105.243Z" fill="url(#paint4_linear_328_16444)"/>
</g>
<g filter="url(#filter6_d_328_16444)">
<path d="M30.9999 136.36H21.7749V142.75H30.9999V136.36Z" fill="url(#paint5_linear_328_16444)"/>
</g>
</g>
<defs>
<filter id="filter0_i_328_16444" x="81" y="72" width="53" height="43" filterUnits="userSpaceOnUse" color-interpolation-filters="sRGB">
<feFlood flood-opacity="0" result="BackgroundImageFix"/>
<feBlend mode="normal" in="SourceGraphic" in2="BackgroundImageFix" result="shape"/>
<feColorMatrix in="SourceAlpha" type="matrix" values="0 0 0 0 0 0 0 0 0 0 0 0 0 0 0 0 0 0 127 0" result="hardAlpha"/>
<feOffset dy="11"/>
<feGaussianBlur stdDeviation="5"/>
<feComposite in2="hardAlpha" operator="arithmetic" k2="-1" k3="1"/>
<feColorMatrix type="matrix" values="0 0 0 0 1 0 0 0 0 1 0 0 0 0 1 0 0 0 1 0"/>
<feBlend mode="normal" in2="shape" result="effect1_innerShadow_328_16444"/>
</filter>
<filter id="filter1_f_328_16444" x="0.664307" y="0.388672" width="188.948" height="196.714" filterUnits="userSpaceOnUse" color-interpolation-filters="sRGB">
<feFlood flood-opacity="0" result="BackgroundImageFix"/>
<feBlend mode="normal" in="SourceGraphic" in2="BackgroundImageFix" result="shape"/>
<feGaussianBlur stdDeviation="26.5" result="effect1_foregroundBlur_328_16444"/>
</filter>
<filter id="filter2_i_328_16444" x="56.3171" y="59.3652" width="75.718" height="86.8066" filterUnits="userSpaceOnUse" color-interpolation-filters="sRGB">
<feFlood flood-opacity="0" result="BackgroundImageFix"/>
<feBlend mode="normal" in="SourceGraphic" in2="BackgroundImageFix" result="shape"/>
<feColorMatrix in="SourceAlpha" type="matrix" values="0 0 0 0 0 0 0 0 0 0 0 0 0 0 0 0 0 0 127 0" result="hardAlpha"/>
<feOffset dy="4"/>
<feGaussianBlur stdDeviation="4"/>
<feComposite in2="hardAlpha" operator="arithmetic" k2="-1" k3="1"/>
<feColorMatrix type="matrix" values="0 0 0 0 1 0 0 0 0 1 0 0 0 0 1 0 0 0 0.55 0"/>
<feBlend mode="normal" in2="shape" result="effect1_innerShadow_328_16444"/>
</filter>
<filter id="filter3_d_328_16444" x="17.7749" y="95.4863" width="41.675" height="30.1543" filterUnits="userSpaceOnUse" color-interpolation-filters="sRGB">
<feFlood flood-opacity="0" result="BackgroundImageFix"/>
<feColorMatrix in="SourceAlpha" type="matrix" values="0 0 0 0 0 0 0 0 0 0 0 0 0 0 0 0 0 0 127 0" result="hardAlpha"/>
<feOffset dy="4"/>
<feGaussianBlur stdDeviation="2"/>
<feComposite in2="hardAlpha" operator="out"/>
<feColorMatrix type="matrix" values="0 0 0 0 0 0 0 0 0 0 0 0 0 0 0 0 0 0 0.25 0"/>
<feBlend mode="normal" in2="BackgroundImageFix" result="effect1_dropShadow_328_16444"/>
<feBlend mode="normal" in="SourceGraphic" in2="effect1_dropShadow_328_16444" result="shape"/>
</filter>
<filter id="filter4_d_328_16444" x="31.2749" y="136.36" width="43.8" height="30.1523" filterUnits="userSpaceOnUse" color-interpolation-filters="sRGB">
<feFlood flood-opacity="0" result="BackgroundImageFix"/>
<feColorMatrix in="SourceAlpha" type="matrix" values="0 0 0 0 0 0 0 0 0 0 0 0 0 0 0 0 0 0 127 0" result="hardAlpha"/>
<feOffset dy="4"/>
<feGaussianBlur stdDeviation="2"/>
<feComposite in2="hardAlpha" operator="out"/>
<feColorMatrix type="matrix" values="0 0 0 0 0 0 0 0 0 0 0 0 0 0 0 0 0 0 0.25 0"/>
<feBlend mode="normal" in2="BackgroundImageFix" result="effect1_dropShadow_328_16444"/>
<feBlend mode="normal" in="SourceGraphic" in2="effect1_dropShadow_328_16444" result="shape"/>
</filter>
<filter id="filter5_d_328_16444" x="17.7749" y="105.237" width="72.4722" height="32.9805" filterUnits="userSpaceOnUse" color-interpolation-filters="sRGB">
<feFlood flood-opacity="0" result="BackgroundImageFix"/>
<feColorMatrix in="SourceAlpha" type="matrix" values="0 0 0 0 0 0 0 0 0 0 0 0 0 0 0 0 0 0 127 0" result="hardAlpha"/>
<feOffset dy="4"/>
<feGaussianBlur stdDeviation="2"/>
<feComposite in2="hardAlpha" operator="out"/>
<feColorMatrix type="matrix" values="0 0 0 0 0 0 0 0 0 0 0 0 0 0 0 0 0 0 0.25 0"/>
<feBlend mode="normal" in2="BackgroundImageFix" result="effect1_dropShadow_328_16444"/>
<feBlend mode="normal" in="SourceGraphic" in2="effect1_dropShadow_328_16444" result="shape"/>
</filter>
<filter id="filter6_d_328_16444" x="17.7749" y="136.36" width="17.2251" height="14.3896" filterUnits="userSpaceOnUse" color-interpolation-filters="sRGB">
<feFlood flood-opacity="0" result="BackgroundImageFix"/>
<feColorMatrix in="SourceAlpha" type="matrix" values="0 0 0 0 0 0 0 0 0 0 0 0 0 0 0 0 0 0 127 0" result="hardAlpha"/>
<feOffset dy="4"/>
<feGaussianBlur stdDeviation="2"/>
<feComposite in2="hardAlpha" operator="out"/>
<feColorMatrix type="matrix" values="0 0 0 0 0 0 0 0 0 0 0 0 0 0 0 0 0 0 0.25 0"/>
<feBlend mode="normal" in2="BackgroundImageFix" result="effect1_dropShadow_328_16444"/>
<feBlend mode="normal" in="SourceGraphic" in2="effect1_dropShadow_328_16444" result="shape"/>
</filter>
<linearGradient id="paint0_linear_328_16444" x1="82.1361" y1="110.247" x2="137.408" y2="70.8391" gradientUnits="userSpaceOnUse">
<stop stop-color="white"/>
<stop offset="1" stop-color="white" stop-opacity="0.58"/>
</linearGradient>
<linearGradient id="paint1_linear_328_16444" x1="96.3748" y1="52.5002" x2="81.2392" y2="144.146" gradientUnits="userSpaceOnUse">
<stop stop-color="#FFEE94"/>
<stop offset="1" stop-color="#FF9900"/>
</linearGradient>
<linearGradient id="paint2_linear_328_16444" x1="38.6124" y1="95.4863" x2="38.6124" y2="117.64" gradientUnits="userSpaceOnUse">
<stop stop-color="#E7E7E7"/>
<stop offset="0.453125" stop-color="white"/>
<stop offset="1" stop-color="#F0F0F0"/>
</linearGradient>
<linearGradient id="paint3_linear_328_16444" x1="53.1749" y1="136.36" x2="53.1749" y2="158.513" gradientUnits="userSpaceOnUse">
<stop stop-color="#E7E7E7"/>
<stop offset="0.453125" stop-color="white"/>
<stop offset="1" stop-color="#F0F0F0"/>
</linearGradient>
<linearGradient id="paint4_linear_328_16444" x1="54.011" y1="105.237" x2="54.011" y2="130.218" gradientUnits="userSpaceOnUse">
<stop stop-color="#E7E7E7"/>
<stop offset="0.453125" stop-color="white"/>
<stop offset="1" stop-color="#F0F0F0"/>
</linearGradient>
<linearGradient id="paint5_linear_328_16444" x1="26.3874" y1="136.36" x2="26.3874" y2="142.75" gradientUnits="userSpaceOnUse">
<stop stop-color="#E7E7E7"/>
<stop offset="0.453125" stop-color="white"/>
<stop offset="1" stop-color="#F0F0F0"/>
</linearGradient>
<clipPath id="clip0_328_16444">
<rect width="80" height="72" fill="white" transform="translate(14 91)"/>
</clipPath>
</defs>
</svg>
