<svg width="50" height="54" viewBox="0 0 50 54" fill="none" xmlns="http://www.w3.org/2000/svg">
<g id="layer1">
<path id="path26969" fill-rule="evenodd" clip-rule="evenodd" d="M1.78571 40.4434C1.55121 40.4434 1.31899 40.4899 1.10234 40.5804C0.885685 40.6708 0.688814 40.8034 0.522995 40.9705C0.357176 41.1377 0.225652 41.3361 0.135912 41.5545C0.0461721 41.7729 -1.17485e-06 42.007 0 42.2434C0 44.1897 0.93975 45.9629 2.34375 47.3868C3.74775 48.8106 5.63471 49.9755 7.88574 50.9411C12.3878 52.8722 18.3842 53.9997 25 53.9997C31.6158 53.9997 37.6122 52.8722 42.1143 50.9411C44.3653 49.9755 46.2523 48.8106 47.6562 47.3868C49.0602 45.9629 50 44.1897 50 42.2434C50 42.007 49.9538 41.7729 49.8641 41.5545C49.7743 41.3361 49.6428 41.1377 49.477 40.9705C49.3112 40.8034 49.1143 40.6708 48.8977 40.5804C48.681 40.4899 48.4488 40.4434 48.2143 40.4434C47.9798 40.4434 47.7476 40.4899 47.5309 40.5804C47.3143 40.6708 47.1174 40.8034 46.9516 40.9705C46.7857 41.1377 46.6542 41.3361 46.5645 41.5545C46.4747 41.7729 46.4286 42.007 46.4286 42.2434C46.4286 43.0467 46.0696 43.8897 45.1242 44.8485C44.1788 45.8072 42.6656 46.7894 40.7157 47.6258C36.8159 49.2986 31.2051 50.3997 25 50.3997C18.7949 50.3997 13.1841 49.2986 9.28432 47.6258C7.33441 46.7894 5.82123 45.8072 4.87584 44.8485C3.93043 43.8897 3.57143 43.0467 3.57143 42.2434C3.57143 42.007 3.52526 41.7729 3.43552 41.5545C3.34578 41.3361 3.21425 41.1377 3.04843 40.9705C2.88261 40.8034 2.68574 40.6708 2.46909 40.5804C2.25244 40.4899 2.02022 40.4434 1.78571 40.4434Z" fill="#AC6BFF"/>
<path id="circle26948" fill-rule="evenodd" clip-rule="evenodd" d="M25.0001 0C17.1315 0 10.7144 6.46848 10.7144 14.4001C10.7144 16.683 11.6127 19.1267 12.8349 21.7548C14.057 24.3829 15.6523 27.1419 17.2399 29.672C20.4151 34.7322 23.5841 38.8936 23.5841 38.8936C23.7508 39.1123 23.9653 39.2895 24.2108 39.4115C24.4563 39.5334 24.7264 39.5968 25.0001 39.5968C25.2738 39.5968 25.5438 39.5334 25.7893 39.4115C26.0349 39.2895 26.2493 39.1123 26.4161 38.8936C26.4161 38.8936 29.585 34.7322 32.7603 29.672C34.3479 27.1419 35.9431 24.3829 37.1652 21.7548C38.3874 19.1267 39.2858 16.683 39.2858 14.4001C39.2858 6.46848 32.8687 0 25.0001 0ZM25.0001 3.60002C30.9386 3.60002 35.7144 8.41405 35.7144 14.4001C35.7144 15.5966 35.0502 17.8172 33.9286 20.229C32.807 22.6409 31.2773 25.2989 29.7399 27.749C27.3723 31.5221 25.9663 33.3404 25.0001 34.6467C24.0339 33.3404 22.6278 31.5221 20.2603 27.749C18.7229 25.2989 17.1931 22.6409 16.0715 20.229C14.9499 17.8172 14.2858 15.5966 14.2858 14.4001C14.2858 8.41405 19.0616 3.60002 25.0001 3.60002Z" fill="#AC6BFF"/>
<path id="path26952" fill-rule="evenodd" clip-rule="evenodd" d="M36.9425 30.5444C36.4929 30.3943 36.0026 30.4304 35.5794 30.6447C35.1563 30.8589 34.8349 31.2339 34.6859 31.687C34.537 32.1401 34.5728 32.6344 34.7854 33.061C34.9979 33.4875 35.3699 33.8115 35.8194 33.9616C37.7175 34.5945 39.1481 35.3754 40.0012 36.1062C40.8543 36.837 41.0719 37.3967 41.0719 37.8007C41.0719 38.1868 40.8955 38.6584 40.2279 39.2949C39.5603 39.9313 38.4337 40.6286 36.9634 41.2214C34.0227 42.4071 29.7386 43.2007 25.0005 43.2007C20.2624 43.2007 15.9783 42.4071 13.0376 41.2214C11.5673 40.6286 10.4408 39.9313 9.77312 39.2949C9.10546 38.6584 8.92909 38.1868 8.92909 37.8007C8.92909 37.3974 9.14628 36.8391 9.99634 36.1097C10.8464 35.3802 12.2717 34.5979 14.1642 33.9651C14.6137 33.815 14.9856 33.491 15.1982 33.0645C15.4108 32.6379 15.4466 32.1437 15.2977 31.6905C15.148 31.238 14.8263 30.8639 14.4032 30.6503C13.9801 30.4367 13.4902 30.4012 13.0411 30.5514C10.8425 31.2865 9.0369 32.2035 7.68049 33.3675C6.32408 34.5315 5.35767 36.0611 5.35767 37.8007C5.35767 39.4028 6.18166 40.8241 7.32125 41.9105C8.46082 42.9968 9.94767 43.8547 11.7088 44.5648C15.2311 45.985 19.8764 46.8008 25.0005 46.8008C30.1246 46.8008 34.7699 45.985 38.2922 44.5648C40.0534 43.8547 41.5402 42.9968 42.6798 41.9105C43.8194 40.8241 44.6434 39.4028 44.6434 37.8007C44.6434 36.0583 43.6735 34.5289 42.3136 33.364C40.9537 32.199 39.1467 31.2794 36.9425 30.5444Z" fill="#AC6BFF"/>
<path id="path26946" fill-rule="evenodd" clip-rule="evenodd" d="M24.9997 7.20117C22.0622 7.20117 19.6426 9.64017 19.6426 12.6012C19.6426 15.5622 22.0622 18.0012 24.9997 18.0012C27.9372 18.0012 30.3569 15.5622 30.3569 12.6012C30.3569 9.64017 27.9372 7.20117 24.9997 7.20117ZM24.9997 10.8012C26.0071 10.8012 26.7854 11.5858 26.7854 12.6012C26.7854 13.6166 26.0071 14.4012 24.9997 14.4012C23.9923 14.4012 23.214 13.6166 23.214 12.6012C23.214 11.5858 23.9923 10.8012 24.9997 10.8012Z" fill="#AC6BFF"/>
</g>
</svg>
