<svg width="260" height="175" viewBox="0 0 260 175" fill="none" xmlns="http://www.w3.org/2000/svg">
<g filter="url(#filter0_i_328_16440)">
<path d="M141.322 91.0254H120.93L112.064 114.867H128.023L120.634 144.63L147.529 105.583H135.707L141.322 91.0254Z" fill="url(#paint0_linear_328_16440)"/>
</g>
<g filter="url(#filter1_f_328_16440)">
<rect x="77.4141" y="77.3691" width="104.764" height="20.3822" rx="10.1911" fill="#FFED8D"/>
</g>
<path d="M155.335 134.267C152.169 135.672 150.934 136.86 149.801 139.8C148.899 136.951 147.79 135.68 144.267 134.267C147.891 133.086 148.875 131.719 149.801 128.733C150.94 131.485 151.643 132.987 155.335 134.267Z" fill="url(#paint1_linear_328_16440)"/>
<g filter="url(#filter2_i_328_16440)">
<path d="M103.972 103.285C100.806 104.691 99.5708 105.879 98.4383 108.819C97.5364 105.97 96.4273 104.699 92.9044 103.285C96.5284 102.104 97.5119 100.738 98.4383 97.7513C99.5766 100.504 100.28 102.006 103.972 103.285Z" fill="url(#paint2_linear_328_16440)"/>
</g>
<g filter="url(#filter3_bd_328_16440)">
<g filter="url(#filter4_i_328_16440)">
<path d="M179.222 53.7295C179.549 51.8732 179.719 49.9636 179.719 48.0145C179.719 29.7811 164.8 15 146.397 15C132.715 15 120.96 23.169 115.828 34.8525C111.67 31.2963 106.276 29.1491 100.38 29.1491C87.2349 29.1491 76.5785 39.8243 76.5785 52.9929C76.5785 53.7262 76.6116 54.4518 76.6762 55.1682C70.3536 58.2365 66 64.6747 66 72.1204C66 82.5395 74.5251 90.9859 85.0413 90.9859H174.959C185.475 90.9859 194 82.5395 194 72.1204C194 63.1533 187.685 55.6474 179.222 53.7295Z" fill="url(#paint3_linear_328_16440)"/>
</g>
</g>
<defs>
<filter id="filter0_i_328_16440" x="110.064" y="91.0254" width="37.4651" height="53.6055" filterUnits="userSpaceOnUse" color-interpolation-filters="sRGB">
<feFlood flood-opacity="0" result="BackgroundImageFix"/>
<feBlend mode="normal" in="SourceGraphic" in2="BackgroundImageFix" result="shape"/>
<feColorMatrix in="SourceAlpha" type="matrix" values="0 0 0 0 0 0 0 0 0 0 0 0 0 0 0 0 0 0 127 0" result="hardAlpha"/>
<feOffset dx="-2"/>
<feGaussianBlur stdDeviation="4.5"/>
<feComposite in2="hardAlpha" operator="arithmetic" k2="-1" k3="1"/>
<feColorMatrix type="matrix" values="0 0 0 0 1 0 0 0 0 1 0 0 0 0 1 0 0 0 0.5 0"/>
<feBlend mode="normal" in2="shape" result="effect1_innerShadow_328_16440"/>
</filter>
<filter id="filter1_f_328_16440" x="0.414062" y="0.369141" width="258.764" height="174.382" filterUnits="userSpaceOnUse" color-interpolation-filters="sRGB">
<feFlood flood-opacity="0" result="BackgroundImageFix"/>
<feBlend mode="normal" in="SourceGraphic" in2="BackgroundImageFix" result="shape"/>
<feGaussianBlur stdDeviation="38.5" result="effect1_foregroundBlur_328_16440"/>
</filter>
<filter id="filter2_i_328_16440" x="92.9043" y="97.751" width="11.0679" height="15.0684" filterUnits="userSpaceOnUse" color-interpolation-filters="sRGB">
<feFlood flood-opacity="0" result="BackgroundImageFix"/>
<feBlend mode="normal" in="SourceGraphic" in2="BackgroundImageFix" result="shape"/>
<feColorMatrix in="SourceAlpha" type="matrix" values="0 0 0 0 0 0 0 0 0 0 0 0 0 0 0 0 0 0 127 0" result="hardAlpha"/>
<feOffset dy="4"/>
<feGaussianBlur stdDeviation="2"/>
<feComposite in2="hardAlpha" operator="arithmetic" k2="-1" k3="1"/>
<feColorMatrix type="matrix" values="0 0 0 0 1 0 0 0 0 1 0 0 0 0 1 0 0 0 0.44 0"/>
<feBlend mode="normal" in2="shape" result="effect1_innerShadow_328_16440"/>
</filter>
<filter id="filter3_bd_328_16440" x="39" y="-12" width="182" height="129.986" filterUnits="userSpaceOnUse" color-interpolation-filters="sRGB">
<feFlood flood-opacity="0" result="BackgroundImageFix"/>
<feGaussianBlur in="BackgroundImageFix" stdDeviation="13.5"/>
<feComposite in2="SourceAlpha" operator="in" result="effect1_backgroundBlur_328_16440"/>
<feColorMatrix in="SourceAlpha" type="matrix" values="0 0 0 0 0 0 0 0 0 0 0 0 0 0 0 0 0 0 127 0" result="hardAlpha"/>
<feOffset dy="4"/>
<feGaussianBlur stdDeviation="2"/>
<feComposite in2="hardAlpha" operator="out"/>
<feColorMatrix type="matrix" values="0 0 0 0 0 0 0 0 0 0 0 0 0 0 0 0 0 0 0.25 0"/>
<feBlend mode="normal" in2="effect1_backgroundBlur_328_16440" result="effect2_dropShadow_328_16440"/>
<feBlend mode="normal" in="SourceGraphic" in2="effect2_dropShadow_328_16440" result="shape"/>
</filter>
<filter id="filter4_i_328_16440" x="66" y="15" width="128" height="85.9863" filterUnits="userSpaceOnUse" color-interpolation-filters="sRGB">
<feFlood flood-opacity="0" result="BackgroundImageFix"/>
<feBlend mode="normal" in="SourceGraphic" in2="BackgroundImageFix" result="shape"/>
<feColorMatrix in="SourceAlpha" type="matrix" values="0 0 0 0 0 0 0 0 0 0 0 0 0 0 0 0 0 0 127 0" result="hardAlpha"/>
<feOffset dy="11"/>
<feGaussianBlur stdDeviation="5"/>
<feComposite in2="hardAlpha" operator="arithmetic" k2="-1" k3="1"/>
<feColorMatrix type="matrix" values="0 0 0 0 1 0 0 0 0 1 0 0 0 0 1 0 0 0 1 0"/>
<feBlend mode="normal" in2="shape" result="effect1_innerShadow_328_16440"/>
</filter>
<linearGradient id="paint0_linear_328_16440" x1="125.413" y1="139.467" x2="160.009" y2="91.7096" gradientUnits="userSpaceOnUse">
<stop stop-color="#FF9900"/>
<stop offset="1" stop-color="#FFEE94"/>
</linearGradient>
<linearGradient id="paint1_linear_328_16440" x1="148.2" y1="140.319" x2="153.409" y2="130.54" gradientUnits="userSpaceOnUse">
<stop stop-color="#FF9900"/>
<stop offset="1" stop-color="#FFEE94"/>
</linearGradient>
<linearGradient id="paint2_linear_328_16440" x1="96.8374" y1="109.338" x2="102.046" y2="99.5583" gradientUnits="userSpaceOnUse">
<stop stop-color="#FF9900"/>
<stop offset="1" stop-color="#FFEE94"/>
</linearGradient>
<linearGradient id="paint3_linear_328_16440" x1="74.1413" y1="84.2014" x2="203.272" y2="-12.364" gradientUnits="userSpaceOnUse">
<stop stop-color="white"/>
<stop offset="1" stop-color="white" stop-opacity="0.58"/>
</linearGradient>
</defs>
</svg>
