<svg width="253" height="248" viewBox="0 0 253 248" fill="none" xmlns="http://www.w3.org/2000/svg">
<g filter="url(#filter0_f_328_16441)">
<rect x="77.2217" y="77" width="98.7781" height="93.0161" rx="46.508" fill="#FFEF9A"/>
</g>
<g filter="url(#filter1_i_328_16441)">
<path d="M169.415 130.916C169.415 154.556 150.251 173.72 126.611 173.72C102.971 173.72 83.8071 154.556 83.8071 130.916C83.8071 107.276 102.971 88.1123 126.611 88.1123C150.251 88.1123 169.415 107.276 169.415 130.916Z" fill="url(#paint0_linear_328_16441)"/>
</g>
<g filter="url(#filter2_b_328_16441)">
<g filter="url(#filter3_i_328_16441)">
<path d="M151.028 152.989C151.326 151.3 151.481 149.562 151.481 147.788C151.481 131.196 137.905 117.746 121.159 117.746C108.709 117.746 98.0117 125.18 93.3419 135.811C89.5588 132.575 84.6497 130.621 79.285 130.621C67.3232 130.621 57.6263 140.335 57.6263 152.318C57.6263 152.986 57.6564 153.646 57.7152 154.298C51.9618 157.09 48.0002 162.949 48.0002 169.724C48.0002 179.205 55.7578 186.891 65.3272 186.891H147.149C156.719 186.891 164.476 179.205 164.476 169.724C164.476 161.564 158.73 154.734 151.028 152.989Z" fill="url(#paint1_linear_328_16441)"/>
</g>
</g>
<defs>
<filter id="filter0_f_328_16441" x="0.22168" y="0" width="252.778" height="247.016" filterUnits="userSpaceOnUse" color-interpolation-filters="sRGB">
<feFlood flood-opacity="0" result="BackgroundImageFix"/>
<feBlend mode="normal" in="SourceGraphic" in2="BackgroundImageFix" result="shape"/>
<feGaussianBlur stdDeviation="38.5" result="effect1_foregroundBlur_328_16441"/>
</filter>
<filter id="filter1_i_328_16441" x="83.8071" y="88.1123" width="85.6079" height="90.6074" filterUnits="userSpaceOnUse" color-interpolation-filters="sRGB">
<feFlood flood-opacity="0" result="BackgroundImageFix"/>
<feBlend mode="normal" in="SourceGraphic" in2="BackgroundImageFix" result="shape"/>
<feColorMatrix in="SourceAlpha" type="matrix" values="0 0 0 0 0 0 0 0 0 0 0 0 0 0 0 0 0 0 127 0" result="hardAlpha"/>
<feOffset dy="5"/>
<feGaussianBlur stdDeviation="9"/>
<feComposite in2="hardAlpha" operator="arithmetic" k2="-1" k3="1"/>
<feColorMatrix type="matrix" values="0 0 0 0 1 0 0 0 0 1 0 0 0 0 1 0 0 0 0.81 0"/>
<feBlend mode="normal" in2="shape" result="effect1_innerShadow_328_16441"/>
</filter>
<filter id="filter2_b_328_16441" x="21" y="90.7461" width="170.476" height="123.145" filterUnits="userSpaceOnUse" color-interpolation-filters="sRGB">
<feFlood flood-opacity="0" result="BackgroundImageFix"/>
<feGaussianBlur in="BackgroundImageFix" stdDeviation="13.5"/>
<feComposite in2="SourceAlpha" operator="in" result="effect1_backgroundBlur_328_16441"/>
<feBlend mode="normal" in="SourceGraphic" in2="effect1_backgroundBlur_328_16441" result="shape"/>
</filter>
<filter id="filter3_i_328_16441" x="48" y="117.746" width="116.476" height="79.1445" filterUnits="userSpaceOnUse" color-interpolation-filters="sRGB">
<feFlood flood-opacity="0" result="BackgroundImageFix"/>
<feBlend mode="normal" in="SourceGraphic" in2="BackgroundImageFix" result="shape"/>
<feColorMatrix in="SourceAlpha" type="matrix" values="0 0 0 0 0 0 0 0 0 0 0 0 0 0 0 0 0 0 127 0" result="hardAlpha"/>
<feOffset dy="11"/>
<feGaussianBlur stdDeviation="5"/>
<feComposite in2="hardAlpha" operator="arithmetic" k2="-1" k3="1"/>
<feColorMatrix type="matrix" values="0 0 0 0 1 0 0 0 0 1 0 0 0 0 1 0 0 0 1 0"/>
<feBlend mode="normal" in2="shape" result="effect1_innerShadow_328_16441"/>
</filter>
<linearGradient id="paint0_linear_328_16441" x1="120.109" y1="154.214" x2="155.328" y2="92.4469" gradientUnits="userSpaceOnUse">
<stop stop-color="#FF9900"/>
<stop offset="1" stop-color="#FFEE94"/>
</linearGradient>
<linearGradient id="paint1_linear_328_16441" x1="55.4086" y1="180.717" x2="172.913" y2="92.8458" gradientUnits="userSpaceOnUse">
<stop stop-color="white"/>
<stop offset="1" stop-color="white" stop-opacity="0.58"/>
</linearGradient>
</defs>
</svg>
