<svg width="40" height="40" viewBox="0 0 40 40" fill="none" xmlns="http://www.w3.org/2000/svg">
<path fill-rule="evenodd" clip-rule="evenodd" d="M20 40C8.95455 40 0 31.0455 0 20C0 8.95455 8.95455 0 20 0C31.0455 0 40 8.95455 40 20C40 31.0455 31.0455 40 20 40Z" fill="#FFB172"/>
<path d="M20.1818 27.5631C18.999 27.5631 17.8161 27.571 16.6333 27.5602C15.8495 27.553 15.3016 26.7657 15.3059 26.1128C15.3138 25.009 15.0298 23.9944 14.3855 23.092C13.9311 22.4564 13.4133 21.8603 13.0128 21.1923C12.485 20.3121 12.1787 19.3364 12.0788 18.306C12.0529 18.037 12.0126 17.7681 12.004 17.4985C11.9472 15.5901 12.4994 13.873 13.624 12.3328C14.8931 10.5955 16.5973 9.49248 18.6977 9.14158C20.5874 8.82664 22.4605 9.00856 24.187 9.97713C26.393 11.2146 27.7973 13.054 28.2698 15.5419C28.4244 16.3588 28.4769 17.2202 28.41 18.0478C28.2813 19.6456 27.6924 21.0959 26.6497 22.3334C26.0371 23.0611 25.4568 23.8039 25.2411 24.7538C25.1483 25.1622 25.0412 25.5907 25.0728 25.9999C25.1447 26.9303 24.3078 27.5998 23.5175 27.5883C22.8718 27.5789 22.2268 27.5868 21.5811 27.5868C21.1152 27.5868 20.6485 27.5868 20.1825 27.5868C20.1825 27.5782 20.1825 27.5703 20.1825 27.5617L20.1818 27.5631Z" fill="white"/>
<path d="M20.1617 32.5987C19.4211 32.5987 18.6797 32.5994 17.9391 32.5987C17.0698 32.5972 16.4621 32.0047 16.3866 31.1311C16.3313 30.4911 16.7534 29.6858 17.6795 29.5607C18.0318 29.5132 18.3935 29.5247 18.7509 29.524C19.9697 29.5204 21.1885 29.529 22.4073 29.5204C23.3486 29.5139 24.1079 30.2768 24.0518 31.1462C24.0101 31.7962 23.4284 32.5268 22.774 32.5591C21.9047 32.6023 21.0318 32.5699 20.161 32.5699C20.161 32.58 20.161 32.5901 20.161 32.6001L20.1617 32.5987Z" fill="white"/>
</svg>
