<svg width="32" height="32" viewBox="0 0 32 32" fill="none" xmlns="http://www.w3.org/2000/svg">
<g id="White heart" clip-path="url(#clip0_1428_4013)">
<g id="Heart">
<path d="M15.1254 29.2015C15.6603 29.5 16.304 29.4835 16.8359 29.1795C20.4189 27.1318 26.6453 22.4179 29.0905 16.2948C32.6796 8.3224 24.2524 1.95834 18.4281 6.5356C17.8205 7.01307 17.0566 7.55954 16.5309 8.07719C16.2932 8.31124 15.8743 8.33511 15.6276 8.11061C14.9364 7.48177 13.8563 6.67511 13.1625 6.20577C8.19718 2.84639 -0.83743 7.27463 3.01641 16.7255C4.42817 20.9677 11.1557 26.9862 15.1254 29.2015Z" fill="url(#paint0_radial_1428_4013)"/>
<path d="M15.1254 29.2015C15.6603 29.5 16.304 29.4835 16.8359 29.1795C20.4189 27.1318 26.6453 22.4179 29.0905 16.2948C32.6796 8.3224 24.2524 1.95834 18.4281 6.5356C17.8205 7.01307 17.0566 7.55954 16.5309 8.07719C16.2932 8.31124 15.8743 8.33511 15.6276 8.11061C14.9364 7.48177 13.8563 6.67511 13.1625 6.20577C8.19718 2.84639 -0.83743 7.27463 3.01641 16.7255C4.42817 20.9677 11.1557 26.9862 15.1254 29.2015Z" fill="url(#paint1_radial_1428_4013)"/>
<path d="M15.1254 29.2015C15.6603 29.5 16.304 29.4835 16.8359 29.1795C20.4189 27.1318 26.6453 22.4179 29.0905 16.2948C32.6796 8.3224 24.2524 1.95834 18.4281 6.5356C17.8205 7.01307 17.0566 7.55954 16.5309 8.07719C16.2932 8.31124 15.8743 8.33511 15.6276 8.11061C14.9364 7.48177 13.8563 6.67511 13.1625 6.20577C8.19718 2.84639 -0.83743 7.27463 3.01641 16.7255C4.42817 20.9677 11.1557 26.9862 15.1254 29.2015Z" fill="url(#paint2_radial_1428_4013)"/>
<path d="M15.1254 29.2015C15.6603 29.5 16.304 29.4835 16.8359 29.1795C20.4189 27.1318 26.6453 22.4179 29.0905 16.2948C32.6796 8.3224 24.2524 1.95834 18.4281 6.5356C17.8205 7.01307 17.0566 7.55954 16.5309 8.07719C16.2932 8.31124 15.8743 8.33511 15.6276 8.11061C14.9364 7.48177 13.8563 6.67511 13.1625 6.20577C8.19718 2.84639 -0.83743 7.27463 3.01641 16.7255C4.42817 20.9677 11.1557 26.9862 15.1254 29.2015Z" fill="url(#paint3_radial_1428_4013)"/>
<path d="M15.1254 29.2015C15.6603 29.5 16.304 29.4835 16.8359 29.1795C20.4189 27.1318 26.6453 22.4179 29.0905 16.2948C32.6796 8.3224 24.2524 1.95834 18.4281 6.5356C17.8205 7.01307 17.0566 7.55954 16.5309 8.07719C16.2932 8.31124 15.8743 8.33511 15.6276 8.11061C14.9364 7.48177 13.8563 6.67511 13.1625 6.20577C8.19718 2.84639 -0.83743 7.27463 3.01641 16.7255C4.42817 20.9677 11.1557 26.9862 15.1254 29.2015Z" fill="url(#paint4_radial_1428_4013)"/>
</g>
<path id="Intersect" d="M24.3485 23.313C26.2878 21.3009 28.0388 18.9282 29.0905 16.2948C32.6796 8.3224 24.2523 1.95834 18.428 6.5356C18.2773 6.6541 18.1168 6.77685 17.9528 6.90235C17.456 7.28254 16.9261 7.68801 16.5308 8.07719C16.4105 8.19566 16.2438 8.26028 16.0765 8.2661L16.0747 8.2697L24.3485 23.313Z" fill="url(#paint5_radial_1428_4013)"/>
<g id="Subtract">
<path d="M3.34961 17.5586C5.27563 21.721 11.4091 27.1283 15.1255 29.2022C15.6604 29.5007 16.3041 29.4842 16.836 29.1802C20.1685 27.2756 25.7877 23.0647 28.5245 17.5586H3.34961Z" fill="url(#paint6_radial_1428_4013)"/>
<path d="M3.34961 17.5586C5.27563 21.721 11.4091 27.1283 15.1255 29.2022C15.6604 29.5007 16.3041 29.4842 16.836 29.1802C20.1685 27.2756 25.7877 23.0647 28.5245 17.5586H3.34961Z" fill="url(#paint7_linear_1428_4013)"/>
<path d="M3.34961 17.5586C5.27563 21.721 11.4091 27.1283 15.1255 29.2022C15.6604 29.5007 16.3041 29.4842 16.836 29.1802C20.1685 27.2756 25.7877 23.0647 28.5245 17.5586H3.34961Z" fill="url(#paint8_linear_1428_4013)"/>
</g>
<path id="Intersect_2" d="M15.6277 8.11097C16.5737 8.97172 18.0835 8.7597 18.9384 7.80835C19.8535 6.79006 21.0841 5.73348 22.5768 5.00195C21.173 5.03271 19.735 5.5089 18.4282 6.53595C18.2774 6.65446 18.117 6.7772 17.9529 6.90271C17.4561 7.2829 16.9262 7.68836 16.531 8.07755C16.2933 8.3116 15.8744 8.33546 15.6277 8.11097Z" fill="url(#paint9_linear_1428_4013)"/>
<g id="Heart Highlight 1" filter="url(#filter0_f_1428_4013)">
<path d="M25.6384 5.97374C28.2365 7.04315 29.6136 9.46132 27.9808 13.4281C25.1059 18.8656 22.0185 18.9617 20.4183 18.3031C18.5434 17.1781 17.2231 13.8948 18.8559 9.92807C20.4886 5.96132 23.0403 4.90433 25.6384 5.97374Z" fill="url(#paint10_radial_1428_4013)" fill-opacity="0.6"/>
</g>
<g id="Heart Shadow 2" filter="url(#filter1_f_1428_4013)">
<path d="M16.7083 9.32002V21.7892C19.7103 16.1216 25.5599 9.21561 23.0853 6.30906C22.2502 5.32821 19.7896 6.23186 17.0467 8.57622C16.8298 8.76158 16.7083 9.03473 16.7083 9.32002Z" fill="url(#paint11_linear_1428_4013)"/>
</g>
<g id="Vector 250" filter="url(#filter2_f_1428_4013)">
<path d="M22.7712 6.11585C23.8579 5.98094 26.8337 6.3971 28.0525 9.80335" stroke="url(#paint12_linear_1428_4013)" stroke-width="0.25" stroke-linecap="round"/>
</g>
<g id="Heart Highlight 2" filter="url(#filter3_f_1428_4013)">
<path d="M14.8611 9.18036L15.0661 22.5866C8.19108 15.8991 6.95995 8.73346 9.29856 7.1267C10.9686 5.97928 14.1111 7.61786 14.8611 9.18036Z" fill="url(#paint13_radial_1428_4013)" fill-opacity="0.6"/>
</g>
<g id="Vector 253" filter="url(#filter4_f_1428_4013)">
<path d="M27.8064 10.9277C27.1707 15.4355 22.0272 22.9484 17.2305 26.4737" stroke="url(#paint14_linear_1428_4013)" stroke-width="2" stroke-linecap="round"/>
</g>
<g id="Vector 254" filter="url(#filter5_f_1428_4013)">
<path d="M6.89795 20.3086C8.89795 23.1586 13.5229 27.0378 15.5854 28.6211L12.7729 17.6836L6.89795 20.3086Z" fill="url(#paint15_linear_1428_4013)"/>
</g>
</g>
<defs>
<filter id="filter0_f_1428_4013" x="16.6169" y="4.08203" width="13.5691" height="16.002" filterUnits="userSpaceOnUse" color-interpolation-filters="sRGB">
<feFlood flood-opacity="0" result="BackgroundImageFix"/>
<feBlend mode="normal" in="SourceGraphic" in2="BackgroundImageFix" result="shape"/>
<feGaussianBlur stdDeviation="0.75" result="effect1_foregroundBlur_1428_4013"/>
</filter>
<filter id="filter1_f_1428_4013" x="14.7083" y="3.91797" width="10.9724" height="19.8711" filterUnits="userSpaceOnUse" color-interpolation-filters="sRGB">
<feFlood flood-opacity="0" result="BackgroundImageFix"/>
<feBlend mode="normal" in="SourceGraphic" in2="BackgroundImageFix" result="shape"/>
<feGaussianBlur stdDeviation="1" result="effect1_foregroundBlur_1428_4013"/>
</filter>
<filter id="filter2_f_1428_4013" x="21.6462" y="4.96875" width="7.53125" height="5.95898" filterUnits="userSpaceOnUse" color-interpolation-filters="sRGB">
<feFlood flood-opacity="0" result="BackgroundImageFix"/>
<feBlend mode="normal" in="SourceGraphic" in2="BackgroundImageFix" result="shape"/>
<feGaussianBlur stdDeviation="0.5" result="effect1_foregroundBlur_1428_4013"/>
</filter>
<filter id="filter3_f_1428_4013" x="5.21362" y="3.74219" width="12.8525" height="21.8438" filterUnits="userSpaceOnUse" color-interpolation-filters="sRGB">
<feFlood flood-opacity="0" result="BackgroundImageFix"/>
<feBlend mode="normal" in="SourceGraphic" in2="BackgroundImageFix" result="shape"/>
<feGaussianBlur stdDeviation="1.5" result="effect1_foregroundBlur_1428_4013"/>
</filter>
<filter id="filter4_f_1428_4013" x="12.2305" y="5.92773" width="20.5759" height="25.5469" filterUnits="userSpaceOnUse" color-interpolation-filters="sRGB">
<feFlood flood-opacity="0" result="BackgroundImageFix"/>
<feBlend mode="normal" in="SourceGraphic" in2="BackgroundImageFix" result="shape"/>
<feGaussianBlur stdDeviation="2" result="effect1_foregroundBlur_1428_4013"/>
</filter>
<filter id="filter5_f_1428_4013" x="3.89795" y="14.6836" width="14.6875" height="16.9375" filterUnits="userSpaceOnUse" color-interpolation-filters="sRGB">
<feFlood flood-opacity="0" result="BackgroundImageFix"/>
<feBlend mode="normal" in="SourceGraphic" in2="BackgroundImageFix" result="shape"/>
<feGaussianBlur stdDeviation="1.5" result="effect1_foregroundBlur_1428_4013"/>
</filter>
<radialGradient id="paint0_radial_1428_4013" cx="0" cy="0" r="1" gradientUnits="userSpaceOnUse" gradientTransform="translate(17.9241 5.90014) rotate(96.9923) scale(24.2214 29.9484)">
<stop offset="0.0627615" stop-color="#F5F3F8"/>
<stop offset="0.463234" stop-color="#E4D9F1"/>
<stop offset="1" stop-color="#E3CCFB"/>
</radialGradient>
<radialGradient id="paint1_radial_1428_4013" cx="0" cy="0" r="1" gradientUnits="userSpaceOnUse" gradientTransform="translate(23.6478 15.3703) rotate(-164.21) scale(25.2658 15.2737)">
<stop offset="0.682152" stop-color="#DCC2F7" stop-opacity="0"/>
<stop offset="1" stop-color="#DCC2F7"/>
</radialGradient>
<radialGradient id="paint2_radial_1428_4013" cx="0" cy="0" r="1" gradientUnits="userSpaceOnUse" gradientTransform="translate(19.7103 18.3703) rotate(-142.502) scale(21.6638 19.4675)">
<stop offset="0.690422" stop-color="#B6B6B6" stop-opacity="0"/>
<stop offset="1" stop-color="#B6B6B6"/>
</radialGradient>
<radialGradient id="paint3_radial_1428_4013" cx="0" cy="0" r="1" gradientUnits="userSpaceOnUse" gradientTransform="translate(19.7103 18.3703) rotate(-142.502) scale(21.6638 19.4675)">
<stop offset="0.821351" stop-color="#B6B6B6" stop-opacity="0"/>
<stop offset="1" stop-color="#919191"/>
</radialGradient>
<radialGradient id="paint4_radial_1428_4013" cx="0" cy="0" r="1" gradientUnits="userSpaceOnUse" gradientTransform="translate(18.7103 11.1828) rotate(142.021) scale(18.0784 25.2788)">
<stop offset="0.79978" stop-color="#B6B6B6" stop-opacity="0"/>
<stop offset="1" stop-color="#B6B6B6"/>
</radialGradient>
<radialGradient id="paint5_radial_1428_4013" cx="0" cy="0" r="1" gradientUnits="userSpaceOnUse" gradientTransform="translate(21.9117 15.6092) rotate(-98.0921) scale(12.3166 17.0058)">
<stop offset="0.564701" stop-color="#B6B6B6" stop-opacity="0"/>
<stop offset="1" stop-color="#B6B6B6"/>
</radialGradient>
<radialGradient id="paint6_radial_1428_4013" cx="0" cy="0" r="1" gradientUnits="userSpaceOnUse" gradientTransform="translate(15.9371 14.1836) rotate(90) scale(15.8728 15.7131)">
<stop offset="0.750916" stop-color="#DBAEFF" stop-opacity="0"/>
<stop offset="1" stop-color="#DBAEFF"/>
</radialGradient>
<linearGradient id="paint7_linear_1428_4013" x1="16.2729" y1="17.2461" x2="5.77292" y2="28.1211" gradientUnits="userSpaceOnUse">
<stop offset="0.632359" stop-color="#DBAEFF" stop-opacity="0"/>
<stop offset="1" stop-color="#DBAEFF"/>
</linearGradient>
<linearGradient id="paint8_linear_1428_4013" x1="16.2729" y1="17.2461" x2="25.7729" y2="27.4648" gradientUnits="userSpaceOnUse">
<stop offset="0.621841" stop-color="#DBAEFF" stop-opacity="0"/>
<stop offset="1" stop-color="#DBAEFF"/>
</linearGradient>
<linearGradient id="paint9_linear_1428_4013" x1="18.9078" y1="11.8532" x2="15.3161" y2="7.14926" gradientUnits="userSpaceOnUse">
<stop offset="0.600231" stop-color="#B6B6B6" stop-opacity="0"/>
<stop offset="0.889607" stop-color="#919191"/>
</linearGradient>
<radialGradient id="paint10_radial_1428_4013" cx="0" cy="0" r="1" gradientUnits="userSpaceOnUse" gradientTransform="translate(26.1058 7.1781) rotate(122.716) scale(11.217 4.67902)">
<stop stop-color="white"/>
<stop offset="1" stop-color="white" stop-opacity="0"/>
</radialGradient>
<linearGradient id="paint11_linear_1428_4013" x1="20.7103" y1="2.87156" x2="26.0853" y2="4.65281" gradientUnits="userSpaceOnUse">
<stop stop-color="#CFC7D9"/>
<stop offset="1" stop-color="#CFC7D9" stop-opacity="0"/>
</linearGradient>
<linearGradient id="paint12_linear_1428_4013" x1="27.8025" y1="8.1471" x2="24.7712" y2="6.3971" gradientUnits="userSpaceOnUse">
<stop stop-color="white"/>
<stop offset="1" stop-color="white" stop-opacity="0"/>
</linearGradient>
<radialGradient id="paint13_radial_1428_4013" cx="0" cy="0" r="1" gradientUnits="userSpaceOnUse" gradientTransform="translate(14.5871 15.9169) rotate(-142.106) scale(9.03091 9.24261)">
<stop stop-color="white"/>
<stop offset="1" stop-color="white" stop-opacity="0"/>
</radialGradient>
<linearGradient id="paint14_linear_1428_4013" x1="27.8064" y1="13.6439" x2="17.6928" y2="26.4737" gradientUnits="userSpaceOnUse">
<stop stop-color="white"/>
<stop offset="1" stop-color="white" stop-opacity="0"/>
</linearGradient>
<linearGradient id="paint15_linear_1428_4013" x1="15.9604" y1="30.4961" x2="9.64795" y2="23.1523" gradientUnits="userSpaceOnUse">
<stop stop-color="#DCBFF9"/>
<stop offset="1" stop-color="#DCBFF9" stop-opacity="0"/>
</linearGradient>
<clipPath id="clip0_1428_4013">
<rect width="32" height="32" fill="white"/>
</clipPath>
</defs>
</svg>
