<svg width="46" height="46" viewBox="0 0 46 46" fill="none" xmlns="http://www.w3.org/2000/svg">
<path fill-rule="evenodd" clip-rule="evenodd" d="M46 23C46 35.7023 35.7023 46 23 46C10.2977 46 0 35.7023 0 23C0 10.2977 10.2977 0 23 0C35.7023 0 46 10.2977 46 23Z" fill="#FFA6A6"/>
<path fill-rule="evenodd" clip-rule="evenodd" d="M28 35C28 36.6568 23.9705 38 19 38C14.0295 38 10 36.6568 10 35C10 33.3432 14.0295 32 19 32C23.9705 32 28 33.3432 28 35Z" fill="#FF7878"/>
<rect x="15" y="7" width="5" height="23" rx="2.5" fill="white"/>
<circle cx="17.5" cy="29.5" r="5.5" fill="white"/>
<path d="M33.7641 30.1478C34.41 30.1478 34.9635 30.0247 35.4249 29.8094C35.8862 29.5942 36.3783 29.2559 36.9011 28.7638L38.1006 29.994C36.9319 31.2857 35.4864 31.9623 33.8256 31.9623C32.1649 31.9623 30.7501 31.4087 29.643 30.3323C28.5358 29.2559 27.9822 27.8719 27.9822 26.2419C27.9822 24.6119 28.5358 23.1971 29.6737 22.1207C30.8116 21.0135 32.2264 20.46 33.9486 20.46C35.6709 20.46 37.1164 21.1058 38.2543 22.3668L37.0549 23.6585C36.532 23.1356 36.04 22.7973 35.5479 22.582C35.0866 22.3668 34.533 22.2745 33.8871 22.2745C32.7492 22.2745 31.8265 22.6436 31.0577 23.3509C30.2888 24.089 29.9198 25.0117 29.9198 26.1496C29.9198 27.2875 30.2888 28.2102 31.0577 28.9791C31.8265 29.7479 32.7184 30.117 33.7641 30.117V30.1478Z" fill="white"/>
<path d="M25.4911 18C24.1072 18 23 19.1072 23 20.4911C23 21.8751 24.1072 22.9823 25.4911 22.9823C26.8751 22.9823 27.9823 21.8751 27.9823 20.4911C27.9823 19.1072 26.8751 18 25.4911 18ZM25.4911 21.6291C24.876 21.6291 24.3532 21.1062 24.3532 20.4911C24.3532 19.876 24.876 19.3532 25.4911 19.3532C26.1062 19.3532 26.6291 19.876 26.6291 20.4911C26.6291 21.1062 26.1062 21.6291 25.4911 21.6291Z" fill="white"/>
</svg>
