<svg width="64" height="51" viewBox="0 0 64 51" fill="none" xmlns="http://www.w3.org/2000/svg">
<g id="&#236;&#132;&#164;&#236;&#160;&#149; &#235;&#169;&#148;&#235;&#137;&#180; &#235;&#178;&#132;&#237;&#138;&#188;">
<path id="T Shirt" d="M61.8988 7.76156L48.9578 0.265625C48.6646 0.0932598 48.3353 0.00192223 48.0002 0H39.9996C39.4692 0 38.9604 0.223884 38.5853 0.622398C38.2102 1.02091 37.9995 1.56141 37.9995 2.125C37.9995 3.81576 37.3673 5.43726 36.242 6.63281C35.1167 7.82835 33.5904 8.5 31.999 8.5C30.4076 8.5 28.8814 7.82835 27.7561 6.63281C26.6308 5.43726 25.9986 3.81576 25.9986 2.125C25.9986 1.56141 25.7878 1.02091 25.4127 0.622398C25.0376 0.223884 24.5289 0 23.9984 0H15.9978C15.6619 0.00147706 15.3317 0.0928288 15.0377 0.265625L2.09924 7.76156C1.17692 8.27941 0.485531 9.1647 0.176669 10.2233C-0.132193 11.2819 -0.0333179 12.4275 0.451614 13.4088L5.26948 23.1864C5.6198 23.8894 6.14489 24.4768 6.78762 24.8847C7.43035 25.2927 8.16609 25.5055 8.91476 25.5H13.9976V46.75C13.9976 47.8772 14.4191 48.9582 15.1693 49.7552C15.9195 50.5522 16.937 51 17.998 51H46.0001C47.061 51 48.0785 50.5522 48.8287 49.7552C49.5789 48.9582 50.0004 47.8772 50.0004 46.75V25.5H55.0858C55.8344 25.5055 56.5702 25.2927 57.2129 24.8847C57.8556 24.4768 58.3807 23.8894 58.7311 23.1864L63.5489 13.4088C64.0337 12.4271 64.1322 11.2814 63.8228 10.2227C63.5135 9.16404 62.8216 8.27895 61.8988 7.76156ZM8.91476 21.25C8.87781 21.2519 8.84145 21.2396 8.81225 21.2155L4.01939 11.4909L13.9976 5.70563V21.25H8.91476ZM46.0001 46.75H17.998V4.25H22.1983C22.6597 6.64901 23.887 8.80506 25.6724 10.3535C27.4578 11.9019 29.6918 12.7476 31.9965 12.7476C34.3013 12.7476 36.5353 11.9019 38.3207 10.3535C40.1061 8.80506 41.3333 6.64901 41.7948 4.25H46.0001V46.75ZM55.1883 21.2128C55.1745 21.2261 55.1582 21.2362 55.1406 21.2426C55.123 21.249 55.1043 21.2515 55.0858 21.25H50.0004V5.70563L59.9812 11.4909L55.1883 21.2128Z" fill="#AC6BFF"/>
</g>
</svg>
