<svg width="110" height="83" viewBox="0 0 110 83" fill="none" xmlns="http://www.w3.org/2000/svg">
<g filter="url(#filter0_d_35_1880)">
<path d="M87.8033 24.2841C88.6905 24.521 89.5243 24.7509 90.3615 24.9667C91.3691 25.2267 91.9886 25.9836 91.9782 26.9612C91.9678 27.9226 91.3579 28.7384 90.4554 28.9094C90.1036 28.9728 89.7425 28.9623 89.395 28.8785C88.24 28.5982 87.1003 28.2562 85.9467 27.9675C85.7505 27.927 85.5465 27.9565 85.3695 28.0509C84.257 28.6816 83.152 29.3319 82.0019 30.0026L84.5546 31.4841C84.5971 31.5033 84.6376 31.5268 84.6756 31.5541C85.3174 32.1218 86.0065 32.093 86.7818 31.8345C87.7108 31.5205 88.6704 31.2941 89.6251 31.0636C90.6431 30.8204 91.6938 31.5184 91.9476 32.5675C92.1889 33.5626 91.5721 34.6635 90.6056 34.9502C90.1404 35.0903 89.671 35.2116 89.203 35.3384C88.7469 35.4617 88.29 35.5809 87.8054 35.7084C88.039 36.5907 88.2657 37.4513 88.4966 38.3112C88.799 39.4366 88.2879 40.4836 87.2491 40.8613C86.9946 40.9518 86.7244 40.9889 86.4552 40.9706C86.1859 40.9522 85.9232 40.8787 85.6831 40.7545C85.443 40.6304 85.2306 40.4581 85.0588 40.2484C84.887 40.0387 84.7594 39.7958 84.6839 39.5347C84.3362 38.3147 84.0303 37.082 83.6958 35.8619C83.6624 35.7407 83.5859 35.5949 83.4872 35.5353C82.3538 34.8612 81.2113 34.2038 80.0368 33.5192C80.0237 33.5999 80.0147 33.6813 80.0097 33.763C80.0097 35.0013 80.0021 36.2396 80.0174 37.4772C80.0292 37.6434 80.098 37.8002 80.2121 37.9208C81.0548 38.7891 81.9143 39.6412 82.7626 40.5032C83.3516 41.1017 83.5574 41.8172 83.2855 42.6189C83.0074 43.4486 82.3941 43.907 81.5277 43.9868C80.8866 44.0464 80.3581 43.7871 79.9096 43.3358C79.2838 42.7051 78.6482 42.0744 77.9737 41.4016C77.3562 42.0323 76.7422 42.6631 76.1296 43.2896C75.291 44.1501 74.136 44.2377 73.2947 43.504C72.4032 42.7254 72.3643 41.3946 73.2182 40.5228C74.0721 39.6511 74.9566 38.7709 75.8188 37.8921C75.9121 37.7979 75.9703 37.6741 75.9836 37.5417C75.9947 36.2452 75.9899 34.9488 75.9885 33.6523C75.9822 33.6081 75.9725 33.5645 75.9593 33.5219L73.3419 35.0476C73.3326 35.0545 73.3226 35.0604 73.312 35.0651C72.4387 35.337 72.1995 36.0462 72.0208 36.8514C71.8177 37.7821 71.5646 38.7043 71.2774 39.6125C70.9499 40.6455 69.8436 41.2103 68.8687 40.8999C67.784 40.5544 67.1922 39.5144 67.4696 38.4352C67.5858 37.9846 67.7116 37.5368 67.8305 37.0869C67.9494 36.637 68.0621 36.1913 68.1866 35.7105C67.2951 35.4701 66.4176 35.2305 65.5386 34.9957C64.5088 34.7203 63.9393 33.8745 64.0235 32.7574C64.093 31.8989 64.8746 31.1196 65.8098 31.0278C66.0864 31.012 66.3636 31.0438 66.6297 31.1217C67.8041 31.4224 68.973 31.7454 70.1468 32.051C70.2615 32.0851 70.3844 32.078 70.4945 32.0307C71.6501 31.3733 72.7982 30.7034 73.9935 30.0103L71.7308 28.6872C71.3609 28.4707 71.0007 28.2345 70.6182 28.0446C70.4489 27.9584 70.2562 27.9303 70.0696 27.9647C68.9167 28.2597 67.7749 28.5856 66.6227 28.8939C65.4489 29.2093 64.3607 28.6024 64.0673 27.4769C63.7773 26.3641 64.449 25.2835 65.6144 24.9793C66.4628 24.7579 67.309 24.5301 68.1928 24.2954C67.9626 23.4397 67.7381 22.591 67.5058 21.7445C67.1992 20.6232 67.6449 19.605 68.6344 19.1873C69.8234 18.6834 71.0737 19.3926 71.3928 20.7192C71.6759 21.8952 71.9978 23.0613 72.3107 24.2295C72.3398 24.3282 72.4026 24.4134 72.488 24.4699C73.6166 25.1321 74.7507 25.7852 75.8842 26.4398C75.9009 26.4496 75.928 26.4398 75.9878 26.4398V25.3346C75.9878 24.4236 76.0003 23.5126 75.978 22.6015C75.9688 22.4012 75.8914 22.2102 75.759 22.0605C74.9294 21.1958 74.0776 20.3534 73.2362 19.5006C72.415 18.6673 72.3886 17.4129 73.1667 16.6133C73.9754 15.7864 75.2034 15.7948 76.049 16.6448C76.6873 17.2868 77.3131 17.9406 78.0015 18.647C78.5849 18.0415 79.1197 17.4465 79.6989 16.8999C80.0208 16.5958 80.3845 16.2909 80.7857 16.1291C81.641 15.7836 82.5895 16.1578 83.0804 16.9413C83.3223 17.3231 83.4293 17.7761 83.384 18.2268C83.3387 18.6775 83.1438 19.0997 82.8308 19.4249C81.9602 20.3142 81.0764 21.1909 80.2072 22.0816C80.1112 22.1797 80.0139 22.331 80.0125 22.4593C79.9986 23.755 80.0049 25.0522 80.0062 26.348C80.0138 26.3935 80.026 26.4381 80.0424 26.4811C80.5987 26.163 81.1348 25.8546 81.6723 25.5421C82.2536 25.205 82.8384 24.8742 83.4107 24.5175C83.5474 24.4229 83.6478 24.2838 83.6951 24.1237C84.0164 22.9575 84.3119 21.7844 84.6276 20.6197C84.889 19.6547 85.6011 19.078 86.5489 19.0275C87.3506 18.9862 88.1676 19.5391 88.4632 20.3338C88.6405 20.811 88.6071 21.2946 88.4764 21.7781C88.2525 22.5959 88.0327 23.4257 87.8033 24.2841Z" fill="#EAF4FF"/>
</g>
<path opacity="0.827" d="M55.2334 62.6863V39.4141H65.2575C66.7019 37.2911 68.6707 35.5776 70.9727 34.4398C73.2746 33.3021 75.8317 32.7789 78.3955 32.9209C80.9594 33.0629 83.443 33.8653 85.6053 35.2503C87.7675 36.6353 89.535 38.5558 90.7361 40.8253C91.9372 43.0949 92.5312 45.6364 92.4603 48.2032C92.3894 50.77 91.6562 53.2749 90.3317 55.4748C89.0072 57.6746 87.1364 59.4946 84.901 60.7582C82.6657 62.0218 80.1416 62.6859 77.5738 62.6863H55.2334Z" fill="url(#paint0_linear_35_1880)"/>
<path d="M32.8933 62.6855C28.9434 62.6855 25.1552 61.1163 22.3622 58.3233C19.5691 55.5303 18 51.7421 18 47.7921C18 43.8422 19.5691 40.054 22.3622 37.261C25.1552 34.4679 28.9434 32.8988 32.8933 32.8988C33.3156 32.8988 33.7343 32.9161 34.1493 32.9506C35.5053 29.0829 37.899 25.6627 41.0686 23.0643C44.2381 20.4658 48.0614 18.7893 52.1199 18.2181C56.1784 17.6469 60.3159 18.203 64.0795 19.8257C67.8432 21.4484 71.088 24.075 73.4588 27.4182C75.8297 30.7614 77.2353 34.6923 77.5218 38.7809C77.8083 42.8694 76.9647 46.9579 75.0833 50.5991C73.2019 54.2403 70.3551 57.2938 66.8546 59.4255C63.354 61.5573 59.3346 62.685 55.236 62.6855H32.8933Z" fill="url(#paint1_linear_35_1880)"/>
<path d="M50.1325 52C50.3669 52.2087 50.5941 52.4059 50.8164 52.61C52.3632 54.0365 53.822 55.5394 55.1138 57.1863C56.1305 58.4826 57.037 59.8436 57.7429 61.3212C58.2133 62.3054 58.5763 63.3238 58.8065 64.3852C58.9968 65.2652 59.0403 66.1504 58.9651 67.0442C58.8196 68.7772 58.173 70.324 57.0641 71.6894C56.0607 72.9241 54.7963 73.8368 53.2747 74.41C52.291 74.7819 51.2456 74.9812 50.1885 74.9983C48.6723 75.026 47.2441 74.7164 45.9025 74.0475C44.2872 73.242 43.0395 72.0686 42.1496 70.5456C41.6297 69.6549 41.2793 68.6825 41.115 67.6739C40.9509 66.6874 40.9659 65.6998 41.1377 64.7152C41.4145 63.129 42.0442 61.6678 42.859 60.2728C43.6885 58.8527 44.6908 57.5498 45.7727 56.3002C47.031 54.8466 48.4218 53.5158 49.8601 52.2291C49.9446 52.1529 50.0349 52.0816 50.1325 52Z" fill="#C1DDFF"/>
<path d="M64.0262 60.0406C64.0054 59.189 64.2323 58.3957 64.5634 57.6303C64.9886 56.6481 65.5728 55.77 66.2272 54.9401C67.029 53.9229 67.9362 53.0133 68.8871 52.1496C69.1196 51.9386 69.0712 51.9591 69.2859 52.1589C70.0408 52.8616 70.767 53.5944 71.4259 54.3961C72.1368 55.2608 72.7835 56.1717 73.2736 57.1941C73.595 57.8651 73.857 58.5619 73.9509 59.3064C74.1765 61.1011 73.6247 62.6024 72.3 63.7818C71.5399 64.4589 70.647 64.8397 69.6536 64.9583C68.2603 65.1245 66.9871 64.7981 65.8689 63.9075C64.9618 63.185 64.3751 62.2342 64.1217 61.0761C64.048 60.7396 64.0386 60.3878 64 60.0432L64.0262 60.0406Z" fill="#9ECAFF"/>
<defs>
<filter id="filter0_d_35_1880" x="48" y="0" width="60" height="60" filterUnits="userSpaceOnUse" color-interpolation-filters="sRGB">
<feFlood flood-opacity="0" result="BackgroundImageFix"/>
<feColorMatrix in="SourceAlpha" type="matrix" values="0 0 0 0 0 0 0 0 0 0 0 0 0 0 0 0 0 0 127 0" result="hardAlpha"/>
<feOffset/>
<feGaussianBlur stdDeviation="8"/>
<feComposite in2="hardAlpha" operator="out"/>
<feColorMatrix type="matrix" values="0 0 0 0 0.917594 0 0 0 0 0.955183 0 0 0 0 1 0 0 0 0.5 0"/>
<feBlend mode="normal" in2="BackgroundImageFix" result="effect1_dropShadow_35_1880"/>
<feBlend mode="normal" in="SourceGraphic" in2="effect1_dropShadow_35_1880" result="shape"/>
</filter>
<linearGradient id="paint0_linear_35_1880" x1="73.8497" y1="45.3198" x2="73.8497" y2="62.6863" gradientUnits="userSpaceOnUse">
<stop stop-color="#F0F1F6"/>
<stop offset="1" stop-color="#E1E3EF"/>
</linearGradient>
<linearGradient id="paint1_linear_35_1880" x1="47.7882" y1="38.3766" x2="47.7882" y2="62.6855" gradientUnits="userSpaceOnUse">
<stop stop-color="white"/>
<stop offset="1" stop-color="#E1E3EF"/>
</linearGradient>
</defs>
</svg>
