<svg width="56" height="61" viewBox="0 0 56 61" fill="none" xmlns="http://www.w3.org/2000/svg">
<g clip-path="url(#clip0_1569_23000)">
<g filter="url(#filter0_d_1569_23000)">
<path d="M13.3 21.0715C15.2833 19.9393 17.3351 19.0797 19.4553 18.4926C21.5756 17.9056 23.7432 17.612 25.9583 17.612C27.125 17.612 28.2823 17.6959 29.4303 17.8636C30.5783 18.0314 31.7154 18.283 32.8417 18.6184C34.7861 19.2055 36.274 19.6038 37.3053 19.8135C38.3367 20.0232 39.4349 20.128 40.6 20.128H42.7583L43.75 10.0642H12.1917L13.3 21.0715ZM16.3333 55.3515C15.1278 55.3515 14.0778 54.9322 13.1833 54.0935C12.2889 53.2549 11.7833 52.1856 11.6667 50.8857L7 5.03223H49L44.3333 50.8857C44.2167 52.1856 43.7111 53.2549 42.8167 54.0935C41.9222 54.9322 40.8722 55.3515 39.6667 55.3515H16.3333Z" fill="#F5F5F5"/>
</g>
<path d="M13 27.1232C14.5052 26.2075 19.3772 23.1291 20.9863 22.6544C22.5954 22.1796 24.2405 21.9422 25.9216 21.9422C26.807 21.9422 27.6853 22.01 28.5566 22.1457C29.4278 22.2813 30.2908 22.4848 31.1456 22.7561C32.6213 23.2309 33.7505 23.5531 34.5332 23.7226C35.3159 23.8922 35.0982 23.977 37.0336 23.977C37.0336 23.977 38.4687 23.9055 39.5 23.757C40.5313 23.6085 42.418 23.1631 42.418 23.1631L43 17.3029L15.4736 15.8379L13 27.1232ZM18.6169 52.4637C17.702 52.4637 16.9051 52.1246 16.2263 51.4463C15.5474 50.7681 15.1638 49.9033 15.0752 48.852L13 27.1232L15.4736 15.8379L43 17.3029L39.8669 48.852C39.7784 49.9033 39.3947 50.7681 38.7159 51.4463C38.0371 52.1246 37.2402 52.4637 36.3252 52.4637H18.6169Z" fill="#C0D2FF"/>
</g>
<defs>
<filter id="filter0_d_1569_23000" x="3" y="5.03223" width="50" height="58.3193" filterUnits="userSpaceOnUse" color-interpolation-filters="sRGB">
<feFlood flood-opacity="0" result="BackgroundImageFix"/>
<feColorMatrix in="SourceAlpha" type="matrix" values="0 0 0 0 0 0 0 0 0 0 0 0 0 0 0 0 0 0 127 0" result="hardAlpha"/>
<feOffset dy="4"/>
<feGaussianBlur stdDeviation="2"/>
<feComposite in2="hardAlpha" operator="out"/>
<feColorMatrix type="matrix" values="0 0 0 0 0 0 0 0 0 0 0 0 0 0 0 0 0 0 0.25 0"/>
<feBlend mode="normal" in2="BackgroundImageFix" result="effect1_dropShadow_1569_23000"/>
<feBlend mode="normal" in="SourceGraphic" in2="effect1_dropShadow_1569_23000" result="shape"/>
</filter>
<clipPath id="clip0_1569_23000">
<rect width="56" height="60.3831" fill="white"/>
</clipPath>
</defs>
</svg>
