<svg width="20" height="20" viewBox="0 0 20 20" fill="none" xmlns="http://www.w3.org/2000/svg">
<path d="M10 2C8.4087 2 6.88258 2.65555 5.75736 3.82245C4.63214 4.98934 4 6.57199 4 8.22222C4 13.2593 10 18 10 18C10 18 16 13.2593 16 8.22222C16 6.57199 15.3679 4.98934 14.2426 3.82245C13.1174 2.65555 11.5913 2 10 2ZM10 11.1852C9.43491 11.1852 8.88251 11.0114 8.41266 10.6858C7.9428 10.3603 7.57659 9.89751 7.36034 9.3561C7.14409 8.81469 7.08751 8.21894 7.19776 7.64418C7.308 7.06942 7.58012 6.54147 7.9797 6.12709C8.37927 5.71271 8.88837 5.43052 9.4426 5.31619C9.99683 5.20186 10.5713 5.26054 11.0934 5.4848C11.6155 5.70906 12.0617 6.08883 12.3756 6.57609C12.6896 7.06334 12.8571 7.6362 12.8571 8.22222C12.8571 9.00805 12.5561 9.76169 12.0203 10.3174C11.4845 10.873 10.7578 11.1852 10 11.1852Z" fill="#A29EA7"/>
</svg>
