<svg width="24" height="24" viewBox="0 0 24 24" fill="none" xmlns="http://www.w3.org/2000/svg">
    <path d="M17.193 21.14H6.808c-.01-.007-.018-.018-.029-.021-.87-.248-1.252-.756-1.252-1.663V8.569c-.191 0-.36.003-.53-.002a1.269 1.269 0 0 1-.288-.03.95.95 0 0 1 .246-1.868c.756-.007 1.511-.003 2.266-.003h.21v-.22c0-.689-.003-1.377.002-2.065a1.52 1.52 0 0 1 1.16-1.48c.04-.011.078-.03.117-.044h6.582c.02.011.04.027.062.032.778.2 1.216.762 1.217 1.563v2.214h.228c.731 0 1.462-.001 2.194 0 .581.002 1.01.41 1.007.956-.002.548-.426.945-1.012.946h-.513V19.566c0 .779-.45 1.352-1.2 1.54-.028.007-.055.022-.082.033zm-4.428-7.232v-1.334c0-1.072.003-2.145 0-3.217-.003-.522-.459-.883-.949-.76-.357.088-.579.395-.579.806v7.86c0 .396-.003.792.001 1.188.004.336.157.586.467.722.51.224 1.058-.153 1.06-.731.003-1.512 0-3.022 0-4.534zm1.904.01v4.515c0 .456.32.797.747.804.436.007.775-.33.775-.796.003-3.021.004-6.043-.004-9.065a.97.97 0 0 0-.133-.463c-.17-.29-.525-.405-.845-.308a.76.76 0 0 0-.54.745v4.569zm-5.335-.009V12.1c0-.92.003-1.84-.002-2.76a.757.757 0 0 0-1.014-.722c-.328.117-.508.4-.508.805v8.955c0 .073.003.147.015.219a.73.73 0 0 0 .52.603c.497.166.987-.209.988-.757.002-1.51 0-3.022 0-4.533zm5.33-7.252c0-.396.019-.773-.005-1.148a.804.804 0 0 0-.81-.743 387.8 387.8 0 0 0-3.69-.001c-.408.002-.762.284-.801.685-.04.396-.009.799-.009 1.207h5.315z" fill="#fff"/>
</svg>
