<svg width="36" height="40" viewBox="0 0 36 40" fill="none" xmlns="http://www.w3.org/2000/svg">
<path d="M28.5 6.66634H27V4.99967C27 4.55765 26.842 4.13372 26.5607 3.82116C26.2794 3.5086 25.8978 3.33301 25.5 3.33301C25.1022 3.33301 24.7206 3.5086 24.4393 3.82116C24.158 4.13372 24 4.55765 24 4.99967V6.66634H12V4.99967C12 4.55765 11.842 4.13372 11.5607 3.82116C11.2794 3.5086 10.8978 3.33301 10.5 3.33301C10.1022 3.33301 9.72064 3.5086 9.43934 3.82116C9.15804 4.13372 9 4.55765 9 4.99967V6.66634H7.5C6.30653 6.66634 5.16193 7.19313 4.31802 8.13081C3.47411 9.06849 3 10.3403 3 11.6663V31.6663C3 32.9924 3.47411 34.2642 4.31802 35.2019C5.16193 36.1396 6.30653 36.6663 7.5 36.6663H28.5C29.6935 36.6663 30.8381 36.1396 31.682 35.2019C32.5259 34.2642 33 32.9924 33 31.6663V11.6663C33 10.3403 32.5259 9.06849 31.682 8.13081C30.8381 7.19313 29.6935 6.66634 28.5 6.66634ZM30 31.6663C30 32.1084 29.842 32.5323 29.5607 32.8449C29.2794 33.1574 28.8978 33.333 28.5 33.333H7.5C7.10218 33.333 6.72064 33.1574 6.43934 32.8449C6.15804 32.5323 6 32.1084 6 31.6663V16.6663H30V31.6663Z" fill="#272727"/>
<path d="M15.6741 20.5455V30H13.6752V22.4428H13.6198L11.4547 23.8001V22.0273L13.7952 20.5455H15.6741ZM21.6282 30.2077C20.8342 30.2047 20.151 30.0092 19.5785 29.6214C19.0092 29.2337 18.5706 28.672 18.2628 27.9364C17.9581 27.2009 17.8073 26.3161 17.8104 25.282C17.8104 24.2509 17.9628 23.3723 18.2675 22.646C18.5752 21.9196 19.0138 21.3672 19.5831 20.9886C20.1556 20.607 20.8373 20.4162 21.6282 20.4162C22.4192 20.4162 23.0994 20.607 23.6687 20.9886C24.2412 21.3703 24.6813 21.9242 24.989 22.6506C25.2968 23.3738 25.4492 24.2509 25.4461 25.282C25.4461 26.3191 25.2922 27.2055 24.9844 27.9411C24.6797 28.6766 24.2427 29.2383 23.6733 29.6261C23.104 30.0138 22.4223 30.2077 21.6282 30.2077ZM21.6282 28.5504C22.1699 28.5504 22.6023 28.2781 22.9255 27.7333C23.2486 27.1886 23.4087 26.3714 23.4056 25.282C23.4056 24.5649 23.3317 23.9678 23.184 23.4908C23.0394 23.0137 22.8331 22.6552 22.5654 22.4151C22.3007 22.1751 21.9883 22.055 21.6282 22.055C21.0897 22.055 20.6588 22.3243 20.3356 22.8629C20.0125 23.4015 19.8494 24.2079 19.8463 25.282C19.8463 26.0083 19.9186 26.6146 20.0633 27.1009C20.211 27.584 20.4187 27.9472 20.6865 28.1903C20.9542 28.4304 21.2682 28.5504 21.6282 28.5504Z" fill="#272727"/>
</svg>
