<svg width="72" height="50" viewBox="0 0 72 50" fill="none" xmlns="http://www.w3.org/2000/svg">
<g id="Group 6481">
<path id="Vector" d="M70.1817 42.2906L38.9909 18.8906L46.7878 13.0406C47.0154 12.8707 47.2003 12.65 47.3278 12.3961C47.4552 12.1423 47.5218 11.8622 47.5221 11.5781C47.5221 8.50741 46.3023 5.56247 44.131 3.39115C41.9596 1.21984 39.0147 0 35.944 0C32.8733 0 29.9283 1.21984 27.757 3.39115C25.5857 5.56247 24.3659 8.50741 24.3659 11.5781C24.3659 12.063 24.5585 12.528 24.9013 12.8708C25.2442 13.2136 25.7091 13.4062 26.194 13.4062C26.6788 13.4062 27.1438 13.2136 27.4867 12.8708C27.8295 12.528 28.0221 12.063 28.0221 11.5781C28.0353 9.56218 28.8165 7.62707 30.2067 6.16705C31.5968 4.70704 33.4913 3.83195 35.5042 3.72008C37.5171 3.60821 39.4969 4.26797 41.0403 5.56495C42.5837 6.86193 43.5746 8.69855 43.811 10.7006L34.8776 17.4038L34.8136 17.4525L1.70626 42.2906C0.990659 42.8273 0.461884 43.5754 0.194713 44.4291C-0.0724577 45.2827 -0.0645024 46.1988 0.217454 47.0477C0.499411 47.8966 1.0411 48.6354 1.76592 49.1596C2.49073 49.6838 3.362 49.9668 4.2565 49.9688H67.6315C68.5265 49.9681 69.3987 49.686 70.1245 49.1622C70.8503 48.6385 71.3929 47.8998 71.6757 47.0506C71.9584 46.2014 71.9668 45.2848 71.6998 44.4305C71.4328 43.5763 70.9038 42.8276 70.1878 42.2906H70.1817ZM68.2013 45.8951C68.1681 46.0192 68.0935 46.1282 67.9899 46.2041C67.8863 46.28 67.7598 46.3183 67.6315 46.3125H4.2565C4.12886 46.3119 4.00464 46.2712 3.90138 46.1961C3.79811 46.1211 3.72101 46.0156 3.68095 45.8944C3.64089 45.7732 3.6399 45.6425 3.67811 45.5207C3.71632 45.3989 3.79181 45.2922 3.89392 45.2156L35.944 21.1758L67.988 45.2156C68.0963 45.287 68.1767 45.3936 68.2155 45.5174C68.2544 45.6412 68.2493 45.7746 68.2013 45.8951Z" fill="#DCDCDC"/>
</g>
</svg>
