<svg width="46" height="46" viewBox="0 0 46 46" fill="none" xmlns="http://www.w3.org/2000/svg">
<path fill-rule="evenodd" clip-rule="evenodd" d="M46 23C46 35.7023 35.7023 46 23 46C10.2977 46 0 35.7023 0 23C0 10.2977 10.2977 0 23 0C35.7023 0 46 10.2977 46 23Z" fill="#8DC1FF"/>
<path fill-rule="evenodd" clip-rule="evenodd" d="M34 35C34 36.6568 29.075 38 23 38C16.925 38 12 36.6568 12 35C12 33.3432 16.925 32 23 32C29.075 32 34 33.3432 34 35Z" fill="#579FF5"/>
<path d="M21.3503 9.83231C22.0867 8.56798 23.9133 8.56798 24.6497 9.83231L27.7491 15.1537C28.0189 15.6168 28.4709 15.9453 28.9947 16.0587L35.0134 17.362C36.4435 17.6717 37.0079 19.4088 36.033 20.4999L31.9298 25.092C31.5727 25.4917 31.4001 26.0231 31.454 26.5563L32.0744 32.6832C32.2218 34.1389 30.7441 35.2126 29.4052 34.6225L23.7698 32.1392C23.2794 31.9231 22.7206 31.9231 22.2302 32.1392L16.5948 34.6225C15.2559 35.2126 13.7782 34.1389 13.9256 32.6832L14.546 26.5563C14.5999 26.0231 14.4273 25.4917 14.0702 25.092L9.967 20.4999C8.99212 19.4088 9.55654 17.6717 10.9866 17.362L17.0053 16.0587C17.5291 15.9453 17.9811 15.6168 18.2509 15.1537L21.3503 9.83231Z" fill="white"/>
</svg>
