<svg width="58" height="50" viewBox="0 0 58 50" fill="none" xmlns="http://www.w3.org/2000/svg">
<g id="Group 6127">
<path id="Vector" d="M51.8885 1.97417L3.40189 20.1578C2.94595 20.3285 2.55155 20.6318 2.26949 21.0286C1.98743 21.4254 1.83062 21.8975 1.81927 22.3842C1.80791 22.8709 1.94254 23.3499 2.20579 23.7594C2.46905 24.1689 2.84889 24.4902 3.29637 24.6819L14.7837 29.6051L38.9202 13.5124C38.9819 13.4619 39.0528 13.4241 39.1291 13.401C39.2054 13.3779 39.2854 13.3701 39.3647 13.378C39.444 13.3859 39.521 13.4093 39.5912 13.447C39.6615 13.4846 39.7236 13.5357 39.7741 13.5973C39.8246 13.659 39.8624 13.7299 39.8855 13.8062C39.9086 13.8825 39.9164 13.9625 39.9085 14.0418C39.9006 14.1211 39.8772 14.1981 39.8396 14.2683C39.8019 14.3386 39.7508 14.4007 39.6892 14.4512L22.1023 32.0381V44.235L29.4172 36.92L41.061 46.6231C41.378 46.8874 41.757 47.0668 42.1624 47.1446C42.5677 47.2224 42.9862 47.196 43.3786 47.0679C43.771 46.9398 44.1244 46.7141 44.4057 46.4121C44.687 46.1101 44.8871 45.7416 44.9871 45.3411L55.1111 4.85479C55.2202 4.42298 55.2089 3.96956 55.0786 3.54369C54.9483 3.11782 54.7038 2.73577 54.3718 2.43896C54.0397 2.14215 53.6327 1.94193 53.195 1.85999C52.7572 1.77806 52.3054 1.81755 51.8885 1.97417Z" fill="#FEFEFE"/>
<path id="Vector_2" d="M42.6135 49.0118C41.6194 49.011 40.6573 48.6607 39.8954 48.0221L29.5264 39.3814L23.3855 45.5211C23.1311 45.7752 22.8071 45.9482 22.4544 46.0183C22.1016 46.0884 21.7361 46.0523 21.4038 45.9148C21.0716 45.7772 20.7876 45.5443 20.5876 45.2454C20.3877 44.9465 20.2808 44.595 20.2805 44.2354V32.0434C20.2804 31.8045 20.3274 31.5678 20.4187 31.347C20.5101 31.1262 20.6441 30.9256 20.813 30.7566L29.7665 21.803L15.7928 31.118C15.5412 31.2858 15.2517 31.3881 14.9506 31.4159C14.6494 31.4436 14.3461 31.3958 14.0681 31.2769L2.58079 26.3538C1.7995 26.0191 1.13629 25.4582 0.676539 24.7433C0.216791 24.0284 -0.0184412 23.1922 0.00112905 22.3425C0.0206993 21.4927 0.294176 20.6683 0.786348 19.9753C1.27852 19.2824 1.96685 18.7526 2.76272 18.4542L51.2505 0.270533C51.9774 -0.00170148 52.7648 -0.0701054 53.5277 0.0727144C54.2906 0.215534 55 0.564145 55.5792 1.08087C56.1583 1.5976 56.5852 2.26278 56.8138 3.00454C57.0423 3.74629 57.0638 4.53641 56.8759 5.28948L46.7519 45.7843C46.5791 46.4844 46.2304 47.1287 45.7388 47.6561C45.2472 48.1836 44.629 48.5768 43.9428 48.7983C43.5136 48.9387 43.065 49.0107 42.6135 49.0118ZM29.4148 35.0999C29.8403 35.1001 30.2524 35.2495 30.5792 35.522L42.2229 45.2252C42.3032 45.2931 42.3996 45.3392 42.5028 45.3592C42.606 45.3791 42.7126 45.3722 42.8124 45.3392C42.9128 45.3077 43.0032 45.2507 43.0749 45.1737C43.1465 45.0967 43.1969 45.0024 43.2212 44.9001L53.3439 4.40649C53.3708 4.29729 53.3675 4.18282 53.3342 4.07539C53.3009 3.96796 53.2389 3.87164 53.155 3.7968C53.071 3.72196 52.9683 3.67142 52.8577 3.65062C52.7472 3.62982 52.6331 3.63955 52.5277 3.67876L4.0399 21.86C3.92415 21.9036 3.82409 21.9808 3.75258 22.0817C3.68108 22.1827 3.64141 22.3027 3.63867 22.4263C3.63593 22.55 3.67025 22.6716 3.73721 22.7756C3.80418 22.8796 3.90072 22.9612 4.01443 23.0098L14.5945 27.5436L37.9135 11.998C38.4146 11.6555 39.0258 11.5132 39.6265 11.5993C40.2273 11.6853 40.774 11.9935 41.1587 12.4629C41.5434 12.9323 41.7382 13.5288 41.7046 14.1348C41.671 14.7407 41.4115 15.3121 40.9773 15.7361L23.9192 32.7967V39.8423L28.1279 35.6336C28.2969 35.4645 28.4975 35.3303 28.7183 35.2387C28.9391 35.1471 29.1758 35.1 29.4148 35.0999Z" fill="#AC6BFF"/>
</g>
</svg>
