<svg width="40" height="40" viewBox="0 0 40 40" fill="none" xmlns="http://www.w3.org/2000/svg">
<path fill-rule="evenodd" clip-rule="evenodd" d="M20 40C8.95455 40 0 31.0455 0 20C0 8.95455 8.95455 0 20 0C31.0455 0 40 8.95455 40 20C40 31.0455 31.0455 40 20 40Z" fill="#A0DFD4"/>
<g clip-path="url(#clip0_1040_2575)">
<path fill-rule="evenodd" clip-rule="evenodd" d="M22.1915 8.58855C21.091 7.13711 18.909 7.13711 17.8084 8.58855L17.141 9.46873C16.5405 10.2607 15.5595 10.6671 14.5749 10.5317L13.4806 10.3812C11.676 10.1331 10.1331 11.676 10.3812 13.4805L10.5317 14.5748C10.6671 15.5595 10.2607 16.5405 9.46876 17.141L8.58858 17.8084C7.13714 18.909 7.13714 21.091 8.58858 22.1915L9.46876 22.8589C10.2607 23.4594 10.6671 24.4405 10.5317 25.4251L10.3812 26.5194C10.1331 28.3239 11.676 29.8668 13.4806 29.6187L14.5749 29.4683C15.5595 29.3329 16.5405 29.7393 17.1411 30.5312L17.8084 31.4114C18.909 32.8628 21.091 32.8628 22.1915 31.4114L22.8589 30.5312C23.4595 29.7393 24.4405 29.3329 25.4251 29.4683L26.5194 29.6187C28.324 29.8668 29.8669 28.3239 29.6188 26.5194L29.4683 25.4251C29.3329 24.4405 29.7393 23.4594 30.5312 22.8589L31.4114 22.1915C32.8629 21.091 32.8629 18.909 31.4114 17.8084L30.5312 17.141C29.7393 16.5405 29.3329 15.5595 29.4683 14.5748L29.6188 13.4805C29.8669 11.676 28.324 10.1331 26.5194 10.3812L25.4251 10.5317C24.4405 10.6671 23.4594 10.2607 22.8589 9.46873L22.1915 8.58855ZM20 24.25C22.3472 24.25 24.25 22.3472 24.25 20C24.25 17.6528 22.3472 15.75 20 15.75C17.6528 15.75 15.75 17.6528 15.75 20C15.75 22.3472 17.6528 24.25 20 24.25Z" fill="white"/>
</g>
<defs>
<clipPath id="clip0_1040_2575">
<rect width="26" height="26" fill="white" transform="translate(7 7)"/>
</clipPath>
</defs>
</svg>
