<svg width="31" height="68" viewBox="0 0 31 68" fill="none" xmlns="http://www.w3.org/2000/svg">
<g filter="url(#filter0_d_1569_22997)">
<path d="M21.313 58.1525C20.0113 58.8711 18.5692 59.3429 17.0699 59.5408C15.5706 59.7386 14.044 59.6585 12.5783 59.3052C11.1126 58.9518 9.73681 58.3321 8.53059 57.482C7.32436 56.6318 6.31159 55.5681 5.55083 54.3523C4.79006 53.1365 4.2964 51.7927 4.09838 50.3986C3.90036 49.0045 4.00192 47.5878 4.39717 46.2304C4.79243 44.873 5.47354 43.6018 6.40114 42.4903C7.32873 41.3789 8.4844 40.4492 9.80133 39.755V5.32353C9.79918 4.43312 10.0381 3.5565 10.4962 2.77426C10.9543 1.99201 11.6168 1.32925 12.4228 0.846895C13.2288 0.364542 14.1525 0.078079 15.1089 0.0138419C16.0653 -0.0503952 17.0238 0.109655 17.8962 0.479278C17.7376 3.97817 17.3316 7.4636 16.6808 10.9131V10.6469C16.6808 10.3645 16.56 10.0937 16.345 9.89405C16.13 9.69439 15.8383 9.58222 15.5342 9.58222C15.2301 9.58222 14.9385 9.69439 14.7235 9.89405C14.5085 10.0937 14.3877 10.3645 14.3877 10.6469V22.3157C13.0347 29.0976 11.9684 35.9754 12.7022 43.1726C11.5076 43.6877 10.4939 44.5057 9.77791 45.5322C9.06187 46.5587 8.67255 47.7521 8.65475 48.975C8.65475 50.6692 9.37955 52.2941 10.6697 53.4921C11.9599 54.69 13.7097 55.3631 15.5342 55.3631C16.0551 55.3649 16.5744 55.3113 17.0821 55.2034C18.1697 56.5325 19.6348 57.5538 21.313 58.1525Z" fill="#CFEAF5"/>
<path d="M26.9994 48.9749C27.0002 47.1059 26.4707 45.2697 25.4643 43.6511C24.4579 42.0325 23.0101 40.6887 21.2665 39.7549V5.32339C21.2665 3.91109 20.6647 2.55617 19.5925 1.55446C19.1001 1.10694 18.5259 0.744275 17.8967 0.483398C17.3682 15.7742 10.1218 30.4347 13.2405 46.8456C14.1417 51.0287 16.4704 56.5096 21.317 58.1556C23.0451 57.2194 24.4791 55.8793 25.476 54.2685C26.473 52.6578 26.9982 50.8327 26.9994 48.9749Z" fill="#DFF1F9"/>
<path d="M17.0817 55.2037C16.574 55.3117 16.0546 55.3653 15.5338 55.3634C13.7092 55.3634 11.9594 54.6904 10.6693 53.4924C9.3791 52.2944 8.6543 50.6696 8.6543 48.9754C8.66004 47.9821 8.91939 47.0042 9.41104 46.1221C9.77795 46.3882 10.1449 46.6544 10.5118 46.9099C10.8787 47.1654 11.2341 47.421 11.5895 47.6658C12.3348 48.1769 13.0916 48.6666 13.8483 49.1138C14.4976 51.3168 15.5952 53.384 17.0817 55.2037Z" fill="#F1665F"/>
<path d="M19.2949 51.6366C19.0426 51.562 18.8019 51.4875 18.5611 51.3917C18.2286 51.2852 17.8846 51.1574 17.5521 51.019C17.254 50.8913 16.9444 50.7529 16.6463 50.6145L15.7864 50.1992C15.1328 49.8586 14.4907 49.4966 13.8486 49.1133C14.498 51.3163 15.5955 53.3835 17.082 55.2032C17.3321 55.149 17.5787 55.0815 17.8204 55.0009C18.5898 54.0026 19.1307 52.8685 19.4096 51.6685C19.3706 51.6578 19.3327 51.6493 19.2949 51.6366Z" fill="#FF6E67"/>
<path d="M21.4963 52.1471C20.9182 52.0595 20.3474 51.935 19.7878 51.7744C19.664 51.7414 19.5356 51.7052 19.4095 51.668C19.1306 52.8679 18.5897 54.0021 17.8203 55.0004C19.3715 54.4846 20.6745 53.4732 21.4963 52.1471Z" fill="#FF7F79"/>
<path d="M16.6809 10.6467V10.9129C16.0044 14.7031 15.1444 18.4933 14.3877 22.3155V10.6467C14.3877 10.3643 14.5085 10.0935 14.7235 9.89387C14.9385 9.6942 15.2302 9.58203 15.5343 9.58203C15.8384 9.58203 16.13 9.6942 16.345 9.89387C16.5601 10.0935 16.6809 10.3643 16.6809 10.6467Z" fill="#E77973"/>
<path d="M13.8484 49.1127C13.0917 48.6656 12.3349 48.1758 11.5896 47.6648C11.2342 47.4199 10.8673 47.1644 10.5119 46.9089C10.1564 46.6534 9.77804 46.3872 9.41113 46.121C10.1092 44.8152 11.2717 43.7734 12.7018 43.1719C12.8279 44.3856 12.9999 45.61 13.2407 46.845C13.4012 47.569 13.5962 48.3355 13.8484 49.1127Z" fill="#F1665F"/>
<path d="M17.583 42.9062C19.3262 45.521 19.9761 48.6386 19.4095 51.6685C19.5356 51.7058 19.6641 51.742 19.7879 51.775C20.3474 51.9355 20.9183 52.06 21.4963 52.1476C22.0997 51.1843 22.4163 50.0893 22.4136 48.9749C22.4113 47.6171 21.9412 46.2956 21.072 45.2036C20.2029 44.1117 18.9803 43.3067 17.583 42.9062Z" fill="#FF7F79"/>
<path d="M17.5831 42.9065C17.2806 42.813 16.9714 42.739 16.6579 42.685C16.6712 42.6537 16.6789 42.6206 16.6808 42.587V10.9131C16.0043 14.7033 15.1444 18.4935 14.3876 22.3157V42.587C14.3898 42.6199 14.3975 42.6523 14.4106 42.6829C13.8185 42.7682 13.243 42.9332 12.7021 43.1726C12.8283 44.3863 13.0003 45.6107 13.241 46.8457C13.4016 47.5697 13.5965 48.3363 13.8487 49.1135C14.4908 49.4968 15.1329 49.8588 15.7865 50.1995L16.6464 50.6147C16.9445 50.7531 17.2541 50.8915 17.5522 51.0192C17.8847 51.1576 18.2287 51.2854 18.5612 51.3919C18.802 51.4877 19.0427 51.5622 19.295 51.6368C19.3328 51.6495 19.3707 51.658 19.4096 51.6687C19.9763 48.6388 19.3264 45.5212 17.5831 42.9065Z" fill="#FF6E67"/>
<path d="M13.2415 38.3283C13.2415 38.6107 13.1207 38.8815 12.9057 39.0812C12.6906 39.2808 12.399 39.393 12.0949 39.393H9.80176V37.2637H12.0949C12.399 37.2637 12.6906 37.3758 12.9057 37.5755C13.1207 37.7752 13.2415 38.046 13.2415 38.3283Z" fill="#B3CCDA"/>
<path d="M13.2415 34.0696C13.2415 34.3519 13.1207 34.6227 12.9057 34.8224C12.6906 35.0221 12.399 35.1342 12.0949 35.1342H9.80176V33.0049H12.0949C12.399 33.0049 12.6906 33.1171 12.9057 33.3167C13.1207 33.5164 13.2415 33.7872 13.2415 34.0696Z" fill="#B3CCDA"/>
<path d="M13.2415 29.8108C13.2415 30.0931 13.1207 30.3639 12.9057 30.5636C12.6906 30.7633 12.399 30.8754 12.0949 30.8754H9.80176V28.7461H12.0949C12.399 28.7461 12.6906 28.8583 12.9057 29.0579C13.1207 29.2576 13.2415 29.5284 13.2415 29.8108Z" fill="#B3CCDA"/>
<path d="M13.2415 25.552C13.2415 25.8343 13.1207 26.1051 12.9057 26.3048C12.6906 26.5045 12.399 26.6166 12.0949 26.6166H9.80176V24.4873H12.0949C12.399 24.4873 12.6906 24.5995 12.9057 24.7991C13.1207 24.9988 13.2415 25.2696 13.2415 25.552Z" fill="#B3CCDA"/>
<path d="M13.2415 21.2932C13.2415 21.5756 13.1207 21.8464 12.9057 22.046C12.6906 22.2457 12.399 22.3579 12.0949 22.3579H9.80176V20.2285H12.0949C12.399 20.2285 12.6906 20.3407 12.9057 20.5403C13.1207 20.74 13.2415 21.0108 13.2415 21.2932Z" fill="#B3CCDA"/>
<path d="M13.2415 17.0354C13.2415 17.3177 13.1207 17.5885 12.9057 17.7882C12.6906 17.9879 12.399 18.1 12.0949 18.1H9.80176V15.9707H12.0949C12.399 15.9707 12.6906 16.0829 12.9057 16.2825C13.1207 16.4822 13.2415 16.753 13.2415 17.0354Z" fill="#B3CCDA"/>
<path d="M13.2415 12.7766C13.2415 13.059 13.1207 13.3298 12.9057 13.5294C12.6906 13.7291 12.399 13.8413 12.0949 13.8413H9.80176V11.7119H12.0949C12.399 11.7119 12.6906 11.8241 12.9057 12.0237C13.1207 12.2234 13.2415 12.4942 13.2415 12.7766Z" fill="#B3CCDA"/>
<path d="M13.2415 8.5178C13.2415 8.80016 13.1207 9.07097 12.9057 9.27063C12.6906 9.4703 12.399 9.58247 12.0949 9.58247H9.80176V7.45312H12.0949C12.399 7.45312 12.6906 7.5653 12.9057 7.76496C13.1207 7.96462 13.2415 8.23543 13.2415 8.5178Z" fill="#B3CCDA"/>
</g>
<defs>
<filter id="filter0_d_1569_22997" x="0" y="0" width="30.9995" height="67.6465" filterUnits="userSpaceOnUse" color-interpolation-filters="sRGB">
<feFlood flood-opacity="0" result="BackgroundImageFix"/>
<feColorMatrix in="SourceAlpha" type="matrix" values="0 0 0 0 0 0 0 0 0 0 0 0 0 0 0 0 0 0 127 0" result="hardAlpha"/>
<feOffset dy="4"/>
<feGaussianBlur stdDeviation="2"/>
<feComposite in2="hardAlpha" operator="out"/>
<feColorMatrix type="matrix" values="0 0 0 0 0 0 0 0 0 0 0 0 0 0 0 0 0 0 0.25 0"/>
<feBlend mode="normal" in2="BackgroundImageFix" result="effect1_dropShadow_1569_22997"/>
<feBlend mode="normal" in="SourceGraphic" in2="effect1_dropShadow_1569_22997" result="shape"/>
</filter>
</defs>
</svg>
