<svg width="251" height="251" viewBox="0 0 251 251" fill="none" xmlns="http://www.w3.org/2000/svg">
<path d="M123.332 234.846C182.262 234.846 230.035 230.021 230.035 224.069C230.035 218.117 182.262 213.292 123.332 213.292C64.4021 213.292 16.6299 218.117 16.6299 224.069C16.6299 230.021 64.4021 234.846 123.332 234.846Z" fill="#F7EFFF"/>
<path d="M70.8867 188.535C67.3322 188.558 69.0302 200.082 69.0302 200.082C69.0302 200.082 63.7494 187.618 59.6912 187.166C55.633 186.719 59.1988 197.586 59.1988 197.586C59.1988 197.586 48.6486 185.768 45.9204 186.464C43.1923 187.16 48.1901 193.748 48.1901 193.748C48.1901 193.748 30.695 184.947 29.1499 188.286C27.6047 191.626 45.6318 199.278 45.6318 199.278C45.6318 199.278 37.3738 199.731 38.6077 202.261C39.8416 204.791 55.6783 205.193 55.6783 205.193C55.6783 205.193 45.0828 209.506 48.0486 212.313C51.0144 215.12 63.9362 211.079 63.9362 211.079C63.9362 211.079 54.0539 217.243 56.3348 219.965C58.6158 222.688 79.5182 211.611 79.5182 211.611C79.5182 211.611 74.4412 188.501 70.8924 188.53L70.8867 188.535Z" fill="#C5C0C8"/>
<path d="M72.013 197.801L73.0544 201.831C73.394 203.178 73.7732 204.514 74.1355 205.849L75.092 209.342L71.8149 207.774L66.4605 205.261C65.8379 203.614 65.2096 201.967 64.5418 200.337L63.5116 197.846C63.1494 197.025 62.8041 196.193 62.4193 195.378C62.6626 196.244 62.9456 197.099 63.2117 197.959L64.0663 200.512C64.5587 201.972 65.0851 203.421 65.6172 204.865L59.1648 201.836L55.6329 200.223C54.9367 199.057 54.2406 197.891 53.5048 196.754L52.3671 194.993C51.9652 194.422 51.586 193.833 51.1672 193.267C51.4558 193.907 51.7841 194.524 52.0898 195.152L53.0746 197.003C53.567 197.931 54.0877 198.842 54.6141 199.754L46.4581 196.029C42.2074 194.122 37.9567 192.22 33.6721 190.386C37.8435 192.463 42.0433 194.478 46.2486 196.482L54.45 200.331C53.3802 200.529 52.3048 200.733 51.2408 200.97C49.871 201.265 48.5013 201.576 47.1486 201.95C48.5523 201.836 49.939 201.655 51.3257 201.463C52.7124 201.276 54.0877 201.044 55.4631 200.806L58.8987 202.419L65.4247 205.397C63.9531 205.94 62.4872 206.489 61.0326 207.078C59.3572 207.745 57.6875 208.419 56.0404 209.166C57.7781 208.674 59.493 208.119 61.2024 207.547C62.9004 206.993 64.5814 206.387 66.2624 205.781L71.6054 208.221L74.9222 209.704L71.6281 211.255C70.3716 211.855 69.0981 212.432 67.8529 213.055C65.3455 214.271 62.8381 215.5 60.3647 216.79C62.9513 215.743 65.5096 214.628 68.0623 213.507C69.3414 212.958 70.6036 212.364 71.8771 211.792L75.6863 210.066L75.7089 210.055L77.9786 211.068C80.1124 211.996 82.2406 212.947 84.3857 213.858C82.3028 212.811 80.203 211.804 78.1144 210.779L75.8731 209.704V209.681L74.7128 205.68C74.3222 204.349 73.9543 203.008 73.5412 201.684L72.3243 197.699C71.8941 196.38 71.4922 195.05 71.0451 193.737C71.3507 195.095 71.696 196.437 72.0186 197.79L72.013 197.801Z" fill="#FF6666"/>
<g opacity="0.1">
<path d="M46.2714 192.826C41.6924 190.658 30.3781 185.637 29.1442 188.292C28.6688 189.322 30.0611 190.771 32.2176 192.271C36.2701 191.535 41.1208 191.705 46.2714 192.82V192.826Z" fill="#9B58DF"/>
<path d="M59.1593 197.461C67.4512 201.684 73.6489 207.525 76.3883 213.219C78.2844 212.268 79.5183 211.617 79.5183 211.617C79.5183 211.617 74.4413 188.507 70.8925 188.535C67.338 188.558 69.036 200.082 69.036 200.082C69.036 200.082 63.7552 187.618 59.697 187.166C55.8935 186.747 58.78 196.256 59.1593 197.461Z" fill="#9B58DF"/>
<path d="M47.7712 193.177C50.4823 193.856 53.267 194.79 56.0461 195.995C57.0649 196.437 58.0554 196.906 59.0233 197.393C57.6479 195.871 48.4447 185.83 45.926 186.469C43.696 187.035 46.6392 191.558 47.7768 193.177H47.7712Z" fill="#9B58DF"/>
</g>
<path d="M196.731 189.962C197.093 186.43 185.456 186.849 185.456 186.849C185.456 186.849 198.423 182.966 199.312 178.976C200.201 174.991 189.005 177.346 189.005 177.346C189.005 177.346 201.904 168.148 201.514 165.363C201.123 162.579 194.026 166.824 194.026 166.824C194.026 166.824 204.683 150.393 201.536 148.491C198.384 146.589 188.813 163.671 188.813 163.671C188.813 163.671 189.265 155.413 186.617 156.364C183.968 157.315 181.834 173.01 181.834 173.01C181.834 173.01 178.704 162.007 175.591 164.65C172.478 167.293 175.082 180.577 175.082 180.577C175.082 180.577 170.038 170.084 167.078 172.048C164.118 174.018 172.846 196.007 172.846 196.007C172.846 196.007 196.369 193.488 196.737 189.956L196.731 189.962Z" fill="#C5C0C8"/>
<path d="M187.398 190.069L183.277 190.664C181.902 190.85 180.532 191.088 179.162 191.297L175.591 191.863L177.51 188.779L180.594 183.73C182.298 183.289 184.007 182.847 185.7 182.36L188.286 181.613C189.141 181.341 190.007 181.087 190.856 180.798C189.967 180.945 189.09 181.138 188.207 181.302L185.575 181.874C184.07 182.202 182.575 182.57 181.075 182.938L184.794 176.853L186.781 173.519C188.015 172.959 189.249 172.393 190.465 171.782L192.339 170.842C192.956 170.508 193.578 170.191 194.184 169.84C193.516 170.061 192.865 170.316 192.209 170.554L190.262 171.329C189.282 171.719 188.32 172.138 187.358 172.557L191.948 164.854C194.309 160.841 196.663 156.822 198.955 152.764C196.431 156.681 193.969 160.637 191.518 164.594L186.792 172.319C186.713 171.233 186.628 170.146 186.509 169.059C186.362 167.667 186.209 166.275 185.983 164.882C185.943 166.286 185.971 167.69 186.011 169.088C186.045 170.486 186.13 171.878 186.209 173.27L184.228 176.508L180.555 182.666C180.176 181.143 179.791 179.627 179.366 178.115C178.885 176.378 178.398 174.646 177.838 172.925C178.138 174.708 178.5 176.474 178.879 178.234C179.247 179.983 179.666 181.721 180.079 183.458L177.068 188.507L175.229 191.643L174.046 188.201C173.587 186.883 173.151 185.558 172.67 184.251C171.736 181.624 170.786 178.998 169.772 176.4C170.531 179.089 171.357 181.749 172.195 184.409C172.602 185.745 173.05 187.064 173.48 188.388L174.782 192.362V192.384L173.531 194.529C172.376 196.55 171.199 198.559 170.055 200.591C171.323 198.638 172.552 196.657 173.802 194.693L175.116 192.582H175.144L179.247 191.869C180.611 191.626 181.987 191.405 183.345 191.139L187.437 190.369C188.796 190.086 190.16 189.831 191.518 189.532C190.137 189.684 188.762 189.882 187.386 190.058L187.398 190.069Z" fill="#A29EA7"/>
<g opacity="0.1">
<path d="M195.157 165.024C197.812 160.705 204.038 150.008 201.536 148.497C200.563 147.908 198.972 149.136 197.24 151.111C197.529 155.221 196.833 160.026 195.157 165.018V165.024Z" fill="#9B58DF"/>
<path d="M189.135 177.323C184.03 185.105 177.549 190.624 171.589 192.73C172.325 194.716 172.84 196.018 172.84 196.018C172.84 196.018 196.363 193.499 196.731 189.962C197.093 186.43 185.456 186.849 185.456 186.849C185.456 186.849 198.423 182.966 199.312 178.976C200.144 175.24 190.381 177.068 189.135 177.317V177.323Z" fill="#9B58DF"/>
<path d="M194.643 166.473C193.669 169.093 192.441 171.759 190.935 174.385C190.386 175.348 189.815 176.282 189.22 177.187C190.884 175.987 201.87 167.939 201.508 165.358C201.185 163.077 196.374 165.511 194.637 166.467L194.643 166.473Z" fill="#9B58DF"/>
</g>
<path d="M39.7455 154.366C40.3851 155.843 41.1888 157.258 41.9982 158.645C44.0358 162.109 46.4017 165.38 49.0336 168.414C52.6277 172.563 56.7425 176.264 61.3214 179.298C66.7946 182.926 72.9188 185.536 79.3372 186.911C87.2838 188.62 95.5191 188.416 103.471 186.894C104.626 186.673 105.781 186.424 106.924 186.147C107.281 186.062 107.1 185.519 106.743 185.603C98.6152 187.545 90.1308 188.19 81.8559 186.809C75.3073 185.717 69.019 183.362 63.3477 179.91C58.599 177.017 54.32 173.395 50.5731 169.291C47.7488 166.201 45.2244 162.839 43.0396 159.267C42.0378 157.632 41.1492 155.871 40.3115 154.247C40.3002 154.224 40.2889 154.196 40.2776 154.173C40.1304 153.84 39.5927 154.015 39.7342 154.355L39.7455 154.366Z" fill="#CB98FF"/>
<path d="M42.6886 159.783C41.2849 158.922 40.3227 157.875 39.4794 156.783C38.653 155.679 37.9965 154.507 37.4814 153.279C36.9664 152.051 36.6041 150.755 36.406 149.391C36.2306 148.021 36.1683 146.6 36.5588 144.999C37.9682 145.859 38.9304 146.9 39.7737 147.998C40.6001 149.102 41.2566 150.274 41.7604 151.508C42.2698 152.742 42.632 154.032 42.8301 155.396C43.0056 156.766 43.0678 158.186 42.683 159.788L42.6886 159.783Z" fill="#CB98FF"/>
<path d="M37.0852 146.272C37.5663 147.257 38.0191 148.253 38.4606 149.255C38.9077 150.257 39.3209 151.264 39.7511 152.272C40.1586 153.285 40.5774 154.298 40.9736 155.317C41.3642 156.336 41.7547 157.36 42.1056 158.401C41.6189 157.417 41.1717 156.42 40.7302 155.419C40.2888 154.417 39.8699 153.409 39.4398 152.402C39.0322 151.383 38.6134 150.376 38.2229 149.357C37.8267 148.338 37.4418 147.314 37.0852 146.278V146.272Z" fill="#9B58DF"/>
<path opacity="0.1" d="M39.7794 147.998C38.936 146.906 37.9738 145.859 36.5645 144.999C36.5136 145.208 36.4739 145.412 36.4343 145.616C37.2777 146.295 37.9455 147.053 38.5455 147.834C39.3719 148.938 40.0284 150.11 40.5322 151.344C41.0416 152.577 41.4038 153.868 41.6019 155.232C41.7547 156.421 41.817 157.649 41.5793 159.001C41.9189 159.273 42.2811 159.539 42.683 159.788C43.0678 158.186 43.0056 156.766 42.8301 155.396C42.632 154.032 42.2698 152.742 41.7604 151.508C41.251 150.274 40.5944 149.102 39.7737 147.998H39.7794Z" fill="#9B58DF"/>
<path d="M45.6205 164.022C44.7319 162.635 44.3244 161.277 44.0414 159.924C43.781 158.571 43.6961 157.23 43.7754 155.9C43.8489 154.57 44.0867 153.245 44.5055 151.932C44.947 150.625 45.5073 149.317 46.5601 148.044C47.4544 149.43 47.8619 150.794 48.1505 152.147C48.4109 153.5 48.4958 154.841 48.4109 156.171C48.3317 157.502 48.0939 158.826 47.6751 160.139C47.2336 161.447 46.6733 162.754 45.6262 164.028L45.6205 164.022Z" fill="#CB98FF"/>
<path d="M46.4809 149.419C46.4866 150.517 46.4583 151.609 46.4187 152.702C46.3847 153.794 46.3168 154.887 46.2659 155.979C46.1866 157.071 46.1244 158.164 46.0338 159.25C45.9432 160.343 45.847 161.43 45.7112 162.516C45.7055 161.418 45.7338 160.326 45.7734 159.234C45.8074 158.141 45.8753 157.049 45.9263 155.956C46.0055 154.864 46.0678 153.772 46.1583 152.685C46.2489 151.593 46.3451 150.506 46.4809 149.419Z" fill="#9B58DF"/>
<path opacity="0.1" d="M48.1448 152.147C47.8618 150.794 47.4543 149.436 46.5543 148.044C46.4185 148.208 46.2883 148.378 46.1694 148.542C46.6336 149.521 46.8996 150.494 47.1033 151.457C47.3637 152.809 47.4486 154.151 47.3637 155.481C47.2845 156.811 47.0467 158.135 46.6279 159.449C46.243 160.586 45.7676 161.718 44.9639 162.833C45.1506 163.229 45.3601 163.626 45.6148 164.022C46.6619 162.748 47.2222 161.447 47.6637 160.133C48.0825 158.82 48.3202 157.502 48.3995 156.166C48.4787 154.836 48.3995 153.494 48.1391 152.142L48.1448 152.147Z" fill="#9B58DF"/>
<path d="M45.5244 163.75C44.0019 164.384 42.5925 164.543 41.2115 164.588C39.8361 164.605 38.5004 164.452 37.2042 164.146C35.9081 163.841 34.6459 163.371 33.429 162.731C32.2178 162.069 31.0348 161.283 29.9651 160.026C31.4876 159.386 32.9026 159.222 34.2837 159.183C35.659 159.166 36.9948 159.319 38.2909 159.635C39.5871 159.947 40.8493 160.417 42.0662 161.056C43.2774 161.718 44.4603 162.505 45.5357 163.756L45.5244 163.75Z" fill="#CB98FF"/>
<path d="M31.3008 160.343C32.3818 160.53 33.4516 160.75 34.5213 160.982C35.5911 161.209 36.6551 161.469 37.7192 161.707C38.7776 161.973 39.8417 162.228 40.9001 162.511C41.9586 162.794 43.0113 163.077 44.0584 163.405C42.9774 163.218 41.9076 162.997 40.8379 162.771C39.7681 162.545 38.7041 162.284 37.64 162.047C36.5816 161.781 35.5175 161.526 34.4591 161.243C33.4006 160.96 32.3479 160.677 31.3008 160.349V160.343Z" fill="#9B58DF"/>
<path opacity="0.1" d="M34.2722 159.177C32.8912 159.216 31.4818 159.381 29.9536 160.02C30.0951 160.184 30.2366 160.337 30.3781 160.49C31.4252 160.207 32.427 160.111 33.4119 160.082C34.7873 160.066 36.123 160.218 37.4192 160.535C38.7153 160.847 39.9775 161.316 41.1944 161.956C42.2471 162.533 43.2773 163.201 44.2338 164.186C44.6526 164.073 45.0828 163.937 45.5186 163.756C44.4489 162.505 43.2659 161.718 42.049 161.056C40.8321 160.416 39.57 159.947 38.2738 159.635C36.9777 159.318 35.6419 159.166 34.2665 159.183L34.2722 159.177Z" fill="#9B58DF"/>
<path d="M51.954 171.052C50.856 169.818 50.2447 168.544 49.7466 167.248C49.2768 165.952 48.9825 164.645 48.8523 163.314C48.7165 161.99 48.7448 160.643 48.9485 159.284C49.1749 157.92 49.5315 156.545 50.3692 155.124C51.4729 156.353 52.0898 157.632 52.5823 158.922C53.052 160.218 53.3464 161.526 53.4709 162.856C53.6011 164.18 53.5728 165.527 53.369 166.886C53.1369 168.25 52.786 169.625 51.954 171.046V171.052Z" fill="#CB98FF"/>
<path d="M50.5051 156.494C50.6862 157.575 50.8221 158.662 50.9579 159.749C51.0938 160.835 51.2013 161.922 51.3202 163.009C51.4164 164.101 51.5239 165.188 51.6088 166.28C51.6881 167.373 51.7673 168.465 51.8013 169.557C51.6201 168.476 51.4786 167.39 51.3428 166.303C51.207 165.216 51.0994 164.129 50.9806 163.043C50.8843 161.95 50.7768 160.864 50.6976 159.771C50.6183 158.679 50.5391 157.587 50.5051 156.494Z" fill="#9B58DF"/>
<path opacity="0.1" d="M52.5824 158.922C52.09 157.632 51.4731 156.353 50.3694 155.124C50.2618 155.311 50.1599 155.492 50.0637 155.679C50.675 156.573 51.0938 157.49 51.4448 158.413C51.9145 159.709 52.2032 161.016 52.3334 162.347C52.4636 163.671 52.4353 165.018 52.2315 166.376C52.0334 167.559 51.7391 168.754 51.1221 169.976C51.3655 170.338 51.6372 170.695 51.9542 171.046C52.7862 169.625 53.1371 168.25 53.3692 166.886C53.5729 165.527 53.6012 164.18 53.471 162.856C53.3409 161.526 53.0522 160.218 52.5824 158.922Z" fill="#9B58DF"/>
<path d="M51.8125 170.797C50.4088 171.663 49.0391 172.042 47.6807 172.302C46.3223 172.54 44.9809 172.597 43.6508 172.495C42.3207 172.393 41.0019 172.133 39.7001 171.691C38.3983 171.227 37.1078 170.638 35.8513 169.563C37.255 168.691 38.6247 168.312 39.9831 168.052C41.3415 167.814 42.6829 167.757 44.013 167.865C45.3431 167.967 46.6619 168.233 47.9637 168.674C49.2655 169.139 50.556 169.727 51.8125 170.797Z" fill="#CB98FF"/>
<path d="M37.2324 169.665C38.3305 169.682 39.4228 169.733 40.5152 169.789C41.6076 169.846 42.7 169.931 43.7924 170.005C44.8791 170.101 45.9715 170.186 47.0638 170.299C48.1506 170.412 49.2429 170.531 50.324 170.684C49.226 170.672 48.1336 170.616 47.0412 170.559C45.9488 170.503 44.8564 170.418 43.7641 170.344C42.6773 170.248 41.585 170.163 40.4926 170.05C39.4059 169.937 38.3135 169.818 37.2324 169.665Z" fill="#9B58DF"/>
<path opacity="0.1" d="M39.989 168.046C38.6306 168.306 37.2665 168.686 35.8572 169.557C36.0213 169.699 36.1855 169.829 36.3496 169.954C37.3401 169.512 38.3136 169.257 39.2871 169.076C40.6455 168.839 41.987 168.782 43.3171 168.889C44.6472 168.991 45.9659 169.257 47.2677 169.699C48.3997 170.101 49.5204 170.599 50.6185 171.425C51.0147 171.25 51.4165 171.046 51.8184 170.797C50.5619 169.727 49.2714 169.139 47.9696 168.674C46.6678 168.233 45.349 167.967 44.0189 167.865C42.6888 167.757 41.3474 167.814 39.989 168.052V168.046Z" fill="#9B58DF"/>
<path d="M59.5329 177.634C58.2537 176.593 57.4444 175.427 56.7482 174.233C56.0803 173.033 55.5822 171.782 55.237 170.491C54.8917 169.201 54.7049 167.871 54.6936 166.495C54.6993 165.114 54.8294 163.699 55.4351 162.16C56.7199 163.201 57.5349 164.362 58.2254 165.561C58.8933 166.761 59.3914 168.012 59.731 169.303C60.0706 170.593 60.2574 171.923 60.2687 173.299C60.2574 174.68 60.1329 176.095 59.5386 177.634H59.5329Z" fill="#CB98FF"/>
<path d="M55.7859 163.496C56.1368 164.537 56.4481 165.584 56.7537 166.637C57.0594 167.69 57.3367 168.742 57.631 169.801C57.8971 170.859 58.1801 171.918 58.4348 172.982C58.6895 174.046 58.9385 175.11 59.1479 176.185C58.797 175.144 58.4857 174.097 58.1801 173.044C57.8744 171.991 57.5971 170.939 57.3028 169.88C57.0367 168.822 56.7537 167.763 56.499 166.699C56.2443 165.635 55.9953 164.571 55.7859 163.496Z" fill="#9B58DF"/>
<path opacity="0.1" d="M58.2195 165.561C57.529 164.367 56.714 163.201 55.4291 162.16C55.3499 162.358 55.282 162.556 55.2197 162.754C55.9668 163.541 56.5272 164.379 57.0196 165.233C57.6875 166.433 58.1856 167.684 58.5252 168.974C58.8648 170.265 59.0515 171.595 59.0629 172.97C59.0515 174.17 58.9553 175.393 58.5421 176.706C58.8421 177.023 59.1647 177.334 59.5326 177.634C60.1269 176.095 60.2571 174.685 60.2628 173.299C60.2515 171.923 60.0647 170.593 59.7251 169.303C59.3855 168.012 58.8931 166.767 58.2195 165.561Z" fill="#9B58DF"/>
<path d="M59.3517 177.402C58.1009 178.478 56.8161 179.072 55.5143 179.542C54.2125 179.989 52.8993 180.26 51.5692 180.374C50.2391 180.487 48.8977 180.436 47.5393 180.21C46.1809 179.96 44.8112 179.581 43.4019 178.721C44.6527 177.64 45.9375 177.046 47.2393 176.57C48.5411 176.123 49.8543 175.851 51.1844 175.744C52.5145 175.636 53.8559 175.687 55.2143 175.914C56.5727 176.168 57.9424 176.542 59.3517 177.397V177.402Z" fill="#CB98FF"/>
<path d="M44.7771 178.608C45.8638 178.449 46.9505 178.325 48.0373 178.206C49.124 178.087 50.2164 178.002 51.3031 177.895C52.3955 177.815 53.4822 177.725 54.5746 177.662C55.6669 177.6 56.7593 177.544 57.8574 177.521C56.7706 177.679 55.6839 177.804 54.5972 177.923C53.5105 178.042 52.4181 178.127 51.3314 178.234C50.239 178.308 49.1523 178.404 48.0599 178.466C46.9675 178.528 45.8751 178.585 44.7771 178.608Z" fill="#9B58DF"/>
<path opacity="0.1" d="M47.2393 176.576C45.9375 177.046 44.6527 177.64 43.4019 178.727C43.583 178.84 43.7698 178.942 43.9509 179.038C44.8565 178.444 45.7791 178.036 46.7073 177.702C48.0091 177.255 49.3222 176.983 50.6523 176.876C51.9824 176.768 53.3238 176.819 54.6822 177.046C55.8652 177.266 57.0481 177.578 58.265 178.217C58.6273 177.98 58.9895 177.714 59.3517 177.402C57.9424 176.548 56.5727 176.174 55.2143 175.919C53.8559 175.693 52.5145 175.642 51.1844 175.75C49.8543 175.857 48.5411 176.123 47.2393 176.576Z" fill="#9B58DF"/>
<path d="M68.9849 183.09C67.5303 182.315 66.5115 181.325 65.6002 180.283C64.7116 179.23 63.9871 178.104 63.3985 176.904C62.8098 175.704 62.374 174.436 62.0967 173.089C61.842 171.731 61.6948 170.316 61.9891 168.691C63.4494 169.467 64.4682 170.452 65.3795 171.493C66.2681 172.546 66.9926 173.672 67.5756 174.878C68.1585 176.078 68.5944 177.351 68.8717 178.698C69.1264 180.057 69.2736 181.466 68.9849 183.09Z" fill="#CB98FF"/>
<path d="M62.6006 169.931C63.1439 170.882 63.6477 171.855 64.1514 172.823C64.6552 173.797 65.1306 174.782 65.623 175.761C66.0872 176.751 66.5682 177.736 67.021 178.732C67.4738 179.728 67.921 180.725 68.3342 181.743C67.7908 180.792 67.2871 179.819 66.7833 178.851C66.2796 177.878 65.8041 176.893 65.3174 175.914C64.8533 174.923 64.3722 173.938 63.9194 172.942C63.4666 171.946 63.0194 170.95 62.6063 169.931H62.6006Z" fill="#9B58DF"/>
<path opacity="0.1" d="M65.3854 171.493C64.4798 170.452 63.4554 169.467 61.9951 168.691C61.9555 168.901 61.9272 169.11 61.9045 169.314C62.7875 169.942 63.495 170.661 64.1459 171.403C65.0345 172.455 65.759 173.582 66.342 174.787C66.925 175.987 67.3608 177.255 67.6381 178.608C67.8589 179.785 68.0004 181.008 67.8419 182.372C68.1928 182.626 68.572 182.87 68.9909 183.09C69.2795 181.466 69.1324 180.057 68.8777 178.698C68.6003 177.351 68.1645 176.078 67.5815 174.878C67.0042 173.678 66.2741 172.546 65.3854 171.493Z" fill="#9B58DF"/>
<path d="M68.7644 182.898C67.7456 184.194 66.5909 185.026 65.408 185.734C64.2194 186.424 62.9799 186.939 61.695 187.307C60.4102 187.675 59.0858 187.884 57.7104 187.918C56.3294 187.93 54.9144 187.828 53.3635 187.251C54.3823 185.949 55.5313 185.117 56.7199 184.409C57.9085 183.719 59.1537 183.204 60.4329 182.847C61.7177 182.485 63.0421 182.281 64.4175 182.241C65.7985 182.23 67.2135 182.332 68.7644 182.904V182.898Z" fill="#CB98FF"/>
<path d="M54.6936 186.877C55.7294 186.509 56.7708 186.181 57.8179 185.858C58.865 185.536 59.9178 185.241 60.9649 184.93C62.0233 184.647 63.0761 184.347 64.1345 184.075C65.1929 183.804 66.257 183.538 67.3267 183.311C66.2909 183.679 65.2495 184.007 64.2024 184.33C63.1553 184.653 62.1025 184.953 61.0554 185.258C59.997 185.541 58.9443 185.841 57.8858 186.113C56.8274 186.385 55.7633 186.651 54.6936 186.877Z" fill="#9B58DF"/>
<path opacity="0.1" d="M56.7199 184.409C55.537 185.122 54.3823 185.954 53.3635 187.251C53.5673 187.324 53.7654 187.392 53.9635 187.454C54.7389 186.696 55.5653 186.124 56.4143 185.615C57.6029 184.924 58.8481 184.409 60.1272 184.053C61.412 183.69 62.7365 183.487 64.1119 183.447C65.3118 183.436 66.54 183.515 67.8531 183.911C68.1644 183.605 68.4701 183.277 68.7644 182.904C67.2192 182.332 65.8042 182.23 64.4175 182.241C63.0421 182.275 61.712 182.485 60.4329 182.847C59.148 183.204 57.9085 183.724 56.7199 184.409Z" fill="#9B58DF"/>
<path d="M77.9051 186.424C76.3939 185.756 75.3071 184.851 74.3223 183.883C73.3601 182.898 72.5507 181.828 71.8772 180.679C71.2036 179.53 70.6716 178.297 70.2924 176.972C69.9358 175.636 69.6868 174.238 69.8566 172.597C71.3678 173.259 72.4602 174.165 73.445 175.138C74.4072 176.123 75.2166 177.193 75.8845 178.347C76.5523 179.502 77.0844 180.736 77.4636 182.06C77.8202 183.396 78.0692 184.794 77.9051 186.436V186.424Z" fill="#CB98FF"/>
<path d="M70.5527 173.78C71.164 174.691 71.7413 175.619 72.3187 176.553C72.8903 177.487 73.4393 178.432 74.0053 179.372C74.543 180.323 75.0977 181.268 75.6241 182.23C76.1505 183.192 76.6712 184.149 77.158 185.134C76.5467 184.222 75.9694 183.294 75.392 182.366C74.8204 181.432 74.2714 180.487 73.7054 179.547C73.1677 178.596 72.613 177.651 72.0923 176.689C71.5659 175.732 71.0452 174.77 70.5527 173.785V173.78Z" fill="#9B58DF"/>
<path opacity="0.1" d="M73.4452 175.133C72.4604 174.165 71.368 173.253 69.8568 172.591C69.8342 172.806 69.8172 173.016 69.8115 173.219C70.7398 173.78 71.4982 174.442 72.2 175.133C73.1622 176.112 73.9716 177.187 74.6395 178.342C75.3074 179.496 75.8394 180.73 76.2186 182.055C76.5299 183.215 76.7563 184.421 76.7054 185.79C77.079 186.017 77.4695 186.232 77.9053 186.419C78.0751 184.777 77.8204 183.379 77.4638 182.043C77.0846 180.719 76.5582 179.485 75.8847 178.33C75.2168 177.176 74.4074 176.106 73.4452 175.121V175.133Z" fill="#9B58DF"/>
<path d="M77.6731 186.249C76.7506 187.618 75.6695 188.53 74.5375 189.328C73.3998 190.103 72.2056 190.714 70.9491 191.173C69.6982 191.637 68.3907 191.943 67.021 192.079C65.6456 192.197 64.225 192.197 62.6345 191.739C63.5514 190.364 64.6382 189.452 65.7645 188.654C66.9022 187.879 68.0964 187.268 69.3529 186.815C70.6038 186.356 71.9169 186.051 73.281 185.915C74.6564 185.796 76.077 185.796 77.6618 186.249H77.6731Z" fill="#CB98FF"/>
<path d="M63.9363 191.269C64.9381 190.828 65.9569 190.42 66.9757 190.018C67.9945 189.616 69.0246 189.243 70.0434 188.852C71.0735 188.49 72.1037 188.111 73.1394 187.766C74.1752 187.415 75.2167 187.069 76.2694 186.764C75.2676 187.205 74.2488 187.613 73.23 188.015C72.2112 188.417 71.1867 188.79 70.1623 189.181C69.1322 189.543 68.102 189.922 67.0663 190.267C66.0305 190.618 64.989 190.964 63.9363 191.269Z" fill="#9B58DF"/>
<path opacity="0.1" d="M65.7704 188.654C64.644 189.452 63.5573 190.369 62.6404 191.739C62.8498 191.801 63.0536 191.852 63.2517 191.897C63.9705 191.082 64.7516 190.449 65.5553 189.883C66.6929 189.107 67.8872 188.496 69.1437 188.043C70.3946 187.585 71.7077 187.279 73.0718 187.143C74.266 187.041 75.4942 187.03 76.8357 187.324C77.1243 186.996 77.4017 186.645 77.6677 186.254C76.0829 185.802 74.6622 185.802 73.2868 185.921C71.9171 186.062 70.6097 186.368 69.3588 186.82C68.1023 187.273 66.908 187.885 65.7704 188.66V188.654Z" fill="#9B58DF"/>
<path d="M89.3158 187.896C87.697 187.567 86.4405 186.917 85.2689 186.175C84.1199 185.422 83.0954 184.551 82.1955 183.566C81.2899 182.587 80.5088 181.494 79.8579 180.283C79.224 179.055 78.6806 177.742 78.4995 176.1C80.1183 176.423 81.3804 177.08 82.5521 177.815C83.7067 178.568 84.7255 179.445 85.6198 180.43C86.5197 181.415 87.3008 182.507 87.9574 183.719C88.5913 184.947 89.1347 186.26 89.3214 187.896H89.3158Z" fill="#CB98FF"/>
<path d="M79.4277 177.125C80.2201 177.883 80.9842 178.664 81.7427 179.457C82.5011 180.243 83.2426 181.053 83.9897 181.845C84.7198 182.66 85.4613 183.464 86.1801 184.29C86.8989 185.117 87.6121 185.943 88.3026 186.798C87.5102 186.039 86.7461 185.258 85.9877 184.471C85.2292 183.685 84.4878 182.875 83.7407 182.083C83.0105 181.268 82.2691 180.464 81.5502 179.638C80.8314 178.811 80.1183 177.985 79.4277 177.13V177.125Z" fill="#9B58DF"/>
<path opacity="0.1" d="M82.5465 177.821C81.3805 177.085 80.1183 176.429 78.4939 176.106C78.5165 176.321 78.5505 176.531 78.5845 176.729C79.6089 177.08 80.4975 177.561 81.3296 178.087C82.4842 178.84 83.503 179.717 84.3973 180.702C85.2972 181.687 86.0783 182.779 86.7349 183.99C87.2839 185.055 87.765 186.187 88.0084 187.539C88.4215 187.681 88.8517 187.805 89.3158 187.896C89.129 186.26 88.5857 184.947 87.9518 183.719C87.3009 182.508 86.5198 181.415 85.6142 180.43C84.7142 179.445 83.6954 178.568 82.5465 177.815V177.821Z" fill="#9B58DF"/>
<path d="M89.0497 187.783C88.4441 189.316 87.5781 190.443 86.6499 191.462C85.7047 192.463 84.6689 193.312 83.5425 194.031C82.4162 194.75 81.205 195.327 79.8975 195.758C78.5787 196.165 77.192 196.471 75.5393 196.363C76.1449 194.824 77.0052 193.697 77.9391 192.678C78.8844 191.677 79.9201 190.828 81.0521 190.114C82.1785 189.401 83.3897 188.824 84.6972 188.394C86.016 187.986 87.4027 187.681 89.0497 187.783Z" fill="#CB98FF"/>
<path d="M76.7053 195.622C77.5883 194.976 78.4939 194.36 79.4051 193.754C80.3107 193.143 81.239 192.56 82.1559 191.96C83.0841 191.382 84.0067 190.799 84.9463 190.233C85.8858 189.667 86.8254 189.113 87.7876 188.586C86.9046 189.232 85.999 189.848 85.0878 190.454C84.1765 191.065 83.2539 191.648 82.337 192.248C81.4088 192.82 80.4862 193.414 79.5466 193.975C78.6071 194.541 77.6675 195.095 76.7053 195.622Z" fill="#9B58DF"/>
<path opacity="0.1" d="M77.9391 192.673C77.0052 193.692 76.1449 194.818 75.5393 196.357C75.7544 196.369 75.9638 196.38 76.1732 196.38C76.6996 195.429 77.3279 194.642 77.9958 193.918C78.941 192.916 79.9768 192.067 81.1088 191.354C82.2351 190.641 83.4463 190.064 84.7538 189.633C85.9028 189.277 87.097 189.005 88.4724 189.005C88.6818 188.626 88.8799 188.224 89.0554 187.783C87.4083 187.681 86.0216 187.986 84.7028 188.394C83.3954 188.824 82.1841 189.401 81.0578 190.114C79.9315 190.828 78.89 191.677 77.9448 192.678L77.9391 192.673Z" fill="#9B58DF"/>
<path d="M219.756 191.111C218.635 192.265 217.384 193.313 216.134 194.32C213.004 196.844 209.636 199.063 206.104 200.982C201.276 203.597 196.12 205.606 190.765 206.829C184.364 208.289 177.713 208.572 171.221 207.593C163.184 206.387 155.549 203.291 148.644 199.057C147.642 198.44 146.651 197.801 145.678 197.139C145.372 196.935 145.734 196.493 146.034 196.697C152.957 201.384 160.666 204.983 168.895 206.608C175.41 207.898 182.123 207.915 188.643 206.687C194.105 205.657 199.391 203.778 204.344 201.265C208.074 199.369 211.628 197.116 214.934 194.546C216.445 193.369 217.899 192.039 219.258 190.811C219.281 190.794 219.298 190.771 219.314 190.754C219.569 190.494 220.011 190.85 219.756 191.111Z" fill="#CB98FF"/>
<path d="M215.092 195.141C216.711 194.829 217.979 194.19 219.156 193.465C220.316 192.724 221.346 191.863 222.258 190.89C223.175 189.922 223.967 188.835 224.635 187.635C225.286 186.413 225.84 185.111 226.044 183.47C224.42 183.775 223.152 184.415 221.975 185.139C220.814 185.881 219.784 186.741 218.873 187.72C217.962 188.694 217.169 189.775 216.501 190.981C215.856 192.203 215.296 193.505 215.092 195.141Z" fill="#CB98FF"/>
<path d="M225.099 184.477C224.301 185.224 223.526 186 222.756 186.781C221.986 187.562 221.239 188.36 220.481 189.147C219.739 189.956 218.992 190.748 218.262 191.569C217.532 192.384 216.807 193.205 216.111 194.054C216.909 193.307 217.685 192.531 218.454 191.75C219.224 190.969 219.971 190.171 220.73 189.384C221.465 188.575 222.218 187.783 222.948 186.962C223.679 186.147 224.403 185.326 225.099 184.477Z" fill="#9B58DF"/>
<path opacity="0.1" d="M221.975 185.139C223.152 184.415 224.42 183.775 226.044 183.47C226.016 183.685 225.988 183.889 225.948 184.092C224.918 184.432 224.029 184.902 223.186 185.422C222.026 186.164 220.995 187.024 220.084 188.003C219.173 188.977 218.381 190.058 217.713 191.264C217.152 192.322 216.654 193.448 216.4 194.795C215.986 194.931 215.556 195.05 215.086 195.141C215.29 193.505 215.851 192.197 216.496 190.981C217.164 189.775 217.956 188.694 218.867 187.72C219.779 186.747 220.809 185.881 221.969 185.139H221.975Z" fill="#9B58DF"/>
<path d="M210.847 198.067C212.172 197.082 213.032 195.956 213.773 194.79C214.492 193.618 215.047 192.39 215.443 191.122C215.845 189.849 216.088 188.53 216.162 187.154C216.213 185.773 216.145 184.353 215.613 182.791C214.283 183.775 213.422 184.902 212.681 186.068C211.962 187.239 211.408 188.468 211.017 189.741C210.621 191.015 210.377 192.333 210.304 193.709C210.253 195.09 210.321 196.51 210.847 198.073V198.067Z" fill="#CB98FF"/>
<path d="M215.2 184.109C214.809 185.134 214.452 186.169 214.096 187.205C213.745 188.241 213.422 189.288 213.083 190.324C212.771 191.371 212.443 192.418 212.143 193.471C211.843 194.524 211.549 195.576 211.294 196.641C211.69 195.616 212.047 194.58 212.398 193.544C212.749 192.509 213.071 191.462 213.411 190.426C213.722 189.379 214.051 188.332 214.351 187.279C214.651 186.226 214.945 185.173 215.2 184.109Z" fill="#9B58DF"/>
<path opacity="0.1" d="M212.675 186.068C213.417 184.902 214.283 183.775 215.607 182.791C215.675 182.994 215.737 183.198 215.794 183.396C215.013 184.149 214.419 184.964 213.892 185.796C213.173 186.968 212.619 188.196 212.228 189.469C211.832 190.743 211.589 192.062 211.515 193.437C211.47 194.637 211.515 195.865 211.877 197.19C211.566 197.495 211.226 197.79 210.847 198.073C210.321 196.51 210.253 195.095 210.304 193.714C210.377 192.339 210.621 191.02 211.017 189.747C211.408 188.473 211.962 187.245 212.681 186.073L212.675 186.068Z" fill="#9B58DF"/>
<path d="M211.04 197.852C212.239 198.978 213.502 199.629 214.781 200.155C216.06 200.659 217.362 200.987 218.686 201.157C220.011 201.327 221.352 201.338 222.716 201.168C224.086 200.976 225.467 200.659 226.916 199.861C225.716 198.729 224.454 198.078 223.175 197.552C221.895 197.048 220.588 196.72 219.269 196.561C217.945 196.397 216.603 196.386 215.239 196.561C213.87 196.754 212.489 197.071 211.04 197.863V197.852Z" fill="#CB98FF"/>
<path d="M225.546 199.68C224.471 199.471 223.39 199.301 222.309 199.137C221.227 198.972 220.141 198.837 219.06 198.684C217.973 198.559 216.886 198.423 215.8 198.31C214.713 198.203 213.62 198.095 212.528 198.027C213.603 198.237 214.685 198.406 215.766 198.571C216.847 198.735 217.933 198.871 219.014 199.023C220.101 199.148 221.188 199.284 222.275 199.397C223.361 199.504 224.454 199.612 225.546 199.68Z" fill="#9B58DF"/>
<path opacity="0.1" d="M223.175 197.54C224.454 198.067 225.716 198.718 226.916 199.85C226.729 199.952 226.542 200.048 226.356 200.138C225.478 199.504 224.573 199.063 223.656 198.684C222.377 198.18 221.069 197.852 219.75 197.693C218.426 197.529 217.085 197.518 215.721 197.693C214.532 197.863 213.332 198.123 212.092 198.706C211.736 198.452 211.391 198.174 211.045 197.846C212.489 197.054 213.875 196.737 215.245 196.544C216.609 196.375 217.956 196.38 219.275 196.544C220.599 196.708 221.901 197.031 223.18 197.535L223.175 197.54Z" fill="#9B58DF"/>
<path d="M202.442 202.408C203.902 201.644 204.933 200.665 205.849 199.629C206.744 198.582 207.48 197.461 208.074 196.267C208.668 195.073 209.115 193.805 209.404 192.463C209.67 191.105 209.828 189.696 209.545 188.066C208.079 188.83 207.049 189.809 206.132 190.839C205.238 191.886 204.502 193.007 203.914 194.207C203.325 195.401 202.878 196.669 202.589 198.016C202.323 199.374 202.165 200.784 202.442 202.408Z" fill="#CB98FF"/>
<path d="M208.934 189.305C208.385 190.256 207.87 191.218 207.361 192.186C206.851 193.154 206.364 194.133 205.866 195.107C205.391 196.092 204.904 197.071 204.446 198.067C203.987 199.057 203.529 200.054 203.104 201.067C203.653 200.116 204.168 199.154 204.678 198.186C205.187 197.218 205.674 196.239 206.172 195.265C206.647 194.28 207.134 193.301 207.593 192.305C208.051 191.314 208.51 190.318 208.934 189.305Z" fill="#9B58DF"/>
<path opacity="0.1" d="M206.132 190.845C207.049 189.809 208.079 188.83 209.545 188.071C209.579 188.281 209.613 188.49 209.636 188.694C208.747 189.317 208.034 190.024 207.378 190.766C206.483 191.813 205.748 192.933 205.159 194.133C204.57 195.328 204.123 196.595 203.834 197.942C203.602 199.12 203.455 200.342 203.602 201.706C203.246 201.955 202.867 202.199 202.448 202.414C202.17 200.789 202.329 199.38 202.595 198.022C202.884 196.675 203.331 195.407 203.919 194.213C204.508 193.018 205.244 191.892 206.138 190.845H206.132Z" fill="#9B58DF"/>
<path d="M202.663 202.221C203.67 203.523 204.819 204.366 205.997 205.085C207.18 205.781 208.419 206.313 209.698 206.687C210.977 207.066 212.302 207.281 213.677 207.332C215.058 207.355 216.473 207.264 218.03 206.698C217.022 205.391 215.879 204.548 214.696 203.829C213.513 203.133 212.274 202.606 210.994 202.233C209.715 201.859 208.385 201.644 207.01 201.599C205.629 201.576 204.214 201.667 202.657 202.227L202.663 202.221Z" fill="#CB98FF"/>
<path d="M216.705 206.313C215.675 205.94 214.634 205.6 213.592 205.272C212.551 204.938 211.498 204.638 210.451 204.315C209.398 204.021 208.346 203.716 207.287 203.438C206.229 203.161 205.17 202.883 204.101 202.646C205.131 203.019 206.172 203.359 207.214 203.687C208.255 204.021 209.308 204.321 210.355 204.644C211.408 204.938 212.46 205.244 213.519 205.521C214.577 205.798 215.636 206.076 216.705 206.313Z" fill="#9B58DF"/>
<path opacity="0.1" d="M214.702 203.829C215.879 204.548 217.028 205.391 218.035 206.698C217.832 206.772 217.633 206.834 217.435 206.896C216.666 206.132 215.845 205.555 215.002 205.04C213.819 204.344 212.579 203.817 211.3 203.444C210.021 203.07 208.691 202.855 207.315 202.81C206.115 202.787 204.887 202.855 203.568 203.24C203.257 202.934 202.957 202.6 202.668 202.227C204.219 201.667 205.634 201.576 207.021 201.599C208.396 201.644 209.721 201.865 211.006 202.233C212.285 202.601 213.524 203.127 214.707 203.829H214.702Z" fill="#9B58DF"/>
<path d="M193.03 205.895C194.592 205.374 195.763 204.57 196.833 203.693C197.886 202.804 198.791 201.814 199.567 200.727C200.342 199.646 200.988 198.463 201.486 197.184C201.967 195.888 202.346 194.518 202.323 192.865C200.756 193.386 199.584 194.19 198.514 195.061C197.461 195.95 196.556 196.941 195.786 198.033C195.011 199.12 194.371 200.297 193.873 201.582C193.392 202.878 193.013 204.248 193.03 205.895Z" fill="#CB98FF"/>
<path d="M201.525 193.992C200.835 194.841 200.172 195.712 199.51 196.59C198.854 197.461 198.22 198.356 197.569 199.239C196.946 200.138 196.307 201.027 195.695 201.933C195.084 202.838 194.473 203.75 193.896 204.678C194.586 203.829 195.248 202.957 195.91 202.085C196.567 201.208 197.201 200.32 197.846 199.437C198.469 198.537 199.108 197.648 199.72 196.742C200.331 195.837 200.942 194.926 201.52 193.997L201.525 193.992Z" fill="#9B58DF"/>
<path opacity="0.1" d="M198.52 195.067C199.589 194.19 200.761 193.392 202.329 192.871C202.329 193.086 202.329 193.296 202.318 193.505C201.344 193.98 200.523 194.563 199.759 195.192C198.706 196.08 197.801 197.071 197.031 198.163C196.256 199.25 195.616 200.427 195.118 201.712C194.705 202.838 194.36 204.016 194.292 205.391C193.901 205.583 193.488 205.759 193.041 205.906C193.024 204.259 193.409 202.889 193.884 201.593C194.382 200.308 195.027 199.131 195.797 198.044C196.567 196.958 197.473 195.961 198.525 195.073L198.52 195.067Z" fill="#9B58DF"/>
<path d="M193.278 205.747C194.065 207.196 195.061 208.204 196.114 209.104C197.172 209.981 198.31 210.7 199.516 211.272C200.721 211.849 201.995 212.273 203.342 212.539C204.7 212.783 206.115 212.913 207.74 212.607C206.953 211.153 205.957 210.14 204.91 209.245C203.851 208.368 202.714 207.649 201.508 207.083C200.302 206.512 199.029 206.087 197.676 205.821C196.318 205.578 194.903 205.442 193.284 205.747H193.278Z" fill="#CB98FF"/>
<path d="M206.489 212.019C205.532 211.487 204.559 210.989 203.579 210.491C202.606 209.998 201.615 209.528 200.63 209.047C199.634 208.589 198.65 208.119 197.648 207.678C196.646 207.236 195.644 206.795 194.625 206.387C195.582 206.919 196.555 207.417 197.534 207.915C198.514 208.408 199.499 208.877 200.483 209.359C201.48 209.817 202.464 210.287 203.466 210.728C204.468 211.175 205.47 211.611 206.489 212.019Z" fill="#9B58DF"/>
<path opacity="0.1" d="M204.904 209.245C205.951 210.145 206.948 211.158 207.734 212.607C207.525 212.647 207.315 212.681 207.112 212.704C206.472 211.826 205.753 211.125 205 210.479C203.942 209.602 202.804 208.883 201.599 208.317C200.393 207.746 199.12 207.321 197.767 207.055C196.584 206.846 195.361 206.715 194.003 206.885C193.748 206.534 193.499 206.155 193.273 205.742C194.892 205.436 196.307 205.572 197.665 205.815C199.018 206.081 200.291 206.506 201.497 207.078C202.703 207.644 203.84 208.362 204.899 209.24L204.904 209.245Z" fill="#9B58DF"/>
<path d="M182.259 207.666C183.894 207.451 185.196 206.891 186.413 206.234C187.613 205.566 188.694 204.763 189.662 203.846C190.635 202.929 191.49 201.899 192.226 200.733C192.945 199.555 193.579 198.282 193.879 196.657C192.237 196.867 190.935 197.427 189.718 198.084C188.519 198.752 187.437 199.555 186.47 200.472C185.502 201.389 184.647 202.425 183.911 203.585C183.192 204.768 182.559 206.036 182.259 207.655V207.666Z" fill="#CB98FF"/>
<path d="M192.877 197.608C192.033 198.31 191.218 199.035 190.403 199.771C189.588 200.501 188.796 201.253 187.992 202.001C187.205 202.765 186.413 203.512 185.638 204.287C184.862 205.057 184.092 205.838 183.345 206.642C184.189 205.94 185.004 205.215 185.819 204.48C186.634 203.75 187.426 202.997 188.23 202.25C189.017 201.486 189.809 200.738 190.584 199.963C191.36 199.193 192.13 198.412 192.877 197.614V197.608Z" fill="#9B58DF"/>
<path opacity="0.1" d="M189.718 198.084C190.935 197.427 192.237 196.867 193.879 196.657C193.839 196.867 193.794 197.076 193.743 197.274C192.696 197.552 191.779 197.971 190.907 198.44C189.707 199.108 188.626 199.912 187.658 200.829C186.69 201.746 185.836 202.782 185.1 203.942C184.477 204.966 183.917 206.059 183.583 207.394C183.164 207.508 182.723 207.598 182.253 207.661C182.553 206.042 183.187 204.768 183.906 203.591C184.641 202.425 185.496 201.395 186.464 200.478C187.432 199.555 188.507 198.757 189.713 198.089L189.718 198.084Z" fill="#9B58DF"/>
<path d="M182.53 207.564C183.028 209.138 183.809 210.321 184.67 211.402C185.541 212.466 186.521 213.388 187.59 214.181C188.66 214.979 189.826 215.641 191.105 216.162C192.396 216.666 193.754 217.062 195.407 217.073C194.914 215.494 194.128 214.311 193.273 213.23C192.401 212.166 191.422 211.243 190.347 210.457C189.271 209.664 188.105 209.002 186.832 208.481C185.541 207.983 184.183 207.581 182.53 207.57V207.564Z" fill="#CB98FF"/>
<path d="M194.297 216.252C193.46 215.545 192.599 214.871 191.733 214.198C190.867 213.524 189.99 212.879 189.118 212.217C188.23 211.577 187.353 210.926 186.453 210.298C185.558 209.67 184.658 209.047 183.736 208.453C184.574 209.161 185.434 209.834 186.3 210.508C187.166 211.181 188.043 211.826 188.915 212.489C189.803 213.128 190.681 213.779 191.581 214.407C192.475 215.036 193.375 215.658 194.297 216.252Z" fill="#9B58DF"/>
<path opacity="0.1" d="M193.273 213.23C194.133 214.311 194.914 215.5 195.407 217.073C195.192 217.073 194.982 217.062 194.778 217.05C194.32 216.066 193.748 215.239 193.137 214.464C192.265 213.4 191.286 212.477 190.211 211.69C189.135 210.898 187.969 210.236 186.696 209.715C185.575 209.279 184.404 208.923 183.034 208.827C182.847 208.43 182.683 208.017 182.536 207.564C184.183 207.576 185.547 207.978 186.837 208.476C188.111 208.996 189.283 209.659 190.352 210.451C191.428 211.238 192.407 212.16 193.279 213.224L193.273 213.23Z" fill="#9B58DF"/>
<path d="M172.739 207.638C174.386 207.547 175.727 207.083 176.989 206.523C178.24 205.946 179.372 205.227 180.408 204.389C181.444 203.551 182.378 202.584 183.198 201.48C184.002 200.359 184.732 199.137 185.151 197.541C183.498 197.625 182.157 198.09 180.895 198.65C179.644 199.227 178.512 199.946 177.476 200.789C176.44 201.633 175.512 202.601 174.691 203.704C173.888 204.831 173.157 206.048 172.739 207.638Z" fill="#CB98FF"/>
<path d="M184.081 198.406C183.187 199.04 182.321 199.708 181.455 200.376C180.589 201.044 179.74 201.734 178.885 202.419C178.048 203.121 177.199 203.812 176.367 204.519C175.535 205.232 174.708 205.945 173.905 206.693C174.799 206.059 175.665 205.391 176.531 204.723C177.397 204.055 178.246 203.365 179.1 202.68C179.938 201.978 180.787 201.287 181.619 200.58C182.451 199.867 183.278 199.153 184.081 198.406Z" fill="#9B58DF"/>
<path opacity="0.1" d="M180.895 198.644C182.157 198.084 183.498 197.62 185.151 197.535C185.094 197.744 185.038 197.942 184.97 198.14C183.906 198.339 182.961 198.689 182.055 199.091C180.804 199.669 179.672 200.387 178.636 201.231C177.601 202.074 176.672 203.042 175.852 204.146C175.155 205.119 174.51 206.172 174.08 207.474C173.65 207.553 173.208 207.615 172.733 207.638C173.157 206.042 173.882 204.825 174.686 203.704C175.506 202.601 176.44 201.633 177.47 200.789C178.5 199.946 179.638 199.227 180.889 198.65L180.895 198.644Z" fill="#9B58DF"/>
<path d="M173.016 207.559C173.395 209.166 174.086 210.4 174.861 211.549C175.648 212.675 176.553 213.672 177.566 214.543C178.574 215.415 179.689 216.168 180.923 216.779C182.168 217.373 183.498 217.877 185.145 218.007C184.772 216.4 184.081 215.16 183.306 214.011C182.519 212.885 181.613 211.894 180.6 211.023C179.587 210.151 178.472 209.404 177.244 208.793C175.999 208.198 174.669 207.695 173.027 207.559H173.016Z" fill="#CB98FF"/>
<path d="M184.098 217.101C183.317 216.332 182.508 215.596 181.698 214.86C180.889 214.124 180.057 213.411 179.236 212.687C178.399 211.985 177.572 211.266 176.723 210.575C175.874 209.885 175.025 209.194 174.154 208.532C174.935 209.302 175.744 210.038 176.553 210.774C177.363 211.509 178.195 212.223 179.016 212.947C179.853 213.649 180.68 214.368 181.529 215.058C182.378 215.749 183.227 216.439 184.098 217.101Z" fill="#9B58DF"/>
<path opacity="0.1" d="M183.3 214.011C184.075 215.155 184.766 216.394 185.14 218.007C184.924 217.99 184.715 217.968 184.511 217.939C184.126 216.926 183.617 216.054 183.068 215.239C182.281 214.113 181.376 213.123 180.363 212.251C179.349 211.379 178.234 210.632 177.006 210.021C175.925 209.506 174.776 209.059 173.418 208.861C173.265 208.453 173.123 208.029 173.016 207.564C174.657 207.7 175.987 208.204 177.233 208.798C178.466 209.41 179.581 210.162 180.589 211.028C181.602 211.894 182.508 212.885 183.294 214.017L183.3 214.011Z" fill="#9B58DF"/>
<path d="M161.537 204.989C163.167 205.255 164.577 205.085 165.93 204.808C167.271 204.508 168.539 204.055 169.727 203.455C170.922 202.855 172.037 202.114 173.078 201.208C174.103 200.286 175.076 199.25 175.829 197.778C174.199 197.507 172.789 197.676 171.437 197.954C170.095 198.254 168.833 198.712 167.644 199.312C166.456 199.912 165.335 200.659 164.299 201.565C163.275 202.493 162.301 203.523 161.549 204.989H161.537Z" fill="#CB98FF"/>
<path d="M174.589 198.395C173.582 198.825 172.591 199.289 171.601 199.759C170.61 200.229 169.637 200.721 168.652 201.202C167.684 201.706 166.705 202.199 165.743 202.719C164.78 203.234 163.818 203.761 162.873 204.315C163.881 203.885 164.871 203.421 165.862 202.951C166.852 202.482 167.826 201.989 168.81 201.508C169.778 201.004 170.757 200.512 171.72 199.991C172.682 199.476 173.644 198.95 174.589 198.395Z" fill="#9B58DF"/>
<path opacity="0.1" d="M171.431 197.948C172.784 197.671 174.193 197.507 175.823 197.773C175.727 197.965 175.625 198.146 175.518 198.327C174.431 198.293 173.435 198.429 172.467 198.633C171.125 198.933 169.863 199.391 168.675 199.991C167.486 200.591 166.365 201.338 165.33 202.244C164.435 203.048 163.586 203.936 162.884 205.114C162.449 205.102 162.001 205.063 161.537 204.989C162.29 203.523 163.264 202.487 164.288 201.565C165.324 200.659 166.445 199.918 167.633 199.312C168.822 198.706 170.084 198.248 171.425 197.954L171.431 197.948Z" fill="#9B58DF"/>
<path d="M161.826 204.972C161.854 206.619 162.262 207.978 162.777 209.262C163.309 210.53 163.977 211.696 164.78 212.76C165.579 213.83 166.507 214.798 167.582 215.664C168.675 216.513 169.863 217.288 171.442 217.769C171.42 216.117 171.012 214.758 170.497 213.473C169.965 212.206 169.297 211.04 168.488 209.976C167.684 208.912 166.756 207.938 165.686 207.078C164.594 206.229 163.405 205.453 161.832 204.972H161.826Z" fill="#CB98FF"/>
<path d="M170.61 216.666C170.01 215.749 169.376 214.854 168.742 213.966C168.109 213.072 167.446 212.2 166.801 211.317C166.133 210.451 165.477 209.574 164.797 208.719C164.118 207.859 163.433 207.004 162.72 206.172C163.32 207.089 163.948 207.983 164.588 208.877C165.222 209.766 165.878 210.643 166.529 211.526C167.197 212.392 167.854 213.27 168.533 214.124C169.212 214.985 169.897 215.839 170.61 216.671V216.666Z" fill="#9B58DF"/>
<path opacity="0.1" d="M170.497 213.473C171.007 214.758 171.42 216.117 171.442 217.769C171.239 217.707 171.041 217.639 170.842 217.566C170.684 216.49 170.373 215.534 170.01 214.617C169.478 213.349 168.811 212.183 168.001 211.119C167.197 210.055 166.269 209.081 165.199 208.221C164.254 207.485 163.23 206.806 161.945 206.319C161.883 205.889 161.837 205.442 161.832 204.966C163.405 205.453 164.6 206.223 165.686 207.072C166.756 207.932 167.69 208.906 168.488 209.97C169.292 211.034 169.965 212.194 170.497 213.468V213.473Z" fill="#9B58DF"/>
<path d="M167.446 46.0449H77.0562C72.6236 46.0449 69.0303 49.6382 69.0303 54.0708V213.524C69.0303 217.957 72.6236 221.55 77.0562 221.55H167.446C171.879 221.55 175.472 217.957 175.472 213.524V54.0708C175.472 49.6382 171.879 46.0449 167.446 46.0449Z" fill="#CB98FF"/>
<path d="M143.385 52.452C142.491 55.6046 133.373 58.0837 122.251 58.0837C111.129 58.0837 102.017 55.6046 101.117 52.452H77.0559V203.71H167.44V52.452H143.38H143.385Z" fill="#EEDEFF"/>
<path d="M155.741 79.5182H88.4156C87.3741 79.5182 86.5251 80.3729 86.5251 81.4086V105.215L94.0756 101.105H155.747C156.788 101.105 157.637 100.251 157.637 99.215V81.4086C157.637 80.3672 156.783 79.5182 155.747 79.5182H155.741Z" fill="#E0C2FF"/>
<path d="M151.553 84.0009H92.604V84.6291H151.553V84.0009Z" fill="#ECE9EE"/>
<path d="M151.553 90.3118H92.604V90.94H151.553V90.3118Z" fill="#ECE9EE"/>
<path d="M134.494 96.6227H92.604V97.2509H134.494V96.6227Z" fill="#ECE9EE"/>
<path d="M93.0965 76.7844C96.6444 76.7844 99.5206 73.9082 99.5206 70.3603C99.5206 66.8123 96.6444 63.9362 93.0965 63.9362C89.5485 63.9362 86.6724 66.8123 86.6724 70.3603C86.6724 73.9082 89.5485 76.7844 93.0965 76.7844Z" fill="#E0C2FF"/>
<mask id="mask0_220_6690" style="mask-type:luminance" maskUnits="userSpaceOnUse" x="86" y="63" width="14" height="14">
<path d="M93.0965 76.7844C96.6444 76.7844 99.5206 73.9082 99.5206 70.3603C99.5206 66.8123 96.6444 63.9362 93.0965 63.9362C89.5485 63.9362 86.6724 66.8123 86.6724 70.3603C86.6724 73.9082 89.5485 76.7844 93.0965 76.7844Z" fill="white"/>
</mask>
<g mask="url(#mask0_220_6690)">
<path d="M93.0964 71.1073C94.0654 71.1073 94.851 70.3218 94.851 69.3527C94.851 68.3837 94.0654 67.5981 93.0964 67.5981C92.1274 67.5981 91.3418 68.3837 91.3418 69.3527C91.3418 70.3218 92.1274 71.1073 93.0964 71.1073Z" fill="#ECE9EE"/>
<path d="M93.0966 71.7639C91.1269 71.7639 89.5308 73.36 89.5308 75.3297C89.5308 77.2994 91.1269 78.8955 93.0966 78.8955C95.0662 78.8955 96.6624 77.2994 96.6624 75.3297C96.6624 73.36 95.0662 71.7639 93.0966 71.7639Z" fill="#ECE9EE"/>
</g>
<path d="M88.4156 123.689H155.741C156.783 123.689 157.632 124.543 157.632 125.579V149.385L150.081 145.276H88.41C87.3685 145.276 86.5195 144.421 86.5195 143.386V125.579C86.5195 124.538 87.3742 123.689 88.41 123.689H88.4156Z" fill="#E0C2FF"/>
<path d="M151.553 128.177H92.604V128.805H151.553V128.177Z" fill="#ECE9EE"/>
<path d="M151.553 134.482H92.604V135.111H151.553V134.482Z" fill="#ECE9EE"/>
<path d="M151.553 140.793H109.663V141.421H151.553V140.793Z" fill="#ECE9EE"/>
<path d="M151.553 120.48C155.101 120.48 157.977 117.603 157.977 114.055C157.977 110.508 155.101 107.631 151.553 107.631C148.005 107.631 145.129 110.508 145.129 114.055C145.129 117.603 148.005 120.48 151.553 120.48Z" fill="#E0C2FF"/>
<mask id="mask1_220_6690" style="mask-type:luminance" maskUnits="userSpaceOnUse" x="145" y="107" width="13" height="14">
<path d="M151.553 120.48C155.101 120.48 157.977 117.603 157.977 114.055C157.977 110.508 155.101 107.631 151.553 107.631C148.005 107.631 145.129 110.508 145.129 114.055C145.129 117.603 148.005 120.48 151.553 120.48Z" fill="white"/>
</mask>
<g mask="url(#mask1_220_6690)">
<path d="M151.553 114.808C152.521 114.808 153.308 114.022 153.308 113.054C153.308 112.086 152.521 111.299 151.553 111.299C150.585 111.299 149.798 112.086 149.798 113.054C149.798 114.022 150.585 114.808 151.553 114.808Z" fill="#ECE9EE"/>
<path d="M151.553 115.465C149.583 115.465 147.987 117.061 147.987 119.031C147.987 121 149.583 122.596 151.553 122.596C153.523 122.596 155.119 121 155.119 119.031C155.119 117.061 153.523 115.465 151.553 115.465Z" fill="#ECE9EE"/>
</g>
<path d="M155.741 169.122H88.4156C87.3741 169.122 86.5251 169.976 86.5251 171.012V194.818L94.0756 190.709H155.747C156.788 190.709 157.637 189.854 157.637 188.818V171.012C157.637 169.971 156.783 169.122 155.747 169.122H155.741Z" fill="#E0C2FF"/>
<path d="M151.553 173.61H92.604V174.238H151.553V173.61Z" fill="#ECE9EE"/>
<path d="M151.553 179.921H92.604V180.549H151.553V179.921Z" fill="#ECE9EE"/>
<path d="M134.494 186.232H92.604V186.86H134.494V186.232Z" fill="#ECE9EE"/>
<path d="M93.0965 165.544C96.6444 165.544 99.5206 162.668 99.5206 159.12C99.5206 155.572 96.6444 152.696 93.0965 152.696C89.5485 152.696 86.6724 155.572 86.6724 159.12C86.6724 162.668 89.5485 165.544 93.0965 165.544Z" fill="#E0C2FF"/>
<mask id="mask2_220_6690" style="mask-type:luminance" maskUnits="userSpaceOnUse" x="86" y="152" width="14" height="14">
<path d="M93.0965 165.544C96.6444 165.544 99.5206 162.668 99.5206 159.12C99.5206 155.572 96.6444 152.696 93.0965 152.696C89.5485 152.696 86.6724 155.572 86.6724 159.12C86.6724 162.668 89.5485 165.544 93.0965 165.544Z" fill="white"/>
</mask>
<g mask="url(#mask2_220_6690)">
<path d="M93.0964 159.873C94.0643 159.873 94.851 159.086 94.851 158.119C94.851 157.151 94.0643 156.364 93.0964 156.364C92.1285 156.364 91.3418 157.151 91.3418 158.119C91.3418 159.086 92.1285 159.873 93.0964 159.873Z" fill="#ECE9EE"/>
<path d="M93.0966 160.524C91.1269 160.524 89.5308 162.12 89.5308 164.09C89.5308 166.06 91.1269 167.656 93.0966 167.656C95.0662 167.656 96.6624 166.06 96.6624 164.09C96.6624 162.12 95.0662 160.524 93.0966 160.524Z" fill="#ECE9EE"/>
</g>
<path d="M151.134 113.727L142.627 105.226L122.251 125.602L101.875 105.226L93.3682 113.727L113.744 134.103L93.3682 154.479L101.875 162.986L122.251 142.61L142.627 162.986L151.134 154.479L130.758 134.103L151.134 113.727Z" fill="#BE7FFF"/>
<path d="M219.762 35.84H144.71V92.4003H219.762V35.84Z" fill="#F5F4F6"/>
<path d="M215.794 39.4001H149.521V48.4335H215.794V39.4001Z" fill="#E7CFFF"/>
<path d="M213.632 41.432L212.63 40.4302L210.23 42.83L207.825 40.4302L206.823 41.432L209.228 43.8318L206.823 46.2373L207.825 47.2392L210.23 44.8337L212.63 47.2392L213.632 46.2373L211.232 43.8318L213.632 41.432Z" fill="#F5F4F6"/>
<path d="M75.7204 103.992C61.4572 103.992 49.8542 115.595 49.8542 129.858C49.8542 144.121 61.4572 155.724 75.7204 155.724C89.9837 155.724 101.587 144.121 101.587 129.858C101.587 115.595 89.9837 103.992 75.7204 103.992Z" fill="#FF8F8F"/>
<path d="M75.7205 111.978C65.8608 111.978 57.8406 119.998 57.8406 129.858C57.8406 139.718 65.8608 147.738 75.7205 147.738C85.5802 147.738 93.6005 139.718 93.6005 129.858C93.6005 119.998 85.5802 111.978 75.7205 111.978ZM75.7205 115.352C79.1165 115.352 82.2352 116.529 84.7143 118.487L64.3496 138.852C62.3912 136.378 61.2139 133.254 61.2139 129.858C61.2139 121.861 67.7229 115.346 75.7262 115.346L75.7205 115.352ZM75.7205 144.37C72.3245 144.37 69.2059 143.193 66.7268 141.235L87.0915 120.87C89.0498 123.343 90.2271 126.468 90.2271 129.864C90.2271 137.867 83.7181 144.376 75.7148 144.376L75.7205 144.37Z" fill="white"/>
<path d="M71.5831 79.5635H69.1096C69.0474 79.3031 68.9851 79.0427 68.9115 78.788L71.051 77.5598C72.1491 76.9316 72.5339 75.5166 71.9057 74.4242L71.6453 73.9714C71.0171 72.8734 69.6021 72.4885 68.5097 73.1167L66.3589 74.3506C66.1551 74.1299 65.94 73.9148 65.7136 73.7054L66.9475 71.5546C67.5758 70.4565 67.1909 69.0472 66.0929 68.4189L65.6401 68.1586C64.542 67.5303 63.1327 67.9152 62.5044 69.0132L61.2762 71.1527C61.0215 71.0735 60.7611 71.0112 60.5008 70.9546V68.4812C60.5008 67.219 59.465 66.1832 58.2028 66.1832H57.6821C56.4199 66.1832 55.3841 67.219 55.3841 68.4812V70.9546C55.1238 71.0169 54.8634 71.0791 54.6087 71.1527L53.3805 69.0132C52.7522 67.9152 51.3372 67.5303 50.2449 68.1586L49.7921 68.4189C48.694 69.0472 48.3091 70.4622 48.9374 71.5546L50.1713 73.7054C49.9505 73.9091 49.7355 74.1242 49.526 74.3506L47.3752 73.1167C46.2772 72.4885 44.8679 72.8734 44.2396 73.9714L43.9792 74.4242C43.351 75.5222 43.7359 76.9316 44.8339 77.5598L46.9734 78.788C46.8941 79.0427 46.8319 79.3031 46.7753 79.5635H44.3019C43.0397 79.5635 42.0039 80.5992 42.0039 81.8614V82.3822C42.0039 83.6443 43.0397 84.6801 44.3019 84.6801H46.7753C46.8375 84.9405 46.8998 85.2008 46.9734 85.4555L44.8339 86.6837C43.7359 87.312 43.351 88.727 43.9792 89.8194L44.2396 90.2722C44.8679 91.3702 46.2829 91.7551 47.3752 91.1269L49.526 89.893C49.7298 90.1137 49.9449 90.3288 50.1713 90.5382L48.9374 92.689C48.3091 93.787 48.694 95.1964 49.7921 95.8247L50.2449 96.085C51.3429 96.7133 52.7522 96.3284 53.3805 95.2304L54.6087 93.0909C54.8634 93.1701 55.1238 93.2324 55.3841 93.289V95.7624C55.3841 97.0246 56.4199 98.0604 57.6821 98.0604H58.2028C59.465 98.0604 60.5008 97.0246 60.5008 95.7624V93.289C60.7611 93.2267 61.0215 93.1645 61.2762 93.0909L62.5044 95.2304C63.1327 96.3284 64.5477 96.7133 65.6401 96.085L66.0929 95.8247C67.1909 95.1964 67.5758 93.7814 66.9475 92.689L65.7136 90.5382C65.9344 90.3344 66.1495 90.1194 66.3589 89.893L68.5097 91.1269C69.6077 91.7551 71.0171 91.3702 71.6453 90.2722L71.9057 89.8194C72.5339 88.7214 72.1491 87.312 71.051 86.6837L68.9115 85.4555C68.9908 85.2008 69.053 84.9405 69.1096 84.6801H71.5831C72.8452 84.6801 73.881 83.6443 73.881 82.3822V81.8614C73.881 80.5992 72.8452 79.5635 71.5831 79.5635ZM57.9425 90.0175C53.5843 90.0175 50.0524 86.4856 50.0524 82.1274C50.0524 77.7692 53.5843 74.2374 57.9425 74.2374C62.3007 74.2374 65.8325 77.7692 65.8325 82.1274C65.8325 86.4856 62.3007 90.0175 57.9425 90.0175Z" fill="#B3AEB7"/>
<path d="M52.8088 52.4294L51.173 52.803C51.0938 52.6388 51.0145 52.4747 50.924 52.3219L52.1522 51.1899C52.7805 50.6125 52.8257 49.6164 52.2428 48.9881L52.005 48.7278C51.4277 48.0995 50.4372 48.0542 49.8033 48.6372L48.5694 49.7749C48.3996 49.656 48.2242 49.5485 48.0487 49.4466L48.5411 47.8391C48.7902 47.0184 48.326 46.1468 47.5053 45.8921L47.1657 45.7902C46.345 45.5412 45.4734 46.0053 45.2187 46.826L44.7319 48.4221C44.5508 48.4108 44.3697 48.4051 44.1886 48.4051L43.815 46.7694C43.6226 45.9317 42.7849 45.4053 41.9529 45.5978L41.6076 45.677C40.7699 45.8695 40.2436 46.7071 40.436 47.5392L40.8096 49.1749C40.6454 49.2541 40.4869 49.3334 40.3285 49.4239L39.1965 48.1957C38.6191 47.5675 37.6286 47.5222 36.9947 48.1052L36.7344 48.3429C36.1061 48.9202 36.0608 49.9107 36.6438 50.5446L37.7815 51.7785C37.6626 51.9483 37.5551 52.1238 37.4532 52.2992L35.8457 51.8068C35.025 51.5578 34.1534 52.0219 33.8987 52.8426L33.7968 53.1822C33.5478 54.0029 34.0119 54.8745 34.8326 55.1292L36.4287 55.616C36.4174 55.7971 36.4117 55.9782 36.4117 56.1593L34.776 56.5329C33.9383 56.7253 33.4119 57.563 33.6044 58.395L33.6836 58.7403C33.8761 59.578 34.7137 60.1044 35.5458 59.9119L37.1815 59.5384C37.2607 59.7025 37.34 59.8666 37.4305 60.0195L36.2023 61.1515C35.5741 61.7288 35.5288 62.7193 36.1118 63.3532L36.3495 63.6136C36.9268 64.2418 37.9173 64.2871 38.5512 63.7041L39.7851 62.5665C39.9549 62.6853 40.1304 62.7929 40.3058 62.8947L39.8134 64.5022C39.5644 65.3229 40.0285 66.1945 40.8492 66.4492L41.1888 66.5511C42.0095 66.8001 42.8811 66.336 43.1358 65.5153L43.6226 63.9192C43.8037 63.9305 43.9848 63.9362 44.1659 63.9362L44.5395 65.5719C44.7319 66.4096 45.5696 66.936 46.4016 66.7435L46.7469 66.6643C47.5846 66.4719 48.111 65.6342 47.9185 64.8022L47.545 63.1664C47.7091 63.0872 47.8732 63.0079 48.0261 62.9174L49.1581 64.1456C49.7354 64.7739 50.7259 64.8191 51.3598 64.2362L51.6202 63.9984C52.2484 63.4211 52.2937 62.4306 51.7107 61.7967L50.5731 60.5628C50.6919 60.393 50.7995 60.2176 50.9013 60.0421L52.5088 60.5345C53.3295 60.7836 54.2011 60.3194 54.4558 59.4987L54.5577 59.1591C54.8067 58.3384 54.3426 57.4668 53.5219 57.2121L51.9258 56.7253C51.9371 56.5442 51.9428 56.3631 51.9428 56.182L53.5785 55.8084C54.4162 55.616 54.9426 54.7783 54.7501 53.9463L54.6709 53.601C54.4785 52.7633 53.6408 52.237 52.8088 52.4294ZM45.3659 61.3835C42.4849 62.0401 39.621 60.2345 38.9644 57.3536C38.3078 54.4727 40.1134 51.6087 42.9943 50.9521C45.8753 50.2956 48.7392 52.1011 49.3958 54.9821C50.0523 57.863 48.2468 60.727 45.3659 61.3835Z" fill="#C5C0C8"/>
<path d="M202.442 94.6926L200.835 95.0548C200.756 94.8964 200.676 94.7379 200.591 94.5794L201.803 93.47C202.42 92.8984 202.465 91.9249 201.893 91.3079L201.661 91.0532C201.09 90.4363 200.116 90.391 199.499 90.9627L198.282 92.0777C198.118 91.9645 197.943 91.8569 197.767 91.7551L198.248 90.1759C198.497 89.3722 198.039 88.5119 197.229 88.2628L196.895 88.161C196.092 87.9176 195.231 88.3704 194.982 89.1798L194.501 90.7476C194.326 90.7363 194.15 90.7306 193.969 90.7306L193.607 89.1232C193.42 88.3025 192.594 87.7817 191.773 87.9685L191.434 88.0478C190.613 88.2345 190.092 89.0609 190.279 89.8816L190.641 91.489C190.483 91.5683 190.324 91.6475 190.166 91.7324L189.056 90.5212C188.485 89.9042 187.511 89.859 186.894 90.4306L186.64 90.6627C186.023 91.2343 185.977 92.2079 186.549 92.8248L187.664 94.0417C187.551 94.2115 187.443 94.3813 187.341 94.5568L185.762 94.0757C184.959 93.8323 184.098 94.2851 183.849 95.0945L183.747 95.4284C183.504 96.2321 183.957 97.0924 184.76 97.3415L186.328 97.8226C186.317 97.998 186.311 98.1735 186.311 98.3546L184.704 98.7169C183.883 98.9036 183.362 99.73 183.549 100.551L183.628 100.89C183.815 101.711 184.642 102.232 185.462 102.045L187.07 101.683C187.149 101.841 187.228 102 187.313 102.158L186.102 103.267C185.485 103.839 185.44 104.813 186.011 105.43L186.243 105.684C186.815 106.301 187.789 106.347 188.405 105.775L189.622 104.66C189.787 104.773 189.962 104.881 190.137 104.982L189.656 106.562C189.413 107.365 189.866 108.226 190.669 108.475L191.003 108.577C191.807 108.82 192.667 108.367 192.917 107.558L193.398 105.99C193.573 106.001 193.749 106.007 193.93 106.007L194.292 107.614C194.479 108.435 195.305 108.956 196.126 108.769L196.465 108.69C197.286 108.503 197.807 107.677 197.62 106.856L197.258 105.248C197.416 105.169 197.575 105.09 197.733 105.005L198.843 106.216C199.414 106.833 200.388 106.879 201.005 106.307L201.259 106.075C201.876 105.503 201.922 104.53 201.35 103.913L200.235 102.696C200.348 102.526 200.456 102.356 200.558 102.181L202.137 102.662C202.94 102.905 203.801 102.452 204.05 101.643L204.152 101.309C204.395 100.505 203.942 99.6451 203.138 99.3961L201.571 98.915C201.582 98.7395 201.588 98.564 201.588 98.3829L203.195 98.0207C204.016 97.8339 204.536 97.0075 204.35 96.1868L204.27 95.8472C204.084 95.0265 203.257 94.5058 202.437 94.6926H202.442ZM195.13 103.488C192.3 104.133 189.487 102.356 188.841 99.5319C188.196 96.7019 189.973 93.8889 192.798 93.2436C195.628 92.5984 198.441 94.3756 199.086 97.2C199.731 100.024 197.954 102.843 195.13 103.488Z" fill="#C5C0C8"/>
<path d="M200.161 221.55H123.542V225.908H200.161V221.55Z" fill="#FF8F8F"/>
<path d="M192.809 221.55H130.894L157.655 155.56H166.048L192.809 221.55Z" fill="#FF6666"/>
<mask id="mask3_220_6690" style="mask-type:luminance" maskUnits="userSpaceOnUse" x="130" y="155" width="63" height="67">
<path d="M192.809 221.55H130.894L157.655 155.56H166.048L192.809 221.55Z" fill="white"/>
</mask>
<g mask="url(#mask3_220_6690)">
<path d="M203.999 197.297H119.698V213.117H203.999V197.297Z" fill="#FF8F8F"/>
<path d="M203.999 165.85H119.698V181.67H203.999V165.85Z" fill="#FF8F8F"/>
</g>
<path opacity="0.1" d="M171.776 179.168C176.763 194.32 177.216 209.387 173.938 221.55H192.809L166.048 155.56H159.653C164.633 162.222 168.833 170.214 171.776 179.168Z" fill="#9B58DF"/>
<g opacity="0.3">
<path d="M156.494 168.793C154.757 173.361 153.025 177.923 151.287 182.49C148.519 189.775 145.746 197.059 142.978 204.349C142.338 206.036 141.699 207.717 141.059 209.404C140.488 210.915 142.91 211.566 143.476 210.072C145.214 205.504 146.946 200.942 148.683 196.374C151.451 189.09 154.224 181.806 156.992 174.516C157.632 172.829 158.271 171.148 158.911 169.461C159.483 167.95 157.06 167.299 156.494 168.793Z" fill="white"/>
</g>
<path d="M91.257 223.361H46.5034V225.908H91.257V223.361Z" fill="#FF8F8F"/>
<path d="M86.9613 223.361H50.7996L66.4325 184.817H71.334L86.9613 223.361Z" fill="#FF6666"/>
<mask id="mask4_220_6690" style="mask-type:luminance" maskUnits="userSpaceOnUse" x="50" y="184" width="37" height="40">
<path d="M86.9613 223.361H50.7996L66.4325 184.817H71.334L86.9613 223.361Z" fill="white"/>
</mask>
<g mask="url(#mask4_220_6690)">
<path d="M93.5042 209.194H44.2622V218.432H93.5042V209.194Z" fill="#FF8F8F"/>
<path d="M93.5042 190.828H44.2622V200.065H93.5042V190.828Z" fill="#FF8F8F"/>
</g>
<path opacity="0.1" d="M74.6789 198.605C77.5881 207.457 77.8598 216.252 75.941 223.361H86.9611L71.3281 184.817H67.5925C70.5018 188.705 72.9525 193.375 74.6732 198.605H74.6789Z" fill="#9B58DF"/>
<g opacity="0.3">
<path d="M65.753 192.548C64.7399 195.214 63.7268 197.88 62.7136 200.546C61.0949 204.802 59.4761 209.059 57.8573 213.315C57.4838 214.3 57.1102 215.285 56.7367 216.264C56.4027 217.147 57.8177 217.526 58.1517 216.654C59.1648 213.988 60.1779 211.323 61.1911 208.657C62.8098 204.4 64.4286 200.144 66.0474 195.888C66.4209 194.903 66.7945 193.918 67.168 192.939C67.502 192.056 66.087 191.677 65.753 192.548Z" fill="white"/>
</g>
<path d="M192.933 122.608H188.666V118.34H187.149V122.608H182.881V124.125H187.149V128.392H188.666V124.125H192.933V122.608Z" fill="#E0EEFF"/>
<path d="M218.93 165.629H215.188V161.894H213.858V165.629H210.123V166.965H213.858V170.701H215.188V166.965H218.93V165.629Z" fill="#E0EEFF"/>
<path d="M221.567 134.641H219.434V132.507H218.675V134.641H216.541V135.399H218.675V137.533H219.434V135.399H221.567V134.641Z" fill="#E0EEFF"/>
<path d="M133.124 28.3234H130.99V26.1896H130.226V28.3234H128.092V29.0818H130.226V31.2213H130.99V29.0818H133.124V28.3234Z" fill="#E0EEFF"/>
<path d="M150.155 20.4221H145.887V16.1544H144.37V20.4221H140.103V21.9446H144.37V26.2066H145.887V21.9446H150.155V20.4221Z" fill="#E0EEFF"/>
<path d="M41.7547 114.033H38.0191V110.297H36.6834V114.033H32.9478V115.363H36.6834V119.104H38.0191V115.363H41.7547V114.033Z" fill="#E0EEFF"/>
<path d="M26.8518 81.1312H24.7123V78.9917H23.9539V81.1312H21.8201V81.8896H23.9539V84.0234H24.7123V81.8896H26.8518V81.1312Z" fill="#E0EEFF"/>
<path d="M24.3332 171.267H22.1994V169.133H21.4409V171.267H19.3071V172.025H21.4409V174.159H22.1994V172.025H24.3332V171.267Z" fill="#E0EEFF"/>
<path d="M68.4869 36.8756H64.7456V33.14H63.4155V36.8756H59.6799V38.2057H63.4155V41.947H64.7456V38.2057H68.4869V36.8756Z" fill="#E0EEFF"/>
<path d="M110.846 33.3155C110.846 33.9664 110.32 34.4984 109.663 34.4984C109.007 34.4984 108.48 33.9721 108.48 33.3155C108.48 32.6589 109.007 32.1326 109.663 32.1326C110.32 32.1326 110.846 32.6589 110.846 33.3155Z" fill="#E0DCE3"/>
<path d="M216.541 120.321C216.541 121.555 215.539 122.557 214.306 122.557C213.072 122.557 212.07 121.555 212.07 120.321C212.07 119.087 213.072 118.085 214.306 118.085C215.539 118.085 216.541 119.087 216.541 120.321Z" fill="#E0DCE3"/>
<path d="M17.8129 111.978C17.8129 112.629 17.2865 113.161 16.63 113.161C15.9734 113.161 15.447 112.635 15.447 111.978C15.447 111.322 15.9734 110.795 16.63 110.795C17.2865 110.795 17.8129 111.322 17.8129 111.978Z" fill="#E0DCE3"/>
<path d="M86.6272 22.6918C86.6272 23.9256 85.6253 24.9275 84.3915 24.9275C83.1576 24.9275 82.1558 23.9256 82.1558 22.6918C82.1558 21.4579 83.1576 20.4561 84.3915 20.4561C85.6253 20.4561 86.6272 21.4579 86.6272 22.6918Z" fill="#E0DCE3"/>
<path d="M20.4901 53.3746C20.4901 54.0255 19.9638 54.5575 19.3072 54.5575C18.6506 54.5575 18.1243 54.0311 18.1243 53.3746C18.1243 52.718 18.6506 52.1917 19.3072 52.1917C19.9638 52.1917 20.4901 52.718 20.4901 53.3746Z" fill="#E0DCE3"/>
<path d="M26.5747 206.806C26.5747 208.04 25.5728 209.042 24.339 209.042C23.1051 209.042 22.1033 208.04 22.1033 206.806C22.1033 205.572 23.1051 204.57 24.339 204.57C25.5728 204.57 26.5747 205.572 26.5747 206.806Z" fill="#E0DCE3"/>
<path d="M186.764 143.827C186.764 144.478 186.237 145.01 185.581 145.01C184.924 145.01 184.398 144.484 184.398 143.827C184.398 143.17 184.924 142.644 185.581 142.644C186.237 142.644 186.764 143.17 186.764 143.827Z" fill="#E0DCE3"/>
<path d="M189.09 20.456C189.09 21.1069 188.564 21.639 187.907 21.639C187.251 21.639 186.724 21.1126 186.724 20.456C186.724 19.7995 187.251 19.2731 187.907 19.2731C188.564 19.2731 189.09 19.7995 189.09 20.456Z" fill="#E0DCE3"/>
<path d="M33.5363 136.543C33.5363 137.776 32.5345 138.778 31.3006 138.778C30.0668 138.778 29.0649 137.776 29.0649 136.543C29.0649 135.309 30.0668 134.307 31.3006 134.307C32.5345 134.307 33.5363 135.309 33.5363 136.543Z" fill="#E0DCE3"/>
<path d="M95.1455 42.5187C94.8852 42.9205 94.8795 43.1526 94.8965 43.1922C94.9191 43.2148 95.1173 43.3394 95.5927 43.3394H119.557C120.038 43.3394 120.231 43.2148 120.259 43.1809C120.27 43.1469 120.265 42.9149 120.004 42.513L108.333 24.6331C108.101 24.2765 107.818 24.0614 107.575 24.0614C107.332 24.0614 107.054 24.2765 106.816 24.6331L95.1455 42.513V42.5187Z" fill="#FF8F8F"/>
<path d="M119.551 45.875H95.5868C94.2341 45.875 93.17 45.3373 92.6606 44.3921C92.1512 43.4526 92.2814 42.264 93.0228 41.132L104.694 23.252C105.407 22.1596 106.46 21.5314 107.569 21.5314C108.678 21.5314 109.731 22.1596 110.444 23.252L122.115 41.132C122.851 42.264 122.987 43.4526 122.477 44.3921C121.968 45.3317 120.898 45.875 119.551 45.875ZM95.1453 42.5187C94.885 42.9205 94.8793 43.1526 94.8963 43.1922C94.9189 43.2148 95.117 43.3394 95.5925 43.3394H119.557C120.038 43.3394 120.23 43.2148 120.259 43.1809C120.27 43.1469 120.264 42.9149 120.004 42.513L108.333 24.6331C108.101 24.2765 107.818 24.0614 107.575 24.0614C107.331 24.0614 107.054 24.2765 106.816 24.6331L95.1453 42.513V42.5187Z" fill="#FF6666"/>
<path d="M106.896 40.6452C106.72 40.4641 106.629 40.249 106.629 39.983C106.629 39.7169 106.72 39.5019 106.896 39.3207C107.077 39.1453 107.292 39.0547 107.558 39.0547C107.824 39.0547 108.044 39.1453 108.226 39.3207C108.407 39.5019 108.503 39.7169 108.503 39.983C108.503 40.249 108.412 40.4641 108.226 40.6452C108.044 40.8206 107.818 40.9112 107.558 40.9112C107.297 40.9112 107.077 40.8206 106.896 40.6452ZM106.346 29.6818H108.797L108.339 37.5322H106.799L106.341 29.6818H106.346Z" fill="white"/>
<path d="M182.236 54.931C174.312 54.931 167.871 61.3778 167.871 69.2961C167.871 77.2144 174.318 83.6612 182.236 83.6612C190.154 83.6612 196.601 77.2144 196.601 69.2961C196.601 61.3778 190.154 54.931 182.236 54.931Z" fill="#FF8F8F"/>
<path d="M182.236 59.3628C176.757 59.3628 172.303 63.8172 172.303 69.2961C172.303 74.775 176.757 79.2294 182.236 79.2294C187.715 79.2294 192.169 74.775 192.169 69.2961C192.169 63.8172 187.715 59.3628 182.236 59.3628ZM182.236 61.2363C184.121 61.2363 185.858 61.8872 187.228 62.9795L175.914 74.2939C174.827 72.9185 174.171 71.1865 174.171 69.3018C174.171 64.8587 177.787 61.2419 182.23 61.2419L182.236 61.2363ZM182.236 77.3559C180.351 77.3559 178.614 76.705 177.244 75.6127L188.558 64.2983C189.645 65.6737 190.302 67.4057 190.302 69.2904C190.302 73.7335 186.685 77.3503 182.242 77.3503L182.236 77.3559Z" fill="white"/>
</svg>
