<svg width="48" height="48" viewBox="0 0 48 48" fill="none" xmlns="http://www.w3.org/2000/svg">
<circle cx="24" cy="24" r="24" fill="#ECE9EE"/>
<path d="M21.02 14.0765C21.9656 13.6957 22.9781 13.5 24 13.5C25.0219 13.5 26.0344 13.6957 26.98 14.0765C27.9256 14.4573 28.7865 15.0162 29.5131 15.7225C30.2397 16.4289 30.8176 17.2691 31.2124 18.1958C31.6072 19.1226 31.8108 20.117 31.8108 21.1219C31.8108 24.2772 32.4895 26.0116 33.0075 26.8817L33.0082 26.8827C33.1655 27.1477 33.2497 27.4506 33.25 27.7606C33.2503 28.0707 33.1667 28.3737 33.0097 28.639C32.853 28.9041 32.6293 29.1211 32.3641 29.2709C32.0989 29.4206 31.8001 29.499 31.4972 29.5L31.4938 29.5H16.5062L16.5028 29.5C16.1999 29.499 15.9011 29.4206 15.6359 29.2709C15.3707 29.1211 15.147 28.9041 14.9903 28.639C14.8333 28.3737 14.7497 28.0707 14.75 27.7606C14.7503 27.4506 14.8345 27.1477 14.9918 26.8827L14.9925 26.8817C15.5105 26.0116 16.1892 24.2772 16.1892 21.1219C16.1892 20.117 16.3928 19.1226 16.7876 18.1958C17.1824 17.2691 17.7603 16.4289 18.4869 15.7225C19.2135 15.0162 20.0744 14.4573 21.02 14.0765Z" fill="#D3CED6"/>
<path d="M20.75 31.3182C20.75 31.1425 20.8925 31 21.0682 31H26.9318C27.1075 31 27.25 31.1425 27.25 31.3182C27.25 33.0755 25.8255 34.5 24.0682 34.5H23.9318C22.1745 34.5 20.75 33.0755 20.75 31.3182Z" fill="#D3CED6"/>
</svg>
