<svg width="44" height="44" viewBox="0 0 44 44" fill="none" xmlns="http://www.w3.org/2000/svg">
<path d="M34.845 23.1758C34.5976 22.8818 34.4611 22.5038 34.4611 22.1125C34.4611 21.7212 34.5976 21.3432 34.845 21.0492L36.8203 18.7293C37.0379 18.4759 37.1731 18.1569 37.2064 17.8183C37.2397 17.4797 37.1693 17.1387 37.0055 16.8444L33.919 11.2703C33.7568 10.9763 33.5099 10.7433 33.2134 10.6044C32.9169 10.4655 32.586 10.4279 32.2678 10.497L29.3665 11.1092C28.9974 11.1888 28.6131 11.1246 28.2861 10.9287C27.9592 10.7328 27.7122 10.4188 27.5918 10.0459L26.6505 7.09769C26.547 6.77771 26.3497 6.49978 26.0866 6.3032C25.8236 6.10662 25.5079 6.00132 25.1844 6.00219H19.0116C18.675 5.98385 18.342 6.08101 18.0633 6.27883C17.7847 6.47664 17.5757 6.76424 17.4683 7.09769L16.6041 10.0459C16.4838 10.4188 16.2368 10.7328 15.9099 10.9287C15.5829 11.1246 15.1986 11.1888 14.8294 11.1092L11.851 10.497C11.5494 10.4525 11.2419 10.5022 10.9673 10.6398C10.6927 10.7774 10.4632 10.9968 10.3078 11.2703L7.22138 16.8444C7.05341 17.1355 6.97789 17.4745 7.00561 17.813C7.03332 18.1516 7.16286 18.4723 7.3757 18.7293L9.33558 21.0492C9.58299 21.3432 9.71943 21.7212 9.71943 22.1125C9.71943 22.5038 9.58299 22.8818 9.33558 23.1758L7.3757 25.4957C7.16286 25.7527 7.03332 26.0734 7.00561 26.412C6.97789 26.7505 7.05341 27.0895 7.22138 27.3806L10.3078 32.9547C10.47 33.2487 10.7169 33.4817 11.0134 33.6206C11.31 33.7595 11.6409 33.7971 11.9591 33.728L14.8603 33.1158C15.2295 33.0362 15.6138 33.1004 15.9407 33.2963C16.2677 33.4922 16.5146 33.8062 16.635 34.1791L17.5764 37.1273C17.6837 37.4608 17.8927 37.7484 18.1714 37.9462C18.45 38.144 18.7831 38.2411 19.1196 38.2228H25.2924C25.616 38.2237 25.9316 38.1184 26.1947 37.9218C26.4577 37.7252 26.655 37.4473 26.7585 37.1273L27.6999 34.1791C27.8202 33.8062 28.0672 33.4922 28.3941 33.2963C28.7211 33.1004 29.1054 33.0362 29.4746 33.1158L32.3758 33.728C32.694 33.7971 33.0249 33.7595 33.3214 33.6206C33.6179 33.4817 33.8649 33.2487 34.0271 32.9547L37.1135 27.3806C37.2773 27.0863 37.3477 26.7453 37.3144 26.4067C37.2811 26.0681 37.146 25.7491 36.9283 25.4957L34.845 23.1758ZM32.5456 25.3346L33.7801 26.7845L31.8048 30.361L29.9838 29.9743C28.8724 29.7372 27.7162 29.9342 26.7347 30.5282C25.7533 31.1222 25.0149 32.0716 24.6597 33.1964L24.0733 35.0007H20.1227L19.5671 33.1642C19.2119 32.0394 18.4736 31.0899 17.4921 30.496C16.5107 29.902 15.3545 29.7049 14.243 29.9421L12.422 30.3288L10.4158 26.7684L11.6504 25.3185C12.4096 24.4324 12.8293 23.2852 12.8293 22.0964C12.8293 20.9076 12.4096 19.7604 11.6504 18.8743L10.4158 17.4244L12.3912 13.8801L14.2121 14.2668C15.3236 14.504 16.4798 14.3069 17.4612 13.7129C18.4427 13.1189 19.1811 12.1695 19.5362 11.0447L20.1227 9.22425H24.0733L24.6597 11.0608C25.0149 12.1856 25.7533 13.1351 26.7347 13.729C27.7162 14.323 28.8724 14.5201 29.9838 14.2829L31.8048 13.8962L33.7801 17.4727L32.5456 18.9227C31.7949 19.8067 31.3804 20.9472 31.3804 22.1286C31.3804 23.31 31.7949 24.4505 32.5456 25.3346ZM22.098 15.6684C20.8771 15.6684 19.6837 16.0463 18.6685 16.7544C17.6534 17.4625 16.8622 18.4689 16.395 19.6464C15.9278 20.824 15.8055 22.1196 16.0437 23.3697C16.2819 24.6197 16.8698 25.768 17.7331 26.6692C18.5964 27.5704 19.6963 28.1842 20.8937 28.4328C22.0911 28.6815 23.3323 28.5538 24.4602 28.0661C25.5882 27.5784 26.5523 26.7524 27.2305 25.6927C27.9088 24.6329 28.2709 23.387 28.2709 22.1125C28.2709 20.4034 27.6205 18.7643 26.4629 17.5558C25.3052 16.3473 23.7351 15.6684 22.098 15.6684ZM22.098 25.3346C21.4876 25.3346 20.8908 25.1456 20.3833 24.7915C19.8757 24.4375 19.4801 23.9343 19.2465 23.3455C19.0129 22.7568 18.9518 22.1089 19.0709 21.4839C19.19 20.8589 19.4839 20.2848 19.9156 19.8342C20.3472 19.3835 20.8971 19.0767 21.4959 18.9523C22.0946 18.828 22.7151 18.8918 23.2791 19.1357C23.8431 19.3796 24.3251 19.7926 24.6643 20.3224C25.0034 20.8523 25.1844 21.4752 25.1844 22.1125C25.1844 22.967 24.8592 23.7866 24.2804 24.3908C23.7016 24.9951 22.9166 25.3346 22.098 25.3346Z" fill="#272727"/>
</svg>
