<svg width="46" height="46" viewBox="0 0 46 46" fill="none" xmlns="http://www.w3.org/2000/svg">
<path fill-rule="evenodd" clip-rule="evenodd" d="M46 23C46 35.7023 35.7023 46 23 46C10.2977 46 0 35.7023 0 23C0 10.2977 10.2977 0 23 0C35.7023 0 46 10.2977 46 23Z" fill="#CB98FF"/>
<path fill-rule="evenodd" clip-rule="evenodd" d="M31 35C31 36.6568 27.4182 38 23 38C18.5818 38 15 36.6568 15 35C15 33.3432 18.5818 32 23 32C27.4182 32 31 33.3432 31 35Z" fill="#AE6FED"/>
<path fill-rule="evenodd" clip-rule="evenodd" d="M22.3633 10.5155C15.7757 10.8387 11.0747 16.5012 12.1546 22.8371C13.0825 28.2814 17.6053 31.7137 21.9321 35.3513C22.5415 35.8648 23.4432 35.8625 24.0527 35.3478C28.9034 31.2515 34 27.2999 34 20.7901C34 14.6678 28.7276 10.2027 22.3633 10.5155Z" fill="white"/>
<circle cx="23" cy="21" r="4" fill="#CB98FF"/>
</svg>
