<svg width="20" height="20" viewBox="0 0 20 20" fill="none" xmlns="http://www.w3.org/2000/svg">
<path d="M7.22504 2.48038C8.013 2.16305 8.85676 2 9.70833 2C10.5599 2 11.4037 2.16305 12.1916 2.48038C12.9796 2.79773 13.6971 3.26346 14.3026 3.8521C14.908 4.44079 15.3896 5.14094 15.7186 5.9132C16.0477 6.68553 16.2174 7.51415 16.2174 8.35156C16.2174 10.981 16.7829 12.4264 17.2146 13.1514L17.2151 13.1522C17.3463 13.3731 17.4164 13.6255 17.4167 13.8839C17.4169 14.1422 17.3472 14.3947 17.2164 14.6158C17.0858 14.8368 16.8995 15.0176 16.6784 15.1424C16.4575 15.2672 16.2084 15.3325 15.956 15.3333L15.9532 15.3333H3.46349L3.46064 15.3333C3.20824 15.3325 2.95921 15.2672 2.73828 15.1424C2.51721 15.0176 2.33087 14.8368 2.20022 14.6158C2.06945 14.3947 1.99977 14.1422 2 13.8839C2.00024 13.6255 2.07038 13.3731 2.20154 13.1522L2.20205 13.1514C2.63378 12.4264 3.19931 10.981 3.19931 8.35156C3.19931 7.51415 3.36899 6.68553 3.69802 5.9132C4.02704 5.14094 4.50862 4.44079 5.11411 3.8521C5.71954 3.26346 6.43703 2.79773 7.22504 2.48038Z" fill="#A29EA7"/>
<path d="M7.5 16.5153C7.5 16.3689 7.61871 16.2502 7.76515 16.2502H12.6515C12.798 16.2502 12.9167 16.3689 12.9167 16.5153C12.9167 17.9797 11.7295 19.1669 10.2652 19.1669H10.1515C8.68712 19.1669 7.5 17.9797 7.5 16.5153Z" fill="#A29EA7"/>
</svg>
