<svg width="24" height="24" viewBox="0 0 24 24" fill="none" xmlns="http://www.w3.org/2000/svg">
<g clip-path="url(#clip0_6_3729)">
<path fill-rule="evenodd" clip-rule="evenodd" d="M13.9921 1.62721C12.9917 0.307877 11.0083 0.307877 10.0079 1.62721L9.40125 2.42728C8.85541 3.14716 7.96364 3.51654 7.06864 3.39348L6.07393 3.25672C4.43364 3.03119 3.03117 4.43366 3.2567 6.07395L3.39347 7.06866C3.51653 7.96366 3.14714 8.85542 2.42727 9.40127L1.6272 10.0079C0.307862 11.0083 0.307862 12.9917 1.6272 13.9921L2.42727 14.5987C3.14714 15.1446 3.51653 16.0364 3.39347 16.9314L3.2567 17.9261C3.03117 19.5664 4.43364 20.9688 6.07393 20.7433L7.06864 20.6065C7.96364 20.4835 8.85541 20.8529 9.40125 21.5727L10.0079 22.3728C11.0083 23.6921 12.9917 23.6921 13.9921 22.3728L14.5987 21.5727C15.1446 20.8529 16.0363 20.4835 16.9313 20.6065L17.926 20.7433C19.5663 20.9688 20.9688 19.5664 20.7433 17.9261L20.6065 16.9314C20.4835 16.0364 20.8528 15.1446 21.5727 14.5987L22.3728 13.9921C23.6921 12.9917 23.6921 11.0083 22.3728 10.0079L21.5727 9.40127C20.8528 8.85542 20.4835 7.96365 20.6065 7.06865L20.7433 6.07395C20.9688 4.43366 19.5663 3.03119 17.9261 3.25672L16.9313 3.39348C16.0363 3.51654 15.1446 3.14716 14.5987 2.42728L13.9921 1.62721ZM12 16C14.2091 16 16 14.2091 16 12C16 9.79087 14.2091 8.00001 12 8.00001C9.79085 8.00001 7.99999 9.79087 7.99999 12C7.99999 14.2091 9.79085 16 12 16Z" fill="#C5C0C8"/>
</g>
<defs>
<clipPath id="clip0_6_3729">
<rect width="24" height="24" fill="white"/>
</clipPath>
</defs>
</svg>
