<svg width="28" height="28" viewBox="0 0 28 28" fill="none" xmlns="http://www.w3.org/2000/svg">
<path d="M25 12.7882V13.3075C24.9902 13.3173 24.9753 13.3254 24.9713 13.3375C24.6957 14.2297 24.2365 14.5701 23.3036 14.5707H22.7169V14.8592C22.7169 17.3494 22.7169 19.8398 22.7169 22.3304C22.7169 23.3656 22.1027 23.9889 21.0797 23.99C19.7697 23.99 18.4594 23.99 17.149 23.99H16.8999V23.705C16.8999 22.4954 16.8999 21.2863 16.8999 20.0776C16.8999 19.6096 16.9137 19.1404 16.885 18.6742C16.7701 16.8668 15.0347 15.6071 13.2907 16.0572C11.9704 16.3983 11.1052 17.5327 11.1012 18.9494C11.0961 20.5404 11.1012 22.1307 11.1012 23.7217V23.9843C11.0203 23.9906 10.9652 23.9993 10.9095 23.9993C9.56999 23.9993 8.2305 23.9993 6.89101 23.9993C6.74071 24.0017 6.59064 23.9866 6.4438 23.9542C5.73655 23.7857 5.28361 23.1856 5.28304 22.4158C5.28074 19.8895 5.28074 17.3631 5.28304 14.8367V14.5713C5.17224 14.5713 5.09417 14.5759 5.01725 14.5713C4.69003 14.5494 4.34846 14.5776 4.04133 14.4899C3.47013 14.3278 3.13545 13.9013 3.0281 13.3173C2.92075 12.7334 3.12454 12.2446 3.5792 11.862C6.38372 9.50107 9.18785 7.13955 11.9916 4.77746C13.227 3.73876 14.7913 3.73876 16.0296 4.78612C18.7228 7.05588 21.4169 9.32564 24.1119 11.5954C24.504 11.9243 24.872 12.2613 25 12.7882Z" fill="#C5C0C8"/>
</svg>
