<svg width="257" height="251" viewBox="0 0 257 251" fill="none" xmlns="http://www.w3.org/2000/svg">
<g filter="url(#filter0_i_328_16442)">
<path d="M189.005 96.9745C189.16 96.0989 189.24 95.1982 189.24 94.2789C189.24 85.6788 182.179 78.707 173.468 78.707C166.992 78.707 161.428 82.5601 158.998 88.0708C157.031 86.3934 154.477 85.3807 151.687 85.3807C145.465 85.3807 140.42 90.4158 140.42 96.627C140.42 96.9729 140.436 97.3151 140.467 97.653C137.474 99.1003 135.413 102.137 135.413 105.649C135.413 110.563 139.449 114.547 144.426 114.547H186.987C191.965 114.547 196 110.563 196 105.649C196 101.419 193.011 97.8791 189.005 96.9745Z" fill="url(#paint0_linear_328_16442)"/>
</g>
<g filter="url(#filter1_f_328_16442)">
<rect x="77.3867" y="77" width="102.4" height="96.4267" rx="48.2133" fill="#FFEF9A"/>
</g>
<g filter="url(#filter2_i_328_16442)">
<path d="M173.813 125.213C173.813 150.427 153.565 170.866 128.587 170.866C103.609 170.866 83.3599 150.427 83.3599 125.213C83.3599 99.9993 103.609 79.5596 128.587 79.5596C153.565 79.5596 173.813 99.9993 173.813 125.213Z" fill="url(#paint1_linear_328_16442)"/>
</g>
<g filter="url(#filter3_i_328_16442)">
<path d="M121.591 160.121C121.746 159.245 121.827 158.345 121.827 157.425C121.827 148.825 114.765 141.854 106.054 141.854C99.5783 141.854 94.014 145.707 91.5849 151.217C89.6171 149.54 87.0635 148.527 84.273 148.527C78.0509 148.527 73.0069 153.562 73.0069 159.774C73.0069 160.119 73.0226 160.462 73.0532 160.8C70.0605 162.247 67.9998 165.283 67.9998 168.795C67.9998 173.71 72.035 177.694 77.0127 177.694H119.574C124.551 177.694 128.586 173.71 128.586 168.795C128.586 164.566 125.598 161.026 121.591 160.121Z" fill="url(#paint2_linear_328_16442)"/>
</g>
<defs>
<filter id="filter0_i_328_16442" x="135.414" y="78.707" width="60.5864" height="45.8398" filterUnits="userSpaceOnUse" color-interpolation-filters="sRGB">
<feFlood flood-opacity="0" result="BackgroundImageFix"/>
<feBlend mode="normal" in="SourceGraphic" in2="BackgroundImageFix" result="shape"/>
<feColorMatrix in="SourceAlpha" type="matrix" values="0 0 0 0 0 0 0 0 0 0 0 0 0 0 0 0 0 0 127 0" result="hardAlpha"/>
<feOffset dy="11"/>
<feGaussianBlur stdDeviation="5"/>
<feComposite in2="hardAlpha" operator="arithmetic" k2="-1" k3="1"/>
<feColorMatrix type="matrix" values="0 0 0 0 1 0 0 0 0 1 0 0 0 0 1 0 0 0 1 0"/>
<feBlend mode="normal" in2="shape" result="effect1_innerShadow_328_16442"/>
</filter>
<filter id="filter1_f_328_16442" x="0.386719" y="0" width="256.4" height="250.427" filterUnits="userSpaceOnUse" color-interpolation-filters="sRGB">
<feFlood flood-opacity="0" result="BackgroundImageFix"/>
<feBlend mode="normal" in="SourceGraphic" in2="BackgroundImageFix" result="shape"/>
<feGaussianBlur stdDeviation="38.5" result="effect1_foregroundBlur_328_16442"/>
</filter>
<filter id="filter2_i_328_16442" x="83.3599" y="79.5596" width="90.4531" height="96.3066" filterUnits="userSpaceOnUse" color-interpolation-filters="sRGB">
<feFlood flood-opacity="0" result="BackgroundImageFix"/>
<feBlend mode="normal" in="SourceGraphic" in2="BackgroundImageFix" result="shape"/>
<feColorMatrix in="SourceAlpha" type="matrix" values="0 0 0 0 0 0 0 0 0 0 0 0 0 0 0 0 0 0 127 0" result="hardAlpha"/>
<feOffset dy="5"/>
<feGaussianBlur stdDeviation="9"/>
<feComposite in2="hardAlpha" operator="arithmetic" k2="-1" k3="1"/>
<feColorMatrix type="matrix" values="0 0 0 0 1 0 0 0 0 1 0 0 0 0 1 0 0 0 0.81 0"/>
<feBlend mode="normal" in2="shape" result="effect1_innerShadow_328_16442"/>
</filter>
<filter id="filter3_i_328_16442" x="68" y="141.854" width="60.5864" height="45.8398" filterUnits="userSpaceOnUse" color-interpolation-filters="sRGB">
<feFlood flood-opacity="0" result="BackgroundImageFix"/>
<feBlend mode="normal" in="SourceGraphic" in2="BackgroundImageFix" result="shape"/>
<feColorMatrix in="SourceAlpha" type="matrix" values="0 0 0 0 0 0 0 0 0 0 0 0 0 0 0 0 0 0 127 0" result="hardAlpha"/>
<feOffset dy="11"/>
<feGaussianBlur stdDeviation="5"/>
<feComposite in2="hardAlpha" operator="arithmetic" k2="-1" k3="1"/>
<feColorMatrix type="matrix" values="0 0 0 0 1 0 0 0 0 1 0 0 0 0 1 0 0 0 1 0"/>
<feBlend mode="normal" in2="shape" result="effect1_innerShadow_328_16442"/>
</filter>
<linearGradient id="paint0_linear_328_16442" x1="139.267" y1="111.347" x2="200.234" y2="65.5941" gradientUnits="userSpaceOnUse">
<stop stop-color="white"/>
<stop offset="1" stop-color="white" stop-opacity="0.58"/>
</linearGradient>
<linearGradient id="paint1_linear_328_16442" x1="121.717" y1="150.062" x2="159.458" y2="84.4877" gradientUnits="userSpaceOnUse">
<stop stop-color="#FF9900"/>
<stop offset="1" stop-color="#FFEE94"/>
</linearGradient>
<linearGradient id="paint2_linear_328_16442" x1="71.8533" y1="174.494" x2="132.82" y2="128.741" gradientUnits="userSpaceOnUse">
<stop stop-color="white"/>
<stop offset="1" stop-color="white" stop-opacity="0.58"/>
</linearGradient>
</defs>
</svg>
