<svg width="40" height="40" viewBox="0 0 40 40" fill="none" xmlns="http://www.w3.org/2000/svg">
<path fill-rule="evenodd" clip-rule="evenodd" d="M20 40C8.95455 40 0 31.0455 0 20C0 8.95455 8.95455 0 20 0C31.0455 0 40 8.95455 40 20C40 31.0455 31.0455 40 20 40Z" fill="#8DC1FF"/>
<g clip-path="url(#clip0_1040_2573)">
<path d="M18.3503 9.83231C19.0867 8.56798 20.9133 8.56798 21.6497 9.8323L23.7793 13.4886C24.049 13.9517 24.501 14.2801 25.0249 14.3936L29.1603 15.2891C30.5903 15.5987 31.1547 17.3359 30.1798 18.4269L27.3606 21.5821C27.0035 21.9818 26.8308 22.5132 26.8848 23.0465L27.311 27.2562C27.4584 28.7119 25.9807 29.7855 24.6418 29.1955L20.7698 27.4892C20.2794 27.2731 19.7206 27.2731 19.2302 27.4892L15.3582 29.1955C14.0193 29.7855 12.5416 28.7119 12.689 27.2562L13.1152 23.0465C13.1692 22.5132 12.9965 21.9818 12.6394 21.5821L9.82017 18.4269C8.84529 17.3359 9.40971 15.5987 10.8397 15.2891L14.9751 14.3936C15.499 14.2801 15.951 13.9517 16.2207 13.4886L18.3503 9.83231Z" fill="white"/>
</g>
<defs>
<clipPath id="clip0_1040_2573">
<rect width="26" height="26" fill="white" transform="translate(7 7)"/>
</clipPath>
</defs>
</svg>
