<svg width="23" height="24" viewBox="0 0 23 24" fill="none" xmlns="http://www.w3.org/2000/svg">
<path d="M1 11.1049C1.02907 11.1691 1.00439 11.2415 1.03455 11.3068C1.04278 11.2305 1.04059 11.1537 1.04717 11.077C1.16399 9.71789 1.54297 8.43451 2.1693 7.22463C2.49014 6.60542 2.88119 6.03065 3.31008 5.4811C3.6397 5.05879 4.01539 4.68091 4.40698 4.31673C5.1101 3.66243 5.89877 3.12714 6.75052 2.68783C7.3231 2.39277 7.92366 2.15803 8.54396 1.97868C8.95694 1.85912 9.37376 1.75766 9.79717 1.688C10.2206 1.61835 10.6456 1.5657 11.0762 1.55199C11.2884 1.54541 11.5007 1.53992 11.7135 1.54266C12.4051 1.55144 13.0873 1.637 13.763 1.78453C14.8243 2.01598 15.8285 2.39277 16.7685 2.93738C17.0077 3.07614 17.2408 3.22367 17.4717 3.37614C17.4898 3.38821 17.5117 3.41453 17.5309 3.40082C17.555 3.38272 17.5309 3.35475 17.5238 3.33226C17.4771 3.17979 17.4168 3.03171 17.3899 2.87376C17.2983 2.34066 17.6367 1.7604 18.1468 1.57941C18.8192 1.34083 19.4889 1.654 19.7198 2.3286C20.0499 3.29442 20.3691 4.26408 20.6927 5.2321C20.7602 5.43283 20.8254 5.63466 20.894 5.83485C21.1189 6.49135 20.6785 7.20653 20 7.35187C19.9216 7.36887 19.8421 7.37545 19.762 7.37545C18.5872 7.37545 17.413 7.376 16.2382 7.3749C15.5998 7.37435 15.1067 6.94162 15.0415 6.30816C15.0097 6.00158 15.1106 5.72351 15.3058 5.48274C15.432 5.32698 15.591 5.21455 15.7758 5.13886C15.7978 5.12954 15.8329 5.12899 15.8356 5.10047C15.8384 5.0714 15.8038 5.06482 15.7841 5.05276C15.0864 4.63484 14.3493 4.31344 13.5557 4.12203C13.1038 4.01344 12.6486 3.9383 12.1857 3.89881C11.8111 3.86646 11.4359 3.85878 11.063 3.87962C10.2332 3.92624 9.42587 4.09297 8.64652 4.38694C7.73554 4.73082 6.90902 5.21674 6.17409 5.85404C5.48359 6.45241 4.90169 7.14236 4.44592 7.93432C3.97371 8.75536 3.64518 9.63068 3.47516 10.5636C3.41099 10.9157 3.38028 11.2717 3.35999 11.6287C3.34902 11.8201 3.34737 12.011 3.34902 12.2024C3.35231 12.6406 3.40606 13.0744 3.48284 13.5049C3.69783 14.717 4.17225 15.8205 4.89785 16.8138C5.1792 17.1988 5.4814 17.5679 5.83186 17.8948C6.2783 18.3116 6.75271 18.6889 7.27868 19.0059C7.9604 19.4173 8.68216 19.7288 9.45274 19.9262C9.96664 20.0579 10.4882 20.1423 11.0191 20.1719C11.5199 20.1999 12.0178 20.1862 12.5158 20.1308C13.4899 20.0222 14.4091 19.7376 15.2784 19.2911C15.7342 19.0569 16.1696 18.7893 16.5689 18.4662C17.2907 17.8821 17.9274 17.2213 18.4271 16.4353C18.7912 15.8633 19.0868 15.2578 19.2969 14.6134C19.4329 14.1954 19.5514 13.7715 19.6112 13.3344C19.6539 13.0212 19.6885 12.707 19.7039 12.3899C19.7121 12.2216 19.7022 12.0526 19.7241 11.8848C19.7894 11.3852 20.1997 10.964 20.7031 10.8823C21.3114 10.7841 21.8499 11.1334 22.0249 11.7406C22.0298 11.757 22.0337 11.774 22.0392 11.7949C22.049 11.7795 22.0551 11.7707 22.0611 11.7614V12.8282C22.054 12.8057 22.0468 12.7832 22.0435 12.7739C21.8159 15.4399 20.7788 17.7406 18.8324 19.6142C16.8837 21.4899 14.5303 22.4233 11.8369 22.5621C11.8572 22.5742 11.872 22.5835 11.8873 22.5928H11.0921C11.1008 22.5566 11.0849 22.5423 11.0493 22.5434C10.9736 22.5451 10.8985 22.5314 10.8239 22.5308C10.4471 22.5303 10.0785 22.4606 9.71051 22.397C8.72549 22.227 7.7849 21.9166 6.88818 21.4761C6.27556 21.1756 5.70243 20.8131 5.15233 20.4089C4.52984 19.952 3.98742 19.4123 3.48613 18.831C3.12525 18.4125 2.81373 17.9567 2.52086 17.4878C2.15065 16.8955 1.85339 16.2681 1.61811 15.6126C1.44754 15.1366 1.31152 14.649 1.2128 14.1521C1.12943 13.7326 1.04991 13.3113 1.04991 12.8808C1.04991 12.8419 1.04333 12.8024 1.03894 12.7497C1.01261 12.843 1.03181 12.928 1.00055 13.0053V11.1044L1 11.1049Z" fill="#BE7FFF"/>
</svg>
