<svg width="49" height="50" viewBox="0 0 49 50" fill="none" xmlns="http://www.w3.org/2000/svg">
<path d="M17.1836 43.9099C17.1836 41.2343 18.7214 38.9276 20.9357 37.7897V16.5381H18.7521V36.498C16.507 37.6359 15 39.9426 15 42.6182C15 45.5707 16.8761 48.0926 19.4902 49.046C18.0755 47.7851 17.1836 45.9705 17.1836 43.9099Z" fill="#FF6666"/>
<path d="M20.9663 1.65283C19.7053 2.05265 18.7827 3.22133 18.7827 4.6053V16.5074H20.9663V1.65283Z" fill="white"/>
<path d="M20.9664 16.5381V37.7897C18.7213 38.9276 17.1836 41.2343 17.1836 43.9099C17.1836 45.9705 18.0755 47.7851 19.4902 49.046C20.2283 49.3228 21.028 49.4766 21.8891 49.4766C25.6719 49.4766 28.7474 46.4011 28.7474 42.6182C28.7474 39.9426 27.2097 37.6359 24.9953 36.498V16.5381H20.9664Z" fill="#DB5858"/>
<path d="M21.889 1.5C21.5814 1.5 21.2739 1.56151 20.9663 1.65377V16.5084H24.9952V4.60624C24.9952 2.88397 23.6112 1.5 21.889 1.5Z" fill="#E0DCE3"/>
<path d="M37.9431 37.2981C38.5889 37.2981 39.1425 37.1751 39.6038 36.9598C40.0651 36.7446 40.5572 36.4063 41.0801 35.9142L42.2795 37.1444C41.1108 38.4361 39.6654 39.1127 38.0046 39.1127C36.3438 39.1127 34.9291 38.5591 33.8219 37.4827C32.7147 36.4063 32.1611 35.0223 32.1611 33.3923C32.1611 31.7623 32.7147 30.3475 33.8527 29.2711C34.9906 28.1639 36.4053 27.6104 38.1276 27.6104C39.8499 27.6104 41.2953 28.2562 42.4333 29.5172L41.2338 30.8089C40.711 30.286 40.2189 29.9477 39.7269 29.7324C39.2655 29.5172 38.7119 29.4249 38.0661 29.4249C36.9281 29.4249 36.0055 29.7939 35.2366 30.5013C34.4677 31.2394 34.0987 32.1621 34.0987 33.3C34.0987 34.4379 34.4677 35.3606 35.2366 36.1295C36.0055 36.8983 36.8974 37.2674 37.9431 37.2674V37.2981Z" fill="#FF6666"/>
<path d="M29.6701 25.1504C28.2861 25.1504 27.179 26.2576 27.179 27.6415C27.179 29.0255 28.2861 30.1327 29.6701 30.1327C31.0541 30.1327 32.1612 29.0255 32.1612 27.6415C32.1612 26.2576 31.0541 25.1504 29.6701 25.1504ZM29.6701 28.7795C29.055 28.7795 28.5322 28.2566 28.5322 27.6415C28.5322 27.0264 29.055 26.5036 29.6701 26.5036C30.2852 26.5036 30.808 27.0264 30.808 27.6415C30.808 28.2566 30.2852 28.7795 29.6701 28.7795Z" fill="#FF6666"/>
<path d="M24.9954 18.2305H21.9199V19.4607H24.9954V18.2305Z" fill="#F5F4F6"/>
<path d="M24.9954 21.7671H21.9199V23.028H24.9954V21.7671Z" fill="#F5F4F6"/>
<path d="M24.9954 25.3037H21.9199V26.5647H24.9954V25.3037Z" fill="#F5F4F6"/>
<path d="M24.9954 28.8398H21.9199V30.1008H24.9954V28.8398Z" fill="#F5F4F6"/>
<path d="M24.9954 32.3779H21.9199V33.6389H24.9954V32.3779Z" fill="#F5F4F6"/>
</svg>
