<svg width="110" height="89" viewBox="0 0 110 89" fill="none" xmlns="http://www.w3.org/2000/svg">
<g filter="url(#filter0_d_35_1186)">
<path opacity="0.1" d="M54.889 73C51.9789 72.9895 49.0867 72.5445 46.3081 71.6796C39.4976 69.5718 33.7095 65.0155 30.0612 58.8904C26.413 52.7654 25.1634 45.5059 26.5536 38.5135C27.5316 33.6294 29.6287 29.2698 32.7879 25.5546C35.8744 21.9287 39.643 19.1933 43.9886 17.4255C44.7232 17.1269 45.4132 16.8844 46.0795 16.6497C46.3422 16.5621 46.5996 16.4667 46.8579 16.373L47.885 16H50.905L52.1089 16.535C56.6621 18.5576 57.4921 22.5521 56.8214 25.3584C56.4475 26.9223 55.649 28.0851 55.0798 28.8241C53.9083 30.3485 53.2577 32.1155 53.0931 34.2266C52.9092 36.5767 53.4215 38.6807 54.6587 40.657C56.1533 43.0456 58.1313 44.5201 60.8825 45.2977C61.7848 45.5548 62.7182 45.6865 63.6564 45.6891C64.4406 45.6878 65.2224 45.5997 65.9872 45.4264C67.5721 45.0691 69.001 44.3687 70.3565 43.2838C71.9326 42.0229 73.7573 41.3575 75.6364 41.3575C78.9864 41.3575 81.8978 43.5465 82.882 46.8081C83.2062 47.8833 83.2704 49.02 83.0694 50.1249V50.1485C82.9952 50.6114 82.8809 51.067 82.7279 51.5101V51.5048C82.6254 51.8113 82.523 52.1431 82.4136 52.4943C82.1148 53.5198 81.7578 54.5275 81.3444 55.5125C78.5162 62.0208 73.886 66.8874 67.5835 69.9757C63.4839 71.9817 59.2144 73 54.889 73Z" fill="#FFEE94"/>
</g>
<path d="M48.9767 22.2072H49.5896C50.5528 22.6353 50.9687 23.1616 50.7874 23.919C50.6911 24.3217 50.4241 24.707 50.1631 25.0432C48.1869 27.614 47.1581 30.5473 46.9085 33.7459C46.6222 37.4067 47.4453 40.8295 49.4005 43.9528C51.7173 47.653 55 50.082 59.1959 51.2719C61.8539 52.0297 64.6608 52.1008 67.3539 51.4786C69.908 50.9024 72.1907 49.7633 74.2343 48.1285C75.3726 47.2188 76.588 47.4228 76.9426 48.5987C77.0074 48.8115 76.975 48.9489 76.9426 49.1503C76.9227 49.2805 76.8898 49.4084 76.8445 49.5321C76.4514 50.7019 76.144 51.9094 75.6537 53.0345C73.4402 58.1288 69.8476 61.9516 64.8523 64.3998C59.4656 67.0389 53.8617 67.5056 48.1282 65.7456C37.0729 62.3492 30.371 51.0469 32.6362 39.728C33.3962 35.9296 35.0003 32.5323 37.5116 29.5762C39.9326 26.7314 42.8624 24.5853 46.3245 23.1729C47.1975 22.8218 48.0923 22.5285 48.9767 22.2072Z" fill="#FFEE94"/>
<path d="M75.1016 32.936C75.1016 33.506 74.5597 33.7871 74.2322 33.9236C72.1859 34.7765 70.7832 36.2002 69.9137 38.2483C69.5232 39.1703 68.5311 39.1028 67.9874 38.236C67.973 38.2136 67.961 38.1899 67.9515 38.1651C67.1836 36.1319 65.7467 34.8019 63.7582 33.9429C62.7399 33.5051 62.7478 32.3984 63.7792 31.9641C65.7852 31.1191 67.1302 29.7348 67.9882 27.7463C68.4208 26.7437 69.5407 26.7516 69.9697 27.7682C70.8147 29.7742 72.1833 31.1541 74.1884 31.9711C74.5229 32.1085 75.1016 32.3651 75.1016 32.936Z" fill="#FFEE94"/>
<defs>
<filter id="filter0_d_35_1186" x="10" y="0" width="89.1841" height="89" filterUnits="userSpaceOnUse" color-interpolation-filters="sRGB">
<feFlood flood-opacity="0" result="BackgroundImageFix"/>
<feColorMatrix in="SourceAlpha" type="matrix" values="0 0 0 0 0 0 0 0 0 0 0 0 0 0 0 0 0 0 127 0" result="hardAlpha"/>
<feOffset/>
<feGaussianBlur stdDeviation="8"/>
<feColorMatrix type="matrix" values="0 0 0 0 1 0 0 0 0 0.933333 0 0 0 0 0.580392 0 0 0 0.5 0"/>
<feBlend mode="normal" in2="BackgroundImageFix" result="effect1_dropShadow_35_1186"/>
<feBlend mode="normal" in="SourceGraphic" in2="effect1_dropShadow_35_1186" result="shape"/>
</filter>
</defs>
</svg>
