<svg width="28" height="28" viewBox="0 0 28 28" fill="none" xmlns="http://www.w3.org/2000/svg">
<path d="M6.89913 13.8036C6.78381 13.9412 6.66085 14.0728 6.53078 14.1976C6.12802 14.5488 5.57042 14.5555 5.18252 14.1886C4.20912 13.2683 3.24458 12.3395 2.28891 11.4021C1.89788 11.0179 1.90572 10.4675 2.30065 10.0856C3.95861 8.48178 5.61735 6.87875 7.29642 5.29603C7.4716 5.13136 7.77972 5.03662 8.03311 5.02234C8.69395 4.98474 9.36262 5.0043 10.0227 5.01182C10.4481 5.01633 10.6303 5.16219 10.7601 5.55919C11.2294 6.99379 12.4924 7.91786 13.9932 7.92162C15.5119 7.92162 16.7859 7.00432 17.259 5.56069C17.3959 5.14565 17.5718 5.01483 18.0223 5.01107C18.6667 5.00505 19.3104 5.01107 19.9548 5.01107C20.1155 5.00901 20.2748 5.03894 20.4229 5.09898C20.5709 5.15902 20.7045 5.24788 20.8151 5.35994C22.425 6.91385 24.0371 8.46775 25.6513 10.0217C26.1205 10.4728 26.115 11.0292 25.6419 11.4893C24.7504 12.3565 23.8552 13.2207 22.9563 14.0818C22.4378 14.5781 21.8802 14.5781 21.3711 14.0818C21.2848 13.9825 21.2081 13.8758 21.1419 13.763L21.0324 13.8382V14.1337C21.0324 16.7403 21.0324 19.3486 21.0324 21.9586C21.0324 23.2496 20.2504 23.9992 18.9045 24C15.6355 24 12.3668 24 9.09828 24C7.75627 24 6.97655 23.2421 6.97655 21.9496C6.97655 19.3501 6.97655 16.751 6.97655 14.1525V13.845L6.89913 13.8036Z" fill="#19141F"/>
</svg>
