<svg width="98" height="98" viewBox="0 0 98 98" fill="none" xmlns="http://www.w3.org/2000/svg">
<g id="Frame 5532">
<g id="clouds" filter="url(#filter0_di_2608_7783)">
<path d="M80.648 49.5403C80.8549 48.364 80.9628 47.154 80.9628 45.9191C80.9628 34.3658 71.5219 25 59.876 25C51.2183 25 43.7792 30.1762 40.5317 37.5792C37.9008 35.3258 34.4869 33.9653 30.7562 33.9653C22.4377 33.9653 15.6942 40.7295 15.6942 49.0735C15.6942 49.5382 15.7151 49.9979 15.7561 50.4518C11.755 52.396 9 56.4755 9 61.1933C9 67.7952 14.3948 73.147 21.0496 73.147H77.9504C84.6052 73.147 90 67.7952 90 61.1933C90 55.5115 86.0041 50.7555 80.648 49.5403Z" fill="url(#paint0_linear_2608_7783)" shape-rendering="crispEdges"/>
</g>
</g>
<defs>
<filter id="filter0_di_2608_7783" x="5" y="25" width="89" height="58.1475" filterUnits="userSpaceOnUse" color-interpolation-filters="sRGB">
<feFlood flood-opacity="0" result="BackgroundImageFix"/>
<feColorMatrix in="SourceAlpha" type="matrix" values="0 0 0 0 0 0 0 0 0 0 0 0 0 0 0 0 0 0 127 0" result="hardAlpha"/>
<feOffset dy="4"/>
<feGaussianBlur stdDeviation="2"/>
<feComposite in2="hardAlpha" operator="out"/>
<feColorMatrix type="matrix" values="0 0 0 0 0 0 0 0 0 0 0 0 0 0 0 0 0 0 0.25 0"/>
<feBlend mode="normal" in2="BackgroundImageFix" result="effect1_dropShadow_2608_7783"/>
<feBlend mode="normal" in="SourceGraphic" in2="effect1_dropShadow_2608_7783" result="shape"/>
<feColorMatrix in="SourceAlpha" type="matrix" values="0 0 0 0 0 0 0 0 0 0 0 0 0 0 0 0 0 0 127 0" result="hardAlpha"/>
<feOffset dy="11"/>
<feGaussianBlur stdDeviation="5"/>
<feComposite in2="hardAlpha" operator="arithmetic" k2="-1" k3="1"/>
<feColorMatrix type="matrix" values="0 0 0 0 1 0 0 0 0 1 0 0 0 0 1 0 0 0 1 0"/>
<feBlend mode="normal" in2="shape" result="effect2_innerShadow_2608_7783"/>
</filter>
<linearGradient id="paint0_linear_2608_7783" x1="36.871" y1="60.2742" x2="74.3755" y2="17.6433" gradientUnits="userSpaceOnUse">
<stop stop-color="#DFDFDF"/>
<stop offset="1" stop-color="white" stop-opacity="0.58"/>
</linearGradient>
</defs>
</svg>
