<svg width="165" height="171" viewBox="0 0 165 171" fill="none" xmlns="http://www.w3.org/2000/svg">
<g id="sun clouds">
<g id="11" filter="url(#filter0_f_2608_7823)">
<path d="M82.7344 53.3802C75.4335 63.3404 74.1675 76.9335 80.6079 88.1421C87.0484 99.3507 99.3971 105.046 111.632 103.673C109.031 107.222 105.663 110.31 101.605 112.664C86.1566 121.626 66.5521 116.566 57.8168 101.364C49.0814 86.1611 54.523 66.5721 69.971 57.6105C74.0294 55.2561 78.3747 53.8695 82.7344 53.3802Z" fill="#FFEE94"/>
</g>
<g id="clouds" filter="url(#filter1_i_2608_7823)">
<path d="M98.4922 75.3597C98.5667 74.9338 98.6055 74.4957 98.6055 74.0485C98.6055 69.865 95.207 66.4736 91.0148 66.4736C87.8983 66.4736 85.2204 68.3479 84.0514 71.0286C83.1043 70.2126 81.8754 69.72 80.5325 69.72C77.5381 69.72 75.1106 72.1693 75.1106 75.1907C75.1106 75.359 75.1181 75.5255 75.1329 75.6898C73.6926 76.3938 72.7009 77.871 72.7009 79.5793C72.7009 81.9699 74.6428 83.9078 77.0384 83.9078H97.5211C99.9167 83.9078 101.859 81.9699 101.859 79.5793C101.859 77.5219 100.42 75.7998 98.4922 75.3597Z" fill="url(#paint0_linear_2608_7823)"/>
</g>
<g id="1" filter="url(#filter2_i_2608_7823)">
<path d="M82.0536 57.5784C75.3891 66.6704 74.2334 79.0786 80.1125 89.3102C85.9915 99.5418 97.2639 104.74 108.432 103.487C106.058 106.727 102.983 109.545 99.2788 111.695C85.1774 119.875 67.2819 115.257 59.3079 101.379C51.334 87.5018 56.3013 69.6204 70.4027 61.4399C74.1074 59.2908 78.0739 58.025 82.0536 57.5784Z" fill="url(#paint1_linear_2608_7823)"/>
</g>
<g id="clouds_2" filter="url(#filter3_di_2608_7823)">
<path d="M75.6312 106.947C75.7832 106.08 75.8624 105.189 75.8624 104.279C75.8624 95.7702 68.9274 88.8721 60.3725 88.8721C54.0127 88.8721 48.5481 92.6844 46.1626 98.1369C44.23 96.4773 41.7222 95.4752 38.9817 95.4752C32.8711 95.4752 27.9175 100.457 27.9175 106.603C27.9175 106.945 27.9328 107.284 27.9629 107.618C25.0238 109.05 23.0001 112.054 23.0001 115.529C23.0001 120.392 26.963 124.333 31.8514 124.333H73.6496C78.5381 124.333 82.501 120.392 82.501 115.529C82.501 111.344 79.5656 107.842 75.6312 106.947Z" fill="url(#paint2_linear_2608_7823)"/>
</g>
</g>
<defs>
<filter id="filter0_f_2608_7823" x="0.648926" y="0.379883" width="163.983" height="169.716" filterUnits="userSpaceOnUse" color-interpolation-filters="sRGB">
<feFlood flood-opacity="0" result="BackgroundImageFix"/>
<feBlend mode="normal" in="SourceGraphic" in2="BackgroundImageFix" result="shape"/>
<feGaussianBlur stdDeviation="26.5" result="effect1_foregroundBlur_2608_7823"/>
</filter>
<filter id="filter1_i_2608_7823" x="72.7009" y="66.4736" width="29.1577" height="27.4346" filterUnits="userSpaceOnUse" color-interpolation-filters="sRGB">
<feFlood flood-opacity="0" result="BackgroundImageFix"/>
<feBlend mode="normal" in="SourceGraphic" in2="BackgroundImageFix" result="shape"/>
<feColorMatrix in="SourceAlpha" type="matrix" values="0 0 0 0 0 0 0 0 0 0 0 0 0 0 0 0 0 0 127 0" result="hardAlpha"/>
<feOffset dy="11"/>
<feGaussianBlur stdDeviation="5"/>
<feComposite in2="hardAlpha" operator="arithmetic" k2="-1" k3="1"/>
<feColorMatrix type="matrix" values="0 0 0 0 1 0 0 0 0 1 0 0 0 0 1 0 0 0 1 0"/>
<feBlend mode="normal" in2="shape" result="effect1_innerShadow_2608_7823"/>
</filter>
<filter id="filter2_i_2608_7823" x="55.5034" y="57.5781" width="52.929" height="62.1621" filterUnits="userSpaceOnUse" color-interpolation-filters="sRGB">
<feFlood flood-opacity="0" result="BackgroundImageFix"/>
<feBlend mode="normal" in="SourceGraphic" in2="BackgroundImageFix" result="shape"/>
<feColorMatrix in="SourceAlpha" type="matrix" values="0 0 0 0 0 0 0 0 0 0 0 0 0 0 0 0 0 0 127 0" result="hardAlpha"/>
<feOffset dy="4"/>
<feGaussianBlur stdDeviation="4"/>
<feComposite in2="hardAlpha" operator="arithmetic" k2="-1" k3="1"/>
<feColorMatrix type="matrix" values="0 0 0 0 1 0 0 0 0 1 0 0 0 0 1 0 0 0 0.55 0"/>
<feBlend mode="normal" in2="shape" result="effect1_innerShadow_2608_7823"/>
</filter>
<filter id="filter3_di_2608_7823" x="19" y="88.8721" width="67.501" height="45.4609" filterUnits="userSpaceOnUse" color-interpolation-filters="sRGB">
<feFlood flood-opacity="0" result="BackgroundImageFix"/>
<feColorMatrix in="SourceAlpha" type="matrix" values="0 0 0 0 0 0 0 0 0 0 0 0 0 0 0 0 0 0 127 0" result="hardAlpha"/>
<feOffset dy="4"/>
<feGaussianBlur stdDeviation="2"/>
<feColorMatrix type="matrix" values="0 0 0 0 0 0 0 0 0 0 0 0 0 0 0 0 0 0 0.25 0"/>
<feBlend mode="normal" in2="BackgroundImageFix" result="effect1_dropShadow_2608_7823"/>
<feBlend mode="normal" in="SourceGraphic" in2="effect1_dropShadow_2608_7823" result="shape"/>
<feColorMatrix in="SourceAlpha" type="matrix" values="0 0 0 0 0 0 0 0 0 0 0 0 0 0 0 0 0 0 127 0" result="hardAlpha"/>
<feOffset dy="11"/>
<feGaussianBlur stdDeviation="5"/>
<feComposite in2="hardAlpha" operator="arithmetic" k2="-1" k3="1"/>
<feColorMatrix type="matrix" values="0 0 0 0 1 0 0 0 0 1 0 0 0 0 1 0 0 0 1 0"/>
<feBlend mode="normal" in2="shape" result="effect2_innerShadow_2608_7823"/>
</filter>
<linearGradient id="paint0_linear_2608_7823" x1="91.6012" y1="86.5196" x2="87.3924" y2="74.9172" gradientUnits="userSpaceOnUse">
<stop stop-color="white"/>
<stop offset="1" stop-color="white" stop-opacity="0.11"/>
</linearGradient>
<linearGradient id="paint1_linear_2608_7823" x1="83.5048" y1="52.7566" x2="72.8257" y2="117.111" gradientUnits="userSpaceOnUse">
<stop stop-color="#FFEE94"/>
<stop offset="1" stop-color="#FF9900"/>
</linearGradient>
<linearGradient id="paint2_linear_2608_7823" x1="26.7846" y1="121.167" x2="86.9803" y2="76.329" gradientUnits="userSpaceOnUse">
<stop stop-color="white"/>
<stop offset="1" stop-color="white" stop-opacity="0.83"/>
</linearGradient>
</defs>
</svg>
