<svg width="222" height="219" viewBox="0 0 222 219" fill="none" xmlns="http://www.w3.org/2000/svg">
<g id="sun clouds">
<g id="Group 6495">
<g id="1" filter="url(#filter0_f_2608_7836)">
<rect x="77.0901" y="77" width="67.91" height="64.3296" rx="32.1648" fill="#FFEF9A"/>
</g>
<g id="clouds" filter="url(#filter1_i_2608_7836)">
<path d="M150.791 93.8861C150.866 93.4602 150.905 93.0221 150.905 92.5749C150.905 88.3914 147.506 85 143.314 85C140.197 85 137.519 86.8743 136.35 89.555C135.403 88.739 134.175 88.2464 132.832 88.2464C129.837 88.2464 127.41 90.6957 127.41 93.7171C127.41 93.8853 127.417 94.0518 127.432 94.2162C125.992 94.9202 125 96.3974 125 98.1057C125 100.496 126.942 102.434 129.337 102.434H149.82C152.216 102.434 154.158 100.496 154.158 98.1057C154.158 96.0483 152.719 94.3261 150.791 93.8861Z" fill="url(#paint0_linear_2608_7836)"/>
</g>
<g id="1_2" filter="url(#filter2_i_2608_7836)">
<path d="M140.473 109.289C140.473 125.638 127.298 138.892 111.045 138.892C94.7926 138.892 81.6174 125.638 81.6174 109.289C81.6174 92.9393 94.7926 79.6855 111.045 79.6855C127.298 79.6855 140.473 92.9393 140.473 109.289Z" fill="url(#paint1_linear_2608_7836)"/>
</g>
<g id="clouds_2" filter="url(#filter3_di_2608_7836)">
<path d="M114.631 129.074C114.783 128.208 114.862 127.317 114.862 126.407C114.862 117.898 107.927 111 99.3725 111C93.0127 111 87.5481 114.812 85.1626 120.265C83.23 118.605 80.7222 117.603 77.9817 117.603C71.8711 117.603 66.9175 122.585 66.9175 128.731C66.9175 129.073 66.9328 129.411 66.9629 129.746C64.0238 131.178 62.0001 134.182 62.0001 137.657C62.0001 142.52 65.963 146.461 70.8514 146.461H112.65C117.538 146.461 121.501 142.52 121.501 137.657C121.501 133.472 118.566 129.969 114.631 129.074Z" fill="url(#paint2_linear_2608_7836)"/>
</g>
</g>
</g>
<defs>
<filter id="filter0_f_2608_7836" x="0.0900879" y="0" width="221.91" height="218.33" filterUnits="userSpaceOnUse" color-interpolation-filters="sRGB">
<feFlood flood-opacity="0" result="BackgroundImageFix"/>
<feBlend mode="normal" in="SourceGraphic" in2="BackgroundImageFix" result="shape"/>
<feGaussianBlur stdDeviation="38.5" result="effect1_foregroundBlur_2608_7836"/>
</filter>
<filter id="filter1_i_2608_7836" x="125" y="85" width="29.1577" height="27.4346" filterUnits="userSpaceOnUse" color-interpolation-filters="sRGB">
<feFlood flood-opacity="0" result="BackgroundImageFix"/>
<feBlend mode="normal" in="SourceGraphic" in2="BackgroundImageFix" result="shape"/>
<feColorMatrix in="SourceAlpha" type="matrix" values="0 0 0 0 0 0 0 0 0 0 0 0 0 0 0 0 0 0 127 0" result="hardAlpha"/>
<feOffset dy="11"/>
<feGaussianBlur stdDeviation="5"/>
<feComposite in2="hardAlpha" operator="arithmetic" k2="-1" k3="1"/>
<feColorMatrix type="matrix" values="0 0 0 0 1 0 0 0 0 1 0 0 0 0 1 0 0 0 1 0"/>
<feBlend mode="normal" in2="shape" result="effect1_innerShadow_2608_7836"/>
</filter>
<filter id="filter2_i_2608_7836" x="81.6174" y="79.6855" width="58.8552" height="64.2061" filterUnits="userSpaceOnUse" color-interpolation-filters="sRGB">
<feFlood flood-opacity="0" result="BackgroundImageFix"/>
<feBlend mode="normal" in="SourceGraphic" in2="BackgroundImageFix" result="shape"/>
<feColorMatrix in="SourceAlpha" type="matrix" values="0 0 0 0 0 0 0 0 0 0 0 0 0 0 0 0 0 0 127 0" result="hardAlpha"/>
<feOffset dy="5"/>
<feGaussianBlur stdDeviation="9"/>
<feComposite in2="hardAlpha" operator="arithmetic" k2="-1" k3="1"/>
<feColorMatrix type="matrix" values="0 0 0 0 1 0 0 0 0 1 0 0 0 0 1 0 0 0 0.81 0"/>
<feBlend mode="normal" in2="shape" result="effect1_innerShadow_2608_7836"/>
</filter>
<filter id="filter3_di_2608_7836" x="58" y="111" width="67.501" height="45.4609" filterUnits="userSpaceOnUse" color-interpolation-filters="sRGB">
<feFlood flood-opacity="0" result="BackgroundImageFix"/>
<feColorMatrix in="SourceAlpha" type="matrix" values="0 0 0 0 0 0 0 0 0 0 0 0 0 0 0 0 0 0 127 0" result="hardAlpha"/>
<feOffset dy="4"/>
<feGaussianBlur stdDeviation="2"/>
<feColorMatrix type="matrix" values="0 0 0 0 0 0 0 0 0 0 0 0 0 0 0 0 0 0 0.25 0"/>
<feBlend mode="normal" in2="BackgroundImageFix" result="effect1_dropShadow_2608_7836"/>
<feBlend mode="normal" in="SourceGraphic" in2="effect1_dropShadow_2608_7836" result="shape"/>
<feColorMatrix in="SourceAlpha" type="matrix" values="0 0 0 0 0 0 0 0 0 0 0 0 0 0 0 0 0 0 127 0" result="hardAlpha"/>
<feOffset dy="11"/>
<feGaussianBlur stdDeviation="5"/>
<feComposite in2="hardAlpha" operator="arithmetic" k2="-1" k3="1"/>
<feColorMatrix type="matrix" values="0 0 0 0 1 0 0 0 0 1 0 0 0 0 1 0 0 0 1 0"/>
<feBlend mode="normal" in2="shape" result="effect2_innerShadow_2608_7836"/>
</filter>
<linearGradient id="paint0_linear_2608_7836" x1="143.9" y1="105.046" x2="139.691" y2="93.4435" gradientUnits="userSpaceOnUse">
<stop stop-color="white"/>
<stop offset="1" stop-color="white" stop-opacity="0.11"/>
</linearGradient>
<linearGradient id="paint1_linear_2608_7836" x1="106.575" y1="125.402" x2="131.005" y2="82.8082" gradientUnits="userSpaceOnUse">
<stop stop-color="#FF9900"/>
<stop offset="1" stop-color="#FFEE94"/>
</linearGradient>
<linearGradient id="paint2_linear_2608_7836" x1="65.7846" y1="143.295" x2="125.98" y2="98.4569" gradientUnits="userSpaceOnUse">
<stop stop-color="white"/>
<stop offset="1" stop-color="white" stop-opacity="0.83"/>
</linearGradient>
</defs>
</svg>
