<svg width="110" height="74" viewBox="0 0 110 74" fill="none" xmlns="http://www.w3.org/2000/svg">
<path opacity="0.827" d="M55.2598 60.3181V36.1962H65.6499C67.1471 33.9956 69.1877 32.2195 71.5738 31.0402C73.9598 29.8609 76.6102 29.3186 79.2677 29.4658C81.9252 29.6129 84.4995 30.4447 86.7407 31.8802C88.982 33.3158 90.814 35.3064 92.0589 37.6588C93.3039 40.0113 93.9196 42.6456 93.8461 45.3062C93.7726 47.9667 93.0126 50.5631 91.6397 52.8433C90.2669 55.1234 88.3278 57.0099 86.0108 58.3196C83.6938 59.6293 81.0775 60.3178 78.416 60.3181H55.2598Z" fill="url(#paint0_linear_35_1321)"/>
<path d="M32.1037 60.3173C28.0095 60.3173 24.083 58.6909 21.188 55.7958C18.2929 52.9008 16.6665 48.9743 16.6665 44.8801C16.6665 40.7859 18.2929 36.8594 21.188 33.9643C24.083 31.0693 28.0095 29.4429 32.1037 29.4429C32.5414 29.4429 32.9754 29.4608 33.4055 29.4966C34.811 25.4876 37.2922 21.9425 40.5775 19.2492C43.8628 16.5558 47.8256 14.8181 52.0324 14.226C56.2391 13.634 60.5277 14.2104 64.4288 15.8924C68.3298 17.5743 71.6931 20.2969 74.1506 23.7621C76.608 27.2274 78.0649 31.3019 78.3619 35.5397C78.6589 39.7775 77.7845 44.0154 75.8343 47.7896C73.8842 51.5637 70.9335 54.7287 67.3051 56.9383C63.6768 59.1479 59.5105 60.3168 55.2623 60.3173H32.1037Z" fill="url(#paint1_linear_35_1321)"/>
<defs>
<linearGradient id="paint0_linear_35_1321" x1="74.5559" y1="42.3174" x2="74.5559" y2="60.3181" gradientUnits="userSpaceOnUse">
<stop stop-color="#F0F1F6"/>
<stop offset="1" stop-color="#E1E3EF"/>
</linearGradient>
<linearGradient id="paint1_linear_35_1321" x1="47.5425" y1="35.1207" x2="47.5425" y2="60.3173" gradientUnits="userSpaceOnUse">
<stop stop-color="white"/>
<stop offset="1" stop-color="#E1E3EF"/>
</linearGradient>
</defs>
</svg>
