<svg width="68" height="69" viewBox="0 0 68 69" fill="none" xmlns="http://www.w3.org/2000/svg">
<path d="M33.9999 4.88672C36.3515 4.88652 38.6141 5.79925 40.3236 7.43773C42.0332 9.07621 43.0602 11.3163 43.1941 13.6986L43.2083 14.2305L43.2111 37.0925L43.4378 37.2908C46.0781 39.6795 47.7401 42.9857 48.0958 46.557L48.1496 47.2815L48.1666 48.0117C48.167 50.3802 47.5907 52.7121 46.4888 54.8C45.387 56.888 43.7938 58.6674 41.8509 59.9799C39.9079 61.2925 37.6755 62.0976 35.352 62.3236C33.0285 62.5497 30.686 62.1897 28.5327 61.2756C26.3794 60.3616 24.482 58.9218 23.0092 57.0843C21.5365 55.2468 20.534 53.0686 20.0909 50.7432C19.6478 48.4178 19.7778 46.0173 20.4693 43.7552C21.1609 41.4931 22.3926 39.4394 24.0549 37.7767L24.5649 37.288L24.7888 37.0925L24.7916 14.2305C24.7911 11.9342 25.624 9.7182 27.1312 8.00536C28.6383 6.29252 30.7143 5.20281 32.9629 4.94422L33.4786 4.90109L33.9999 4.88672ZM33.9999 9.19922C32.7551 9.19933 31.5559 9.67455 30.6404 10.5305C29.725 11.3864 29.1603 12.5604 29.0586 13.8193L29.0416 14.2305V39.2257L28.1661 39.8726C26.4934 41.1072 25.243 42.8417 24.59 44.8331C23.9369 46.8246 23.9139 48.9735 24.5242 50.9789C25.1345 52.9843 26.3475 54.7459 27.9934 56.0171C29.6393 57.2882 31.6357 58.0053 33.7032 58.068C35.7707 58.1307 37.8058 57.5359 39.5235 56.3667C41.2413 55.1975 42.5558 53.5126 43.283 51.5478C44.0102 49.5829 44.1137 47.4365 43.5791 45.409C43.0444 43.3815 41.8983 41.5744 40.3013 40.2406L39.8338 39.8755L38.9639 39.2286L38.9583 14.2305C38.9583 12.8961 38.4359 11.6164 37.506 10.6728C36.5761 9.7293 35.315 9.19922 33.9999 9.19922ZM33.9999 22.1367C34.5635 22.1367 35.104 22.3639 35.5025 22.7683C35.901 23.1726 36.1249 23.7211 36.1249 24.293V41.1548C37.7401 41.67 39.1201 42.755 40.0151 44.2133C40.9101 45.6716 41.2609 47.4069 41.0041 49.105C40.7472 50.8031 39.8997 52.3518 38.6149 53.4707C37.3301 54.5896 35.693 55.2047 33.9999 55.2047C32.3068 55.2047 30.6697 54.5896 29.3849 53.4707C28.1001 52.3518 27.2526 50.8031 26.9958 49.105C26.7389 47.4069 27.0898 45.6716 27.9848 44.2133C28.8798 42.755 30.2598 41.67 31.8749 41.1548V24.293C31.8749 23.7211 32.0988 23.1726 32.4973 22.7683C32.8958 22.3639 33.4363 22.1367 33.9999 22.1367Z" fill="#AC6BFF"/>
</svg>
