<svg width="88" height="89" viewBox="0 0 88 89" fill="none" xmlns="http://www.w3.org/2000/svg">
<path fill-rule="evenodd" clip-rule="evenodd" d="M43.3809 6.71454C43.744 6.42849 44.2557 6.42849 44.6188 6.71454L50.0046 10.9583L56.5398 8.78459C56.9796 8.63831 57.4623 8.81339 57.706 9.2076L61.2898 15.0039L68.1798 15.1627C68.6464 15.1735 69.0435 15.5056 69.1367 15.9629L70.4896 22.6072L76.8998 25.074C77.3389 25.2429 77.6008 25.6951 77.5289 26.1601L76.4943 32.8511L81.6545 37.3226C82.0119 37.6323 82.1035 38.15 81.8741 38.5635L78.5797 44.5L81.874 50.4366C82.1035 50.8501 82.0119 51.3678 81.6545 51.6775L76.4943 56.149L77.5289 62.84C77.6008 63.305 77.3389 63.7572 76.8998 63.9261L70.4896 66.3928L69.1367 73.0372C69.0436 73.4945 68.6464 73.8266 68.1798 73.8374L61.2898 73.9961L57.706 79.7925C57.4623 80.1867 56.9796 80.3618 56.5398 80.2155L50.0046 78.0418L44.6188 82.2855C44.2557 82.5716 43.744 82.5716 43.3809 82.2855L37.9951 78.0418L31.4599 80.2155C31.0201 80.3618 30.5374 80.1867 30.2937 79.7925L26.7099 73.9961L19.8199 73.8374C19.3533 73.8266 18.9562 73.4945 18.863 73.0372L17.5101 66.3929L11.0999 63.9261C10.6608 63.7572 10.3989 63.305 10.4708 62.84L11.5054 56.149L6.34518 51.6775C5.98777 51.3678 5.89618 50.8501 6.12566 50.4366L9.42 44.5L6.12566 38.5635C5.89618 38.15 5.98777 37.6323 6.34518 37.3226L11.5054 32.8511L10.4708 26.1601C10.3989 25.6951 10.6608 25.2429 11.0999 25.074L17.5101 22.6072L18.863 15.9629C18.9562 15.5056 19.3533 15.1735 19.8199 15.1627L26.7099 15.0039L30.2937 9.2076C30.5374 8.81339 31.0201 8.63831 31.4599 8.78459L37.9951 10.9583L43.3809 6.71454Z" fill="#EEDEFF"/>
<path d="M52 39.7077L49.791 37.5L44.5 42.7915L39.209 37.5L37 39.7077L42.291 44.9993L37 50.2908L39.209 52.5L44.5 47.2085L49.791 52.5L52 50.2908L46.709 44.9993L52 39.7077Z" fill="#CB98FF"/>
<path fill-rule="evenodd" clip-rule="evenodd" d="M13.024 15.0571L6.16988 13.3809L6.90626 11.1958L0.971777 8.71458L4.31029 3.93332L10.0571 10.0233L9.54456 11.9778L13.024 15.0571Z" fill="#EEDEFF"/>
<mask id="mask0_220_7963" style="mask-type:luminance" maskUnits="userSpaceOnUse" x="14" y="0" width="6" height="12">
<rect x="14" y="0.5" width="6" height="11" fill="white"/>
</mask>
<g mask="url(#mask0_220_7963)">
<path fill-rule="evenodd" clip-rule="evenodd" d="M17.9282 11.2942L14.3388 6.06692L16.2678 4.92406L14.4581 1.30466L18.4122 1.18133L18.9656 5.99653L17.0596 7.13939L17.9282 11.2942Z" fill="#EEDEFF"/>
</g>
<mask id="mask1_220_7963" style="mask-type:luminance" maskUnits="userSpaceOnUse" x="73" y="0" width="15" height="16">
<rect x="73" y="0.5" width="15" height="15" fill="white"/>
</mask>
<g mask="url(#mask1_220_7963)">
<path fill-rule="evenodd" clip-rule="evenodd" d="M74.0001 14.9549L83.0191 13.5432L80.7857 10.4207L87.2768 7.90602L84.4711 1.19617L76.766 8.00462L77.7096 12.799L74.0001 14.9549Z" fill="#EEDEFF"/>
</g>
<path d="M53.969 66.889C55.818 65.6484 56.3112 63.1437 55.0706 61.2947C53.83 59.4457 51.3254 58.9525 49.4764 60.1931C47.6273 61.4337 47.1341 63.9384 48.3747 65.7874C49.6154 67.6364 52.12 68.1296 53.969 66.889Z" fill="white"/>
<path d="M38 67.5C40.2091 67.5 42 65.7091 42 63.5C42 61.2909 40.2091 59.5 38 59.5C35.7909 59.5 34 61.2909 34 63.5C34 65.7091 35.7909 67.5 38 67.5Z" fill="white"/>
<path d="M27.5 59.5C29.9853 59.5 32 57.4853 32 55C32 52.5147 29.9853 50.5 27.5 50.5C25.0147 50.5 23 52.5147 23 55C23 57.4853 25.0147 59.5 27.5 59.5Z" fill="white"/>
<path d="M25.5 47.5C27.9853 47.5 30 45.4853 30 43C30 40.5147 27.9853 38.5 25.5 38.5C23.0147 38.5 21 40.5147 21 43C21 45.4853 23.0147 47.5 25.5 47.5Z" fill="white"/>
<path d="M31 35.5C33.7614 35.5 36 33.2614 36 30.5C36 27.7386 33.7614 25.5 31 25.5C28.2386 25.5 26 27.7386 26 30.5C26 33.2614 28.2386 35.5 31 35.5Z" fill="white"/>
<path d="M44.5 30.5C47.5376 30.5 50 28.0376 50 25C50 21.9624 47.5376 19.5 44.5 19.5C41.4624 19.5 39 21.9624 39 25C39 28.0376 41.4624 30.5 44.5 30.5Z" fill="white"/>
<path d="M65.6607 55.7384C66.1624 53.601 64.8364 51.4615 62.699 50.9598C60.5616 50.4581 58.4221 51.7841 57.9204 53.9215C57.4187 56.0589 58.7447 58.1984 60.8821 58.7001C63.0195 59.2018 65.159 57.8758 65.6607 55.7384Z" fill="white"/>
<path d="M64 44.5C65.6569 44.5 67 43.1569 67 41.5C67 39.8431 65.6569 38.5 64 38.5C62.3431 38.5 61 39.8431 61 41.5C61 43.1569 62.3431 44.5 64 44.5Z" fill="white"/>
<path d="M57.5 32.5C58.8807 32.5 60 31.3807 60 30C60 28.6193 58.8807 27.5 57.5 27.5C56.1193 27.5 55 28.6193 55 30C55 31.3807 56.1193 32.5 57.5 32.5Z" fill="white"/>
<path d="M70.3338 72.82H18.6615C16.6406 72.82 15 71.1824 15 69.1585C15 67.1376 16.6406 65.5 18.6615 65.5L70.3338 65.5C72.3547 65.5 73.9953 67.1376 73.9953 69.1615C73.9953 71.1824 72.3577 72.823 70.3338 72.823V72.82Z" fill="#D8B1FF"/>
<path d="M61.3456 72.82H56.9174C54.8751 72.82 53.2222 71.164 53.2222 69.1247C53.2222 67.0824 54.8045 65.5 56.8469 65.5L61.3487 65.5184C63.391 65.5184 65.0409 67.2449 65.0409 69.2842C65.0409 71.3265 63.3849 72.8169 61.3456 72.8169V72.82Z" fill="#BE7FFF"/>
<mask id="mask2_220_7963" style="mask-type:luminance" maskUnits="userSpaceOnUse" x="15" y="65" width="48" height="8">
<path d="M60.0975 72.82H18.6615C16.6406 72.82 15 71.1824 15 69.1585C15 67.1376 16.6406 65.5 18.6615 65.5H60.0975C61.5449 65.5 62.7194 66.6745 62.7194 68.1219V70.198C62.7194 71.6455 61.5449 72.82 60.0975 72.82Z" fill="white"/>
</mask>
<g mask="url(#mask2_220_7963)">
<path d="M59.0579 72.82H18.6615C16.6406 72.82 15 71.1824 15 69.1585C15 67.1376 16.6406 65.5 18.6615 65.5H59.0579C61.0788 65.5 62.7194 67.1376 62.7194 69.1615C62.7194 71.1824 61.0818 72.823 59.0579 72.823V72.82Z" fill="#AE6FED"/>
<g opacity="0.2">
<path d="M20.0598 65.5L24.5279 72.82H27.6926L23.0436 65.5H20.0598Z" fill="white"/>
</g>
<g opacity="0.2">
<path d="M13.2949 65.5L17.763 72.82H20.9277L16.2787 65.5H13.2949Z" fill="white"/>
</g>
<g opacity="0.2">
<path d="M26.604 65.5L31.072 72.82H34.2368L29.5878 65.5H26.604Z" fill="white"/>
</g>
<g opacity="0.2">
<path d="M33.145 65.5L37.6161 72.82H40.7778L36.1288 65.5H33.145Z" fill="white"/>
</g>
<g opacity="0.2">
<path d="M39.689 65.5L44.157 72.82H47.3217L42.6728 65.5H39.689Z" fill="white"/>
</g>
<g opacity="0.2">
<path d="M46.2332 65.5L50.7012 72.82H53.8659L49.217 65.5H46.2332Z" fill="white"/>
</g>
<g opacity="0.2">
<path d="M52.7742 65.5L57.2453 72.82H60.4069L55.758 65.5H52.7742Z" fill="white"/>
</g>
<g opacity="0.2">
<path d="M59.3184 65.5L63.7864 72.82H66.9511L62.3022 65.5H59.3184Z" fill="white"/>
</g>
</g>
</svg>
