<svg width="44" height="44" viewBox="0 0 44 44" fill="none" xmlns="http://www.w3.org/2000/svg">
<g id="Frame 5362">
<path id="Vector" d="M21.9185 12C16.4336 12 12 16.47 12 22C12 27.53 16.4336 32 21.9185 32C27.4034 32 31.8369 27.53 31.8369 22C31.8369 16.47 27.4034 12 21.9185 12ZM26.5285 25.2379C26.7218 25.4328 26.7218 25.7472 26.5285 25.9421L25.8342 26.6421C25.6386 26.8393 25.3198 26.8393 25.1242 26.6421L22.2735 23.7679C22.0779 23.5707 21.759 23.5707 21.5635 23.7679L18.7127 26.6421C18.5171 26.8393 18.1983 26.8393 18.0027 26.6421L17.3085 25.9421C17.1151 25.7472 17.1151 25.4328 17.3085 25.2379L20.1707 22.3521C20.3641 22.1572 20.3641 21.8428 20.1707 21.6479L17.3085 18.7621C17.1151 18.5672 17.1151 18.2528 17.3085 18.0579L18.0027 17.3579C18.1983 17.1607 18.5171 17.1607 18.7127 17.3579L21.5635 20.2321C21.759 20.4293 22.0779 20.4293 22.2735 20.2321L25.1242 17.3579C25.3198 17.1607 25.6386 17.1607 25.8342 17.3579L26.5285 18.0579C26.7218 18.2528 26.7218 18.5672 26.5285 18.7621L23.6662 21.6479C23.4729 21.8428 23.4729 22.1572 23.6662 22.3521L26.5285 25.2379Z" fill="#88888C"/>
</g>
</svg>
