<svg width="48" height="29" viewBox="0 0 48 29" fill="none" xmlns="http://www.w3.org/2000/svg">
<rect x="0.5" y="0.5" width="47" height="28" rx="4.5" fill="white"/>
<path d="M22.4688 7.78125V18.2031H20.7344V14.6562H17.8906V15.9062H11.2812V8.70312H13.0156V10.9844H16.1719V8.70312H17.8906V10.2188H20.7344V7.78125H22.4688ZM13.0156 14.5312H16.1719V12.3281H13.0156V14.5312ZM13.1562 21.6094V17.1719H14.9219V20.2031H22.7812V21.6094H13.1562ZM17.8906 13.25H20.7344V11.625H17.8906V13.25ZM36.2969 7.78125V16.0312H34.5625V14.4688H31.2031V13.0625H34.5625V11.5469H31.3359C30.4453 13.7891 28.3828 15.3594 25.3125 16.2188L24.6094 14.8438C27.9141 13.9531 29.6797 12.2734 29.9453 10.1719H25.3594V8.76562H31.8438C31.8438 9.25781 31.8047 9.72656 31.7266 10.1719H34.5625V7.78125H36.2969ZM26.8281 19C26.8281 17.2656 28.7266 16.1953 31.625 16.1875C34.4844 16.1953 36.3906 17.2656 36.3906 19C36.3906 20.7344 34.4844 21.8203 31.625 21.8125C28.7266 21.8203 26.8281 20.7344 26.8281 19ZM28.5625 19C28.5625 19.9297 29.7266 20.4375 31.625 20.4375C33.4922 20.4375 34.6484 19.9297 34.6562 19C34.6484 18.0547 33.4922 17.5469 31.625 17.5469C29.7266 17.5469 28.5625 18.0547 28.5625 19Z" fill="#AC6BFF"/>
<rect x="0.5" y="0.5" width="47" height="28" rx="4.5" stroke="#AC6BFF"/>
</svg>
