<svg width="158" height="158" viewBox="0 0 158 158" fill="none" xmlns="http://www.w3.org/2000/svg">
<mask id="mask0_33_831" style="mask-type:alpha" maskUnits="userSpaceOnUse" x="0" y="0" width="158" height="158">
<rect width="158" height="158" fill="#F6F6F6"/>
</mask>
<g mask="url(#mask0_33_831)">
<rect width="158" height="158" fill="#F6F6F6"/>
<path d="M34.501 35.718H32.342V38.659H30.336V31.196H32.342V34.103H34.501V35.718ZM32.801 46.224H22.448V42.076H30.336V40.954H22.346V39.373H32.342V43.521H24.437V44.626H32.801V46.224ZM29.197 37.588C27.259 38.03 24.437 38.217 22.584 38.217H21.071V31.927H23.06V36.551C25.151 36.551 27.123 36.381 28.959 35.973C29.044 36.517 29.129 37.044 29.197 37.588ZM48.003 46.343H46.014V31.196H48.003V46.343ZM45.555 41.362L44.297 42.688C43.634 42.076 42.818 40.92 42.478 40.019C42.155 41.175 40.914 42.926 40.03 43.504L38.789 42.212C40.846 40.733 41.509 38.013 41.509 34.987V32.42H43.413V34.902C43.413 38.047 43.991 40.002 45.555 41.362ZM40.472 39.288L39.384 40.801C38.993 40.512 38.517 39.917 38.296 39.458C37.973 40.529 37.14 41.804 36.188 42.518L34.913 41.26C36.579 39.951 37.293 37.826 37.293 34.171V32.59H39.197V34.154C39.197 37.656 39.622 38.506 40.472 39.288ZM59.788 45.646H57.918V38.591H56.626C56.456 41.039 55.47 43.198 53.345 43.198C51.016 43.198 50.081 40.529 50.081 37.741C50.081 34.987 51.016 32.335 53.345 32.335C55.487 32.335 56.456 34.494 56.626 36.959H57.918V31.485H59.788V45.646ZM62.814 46.343H60.944V31.196H62.814V46.343ZM54.807 37.758C54.807 35.735 54.382 34.069 53.362 34.069C52.376 34.069 51.951 35.735 51.951 37.758C51.951 39.781 52.376 41.43 53.362 41.43C54.382 41.43 54.807 39.781 54.807 37.758ZM76.6338 38.795H69.5278V32.182H76.6338V38.795ZM71.0578 40.359H81.1728V41.94H77.1608C77.4498 43.538 79.7788 44.915 81.9038 44.915L80.9688 46.462C78.9288 46.275 76.6508 44.796 76.0728 43.742C75.5288 44.813 73.3358 46.275 71.1938 46.445L70.2418 44.898C72.4008 44.898 74.7468 43.589 75.0698 41.94H71.0578V40.359ZM83.0938 36.347H80.9348V39.628H78.9288V31.196H80.9348V34.715H83.0938V36.347ZM74.6618 37.248V33.712H71.4998V37.248H74.6618ZM97.4968 40.257H83.8118V38.659H97.4968V40.257ZM95.8138 36.959H85.6478V31.689H87.6368V35.378H95.8138V36.959ZM95.9158 45.935H85.5628V41.464H87.5348V44.354H95.9158V45.935ZM32.087 56.151V58.191C32.087 59.738 31.985 62.101 31.56 64.141L30.676 63.988C30.812 63.274 31.016 61.829 31.084 60.316C28.126 60.486 25.202 60.707 22.261 60.894C22.193 60.605 22.108 60.333 22.057 60.044L31.118 59.534C31.135 59.245 31.152 58.956 31.152 58.667V56.967H22.397V56.151H32.087ZM34.059 66.878H20.646V66.079H26.171V62.526H27.089V66.079H34.059V66.878ZM47.374 69.19H46.473V54.332H47.374V69.19ZM37.225 64.498H38.211C40.183 64.498 43.09 64.311 44.45 64.005L44.552 64.787C42.852 65.059 40.455 65.314 38.092 65.314H36.29V55.862H43.192V56.661H37.225V64.498ZM53.498 55.743C54.79 55.743 55.725 56.542 56.218 58.004H58.734V54.621H59.669V68.391H58.734V63.461H56.184C55.674 64.855 54.756 65.62 53.498 65.62C51.526 65.62 50.37 63.818 50.37 60.673C50.37 57.545 51.526 55.743 53.498 55.743ZM55.674 60.673C55.674 58.055 54.79 56.525 53.498 56.525C52.189 56.525 51.305 58.055 51.305 60.673C51.305 63.308 52.189 64.838 53.498 64.838C54.79 64.838 55.674 63.308 55.674 60.673ZM62.559 69.19H61.607V54.332H62.559V69.19ZM58.734 58.803H56.439C56.524 59.364 56.592 59.993 56.592 60.673C56.592 61.421 56.524 62.084 56.405 62.662H58.734V58.803ZM76.639 59.211C76.639 61.489 74.531 62.985 71.454 62.985C68.377 62.985 66.286 61.489 66.286 59.211C66.286 56.916 68.377 55.403 71.454 55.403C74.565 55.403 76.639 56.916 76.639 59.211ZM75.687 59.211C75.687 57.46 74.021 56.185 71.454 56.185C68.904 56.185 67.238 57.46 67.238 59.211C67.238 60.962 68.904 62.203 71.454 62.203C74.004 62.203 75.687 60.962 75.687 59.211ZM78.186 67.269H64.773V66.47H68.275V63.308H69.21V66.47H73.715V63.308H74.65V66.47H78.186V67.269Z" fill="#242731"/>
<path d="M27.75 93.58H22.01V90.2H22.77V91.26H26.98V90.17H27.75V93.58ZM24.47 87.4C24.47 88.53 23.68 89.38 22.5 89.38C21.32 89.38 20.52 88.52 20.52 87.4C20.52 86.26 21.32 85.41 22.5 85.41C23.68 85.41 24.47 86.25 24.47 87.4ZM27.75 89.72H26.99V87.65H25.94V89.62H25.21V85.12H25.94V87.02H26.99V84.96H27.75V89.72ZM23.72 87.4C23.72 86.65 23.27 86.07 22.5 86.07C21.73 86.07 21.27 86.65 21.27 87.4C21.27 88.15 21.73 88.72 22.5 88.72C23.27 88.72 23.72 88.15 23.72 87.4ZM26.98 92.96V91.88H22.77V92.96H26.98ZM36.9223 89.38H29.0323V88.74H36.9223V89.38ZM36.0423 86.6C36.0423 87.56 34.8823 88.11 32.9823 88.11C31.1023 88.11 29.9423 87.56 29.9423 86.6C29.9423 85.64 31.1023 85.08 32.9823 85.08C34.8823 85.08 36.0423 85.64 36.0423 86.6ZM32.9823 85.7C31.6123 85.7 30.7223 86.05 30.7223 86.6C30.7223 87.14 31.6123 87.48 32.9823 87.48C34.3723 87.48 35.2723 87.14 35.2723 86.6C35.2723 86.05 34.3723 85.7 32.9823 85.7ZM36.2223 93.62H29.9523V91.54H35.1723V90.77H29.9323V90.16H35.9323V92.12H30.7123V93H36.2223V93.62ZM45.4916 91.08L45.0316 91.65C44.2116 91.13 43.1416 90.03 42.8316 88.99C42.5316 90.05 41.6816 91.13 40.6316 91.86L40.1316 91.29C41.4216 90.53 42.4316 88.99 42.4316 87.42V86.52H40.4116V85.88H45.2416V86.52H43.2216V87.4C43.2216 89.03 44.2916 90.4 45.4916 91.08ZM48.4516 89.15H47.0316V93.7H46.2716V84.96H47.0316V88.51H48.4516V89.15ZM56.484 88.48L56.124 89.12C54.694 88.87 53.304 87.99 52.904 87.17C52.554 87.99 51.194 88.89 49.704 89.14L49.354 88.5C50.784 88.35 52.474 87.43 52.514 86.21H49.684V85.58H56.124V86.21H53.314C53.354 87.44 55.144 88.33 56.484 88.48ZM53.274 93.7H52.514V90.57H48.964V89.93H56.854V90.57H53.274V93.7ZM68.1333 89.39H60.2433V88.76H68.1333V89.39ZM67.4633 93.6H61.2233V91.56H66.3633V90.81H61.1933V90.18H67.1233V92.14H61.9833V92.97H67.4633V93.6ZM64.1433 87.21L63.7033 87.74C63.2233 87.52 62.6833 87.09 62.4933 86.66C62.2733 87.23 61.6133 87.88 60.8833 88.17L60.4633 87.62C61.4533 87.27 62.1333 86.41 62.1333 85.49V85.2H62.8633V85.52C62.8633 86.39 63.4533 86.96 64.1433 87.21ZM67.9233 87.47L67.4833 88.02C66.8733 87.76 66.2533 87.21 66.0233 86.67C65.8133 87.22 65.1833 87.89 64.4733 88.21L64.0333 87.68C64.9233 87.32 65.6433 86.51 65.6433 85.53V85.13H66.3733V85.51C66.3733 86.48 67.0833 87.18 67.9233 87.47ZM73.2056 93.71H72.4456V90.54H68.8956V89.9H76.7856V90.54H73.2056V93.71ZM76.4656 88.32L76.1056 88.97C74.7956 88.7 73.3656 87.88 72.8356 86.86C72.4156 87.88 70.9256 88.73 69.5956 88.99L69.2256 88.34C70.9056 88.12 72.4456 87.01 72.4456 85.82V85.26H73.2456V85.82C73.2456 87.01 74.9256 88.13 76.4656 88.32ZM84.578 88.81H81.858V89.73H85.438V90.37H77.548V89.73H81.098V88.81H78.538V86.75H83.668V85.91H78.528V85.3H84.428V87.32H79.298V88.2H84.578V88.81ZM78.388 91.13H84.448V93.76H83.678V91.76H78.388V91.13ZM27.75 109.7H27V105.08H25.85V109.25H25.11V101.17H25.85V104.44H27V100.96H27.75V109.7ZM24.52 106.46L24.61 107.1C23.88 107.27 22.54 107.39 21.43 107.39H20.76V101.92H21.52V106.73C22.43 106.75 23.88 106.63 24.52 106.46ZM39.7093 103.89H38.3793V106.09H37.6193V100.96H38.3793V103.25H39.7093V103.89ZM39.0093 109.14L38.6393 109.73C37.3993 109.54 36.0093 108.63 35.6893 107.9C35.3593 108.64 34.0693 109.5 32.6993 109.69L32.3593 109.11C33.8593 108.95 35.1193 108.03 35.2693 107.15H32.8293V106.53H38.5193V107.15H36.1093C36.2693 107.99 37.6193 109.01 39.0093 109.14ZM36.1393 105.41H31.9693V101.61H36.1393V105.41ZM35.3793 104.78V102.24H32.7293V104.78H35.3793ZM47.2416 109.58H41.2616V106.88H43.8716V106H40.3116V105.37H48.2016V106H44.6316V106.88H47.2416V109.58ZM47.7816 104.33L47.4416 104.97C46.1716 104.8 44.7416 104.36 44.2516 103.49C43.8116 104.37 42.3816 104.81 41.0316 104.97L40.7516 104.36C42.0316 104.29 43.5716 103.83 43.8316 102.94H41.1116V102.32H47.4116V102.94H44.6816C44.9616 103.82 46.5616 104.24 47.7816 104.33ZM46.4816 108.95V107.5H42.0316V108.95H46.4816ZM45.6516 101.64H42.8516V100.98H45.6516V101.64ZM55.8009 103.81H54.1109V104.1C54.1109 105.74 55.0709 106.72 55.9609 107.18L55.5109 107.74C54.7909 107.34 53.9709 106.51 53.7209 105.6C53.5209 106.52 52.7409 107.46 51.9109 107.97L51.4809 107.45C52.4809 106.84 53.3309 105.75 53.3309 104.12V103.81H51.6509V103.17H55.8009V103.81ZM56.5009 105.38H55.1109V104.75H56.5009V101.17H57.2409V109.26H56.5009V105.38ZM59.0009 109.7H58.2509V100.96H59.0009V109.7ZM52.5809 102.33V101.65H54.8909V102.33H52.5809ZM68.2933 103.89H66.9633V106.01H66.2033V100.96H66.9633V103.26H68.2933V103.89ZM66.9633 109.58H61.4733V106.46H66.9633V109.58ZM66.2033 108.95V107.09H62.2333V108.95H66.2033ZM60.5833 101.63H64.6133C64.4833 104.03 62.7333 105.45 60.5033 106.09L60.1533 105.46C61.8733 105.1 63.5433 103.85 63.7533 102.27H60.5833V101.63ZM75.9156 102.93C75.9156 103.97 74.9056 104.57 73.2056 104.65V105.61H76.7856V106.24H68.8956V105.61H72.4456V104.65C70.7556 104.57 69.7756 103.97 69.7756 102.93C69.7756 101.83 70.9256 101.22 72.8456 101.22C74.7656 101.22 75.9156 101.83 75.9156 102.93ZM72.8456 101.85C71.4456 101.85 70.5256 102.21 70.5256 102.94C70.5256 103.65 71.4356 104.02 72.8356 104.02C74.2356 104.02 75.1756 103.65 75.1756 102.94C75.1756 102.21 74.2456 101.85 72.8456 101.85ZM75.8956 109.45H69.9356V106.92H70.6956V108.81H75.8956V109.45ZM85.438 108.59H77.548V107.95H81.098V105.81H78.498V101.7H84.498V102.33H79.268V105.18H84.548V105.81H81.858V107.95H85.438V108.59ZM92.9203 100.96V104.6H94.3503V105.25H92.9203V109.7H92.1603V100.96H92.9203ZM90.6503 101.9C90.6003 104.74 88.9603 106.79 86.7103 107.96L86.2403 107.36C88.4203 106.35 89.6703 104.51 89.8303 102.54H86.5403V101.9H90.6503ZM28.43 120.2H27.1V123.3H26.34V116.96H27.1V119.56H28.43V120.2ZM27.44 125.4H21.54V122.71H22.3V124.77H27.44V125.4ZM24.78 121.98H20.65V117.55H21.41V119.05H24.01V117.55H24.78V121.98ZM24.01 121.36V119.67H21.41V121.36H24.01ZM36.1823 124.06C36.1823 125.07 35.1123 125.72 33.2023 125.72C31.3023 125.72 30.2323 125.07 30.2323 124.06C30.2323 123.02 31.3023 122.39 33.2023 122.39C35.1123 122.39 36.1823 123.02 36.1823 124.06ZM33.8223 120.94V120.29H35.4123V118.77H33.8223V118.12H35.4123V116.96H36.1723V122.37H35.4123V120.94H33.8223ZM35.4023 124.06C35.4023 123.41 34.5923 123.03 33.2023 123.03C31.8423 123.03 31.0223 123.41 31.0223 124.06C31.0223 124.7 31.8423 125.07 33.2023 125.07C34.5923 125.07 35.4023 124.7 35.4023 124.06ZM31.3523 117.49C32.5823 117.49 33.5923 118.31 33.5923 119.58C33.5923 120.86 32.5823 121.66 31.3523 121.66C30.1323 121.66 29.1023 120.86 29.1023 119.59C29.1023 118.33 30.1223 117.49 31.3523 117.49ZM31.3523 118.14C30.4923 118.14 29.8623 118.71 29.8623 119.58C29.8623 120.47 30.4923 121.04 31.3523 121.04C32.2423 121.04 32.8323 120.47 32.8323 119.59C32.8323 118.72 32.2523 118.14 31.3523 118.14ZM45.1847 125.61H39.0747V123.54H44.0847V122.72H39.0647V122.11H44.8447V124.11H39.8347V125H45.1847V125.61ZM43.4747 121.17C42.7847 121.26 41.7247 121.35 40.6647 121.41C39.6747 121.46 38.3747 121.49 37.7947 121.49L37.6847 120.82C38.3447 120.82 39.2447 120.82 40.1847 120.79V119.94H38.4347V117.39H42.7247V118.01H39.1947V119.31H42.8147V119.94H40.9447V120.76C41.8947 120.72 42.8547 120.65 43.4047 120.56L43.4747 121.17ZM44.8447 121.67H44.0847V116.96H44.8447V121.67ZM52.717 121.1H50.737V120.45H52.717V116.96H53.477V125.7H52.717V121.1ZM50.767 117.89C50.727 120.73 49.017 122.9 46.767 123.97L46.327 123.37C48.537 122.4 49.797 120.5 49.947 118.53H46.647V117.89H50.767ZM57.0494 117.72C58.2594 117.72 58.9094 118.83 58.9694 120.42H59.9094V117.13H60.6494V125.28H59.9094V121.05H58.9694C58.8894 122.63 58.2494 123.7 57.0494 123.7C55.7794 123.7 55.1294 122.47 55.1294 120.71C55.1294 118.96 55.7794 117.72 57.0494 117.72ZM58.2194 120.71C58.2194 119.3 57.7594 118.39 57.0494 118.39C56.3494 118.39 55.8994 119.3 55.8994 120.71C55.8994 122.13 56.3494 123.03 57.0494 123.03C57.7594 123.03 58.2194 122.13 58.2194 120.71ZM62.3594 125.7H61.6094V116.96H62.3594V125.7ZM70.7317 119.81C70.7317 121.16 69.4717 122.06 67.5717 122.06C65.6917 122.06 64.4317 121.16 64.4317 119.81C64.4317 118.46 65.6917 117.54 67.5717 117.54C69.4817 117.54 70.7317 118.46 70.7317 119.81ZM70.0017 119.81C70.0017 118.83 69.0417 118.17 67.5717 118.17C66.1217 118.17 65.1617 118.83 65.1617 119.81C65.1617 120.79 66.1217 121.45 67.5717 121.45C69.0317 121.45 70.0017 120.79 70.0017 119.81ZM71.5317 124.59H63.6417V123.95H65.5917V122.32L66.3517 122.3V123.95H68.7917V122.3L69.5517 122.32V123.95H71.5317V124.59ZM72.3341 124.83V123.94H73.2041V124.83H72.3341Z" fill="#8A8C91"/>
<g filter="url(#filter0_d_33_831)">
<path d="M140.897 97.91L135.934 94.7849L116.157 110.938L115.807 110.719C115.807 110.719 120.342 102.237 122.402 96.457C124.55 90.4298 126.543 74.9883 126.543 74.9883L114.3 67C114.3 67 111.423 88.7896 108.602 98.7415C105.878 108.35 100.009 122.829 100.009 122.829L110.622 129.483C110.622 129.483 115.547 123.801 119.282 120.808C123.345 117.552 130.61 113.782 130.61 113.782L130.79 113.895L140.897 97.91Z" fill="url(#paint0_linear_33_831)"/>
<path d="M140.897 97.91L145.848 101.053L139.736 125.847L140.084 126.069C140.084 126.069 145.802 118.335 150.14 113.995C154.664 109.47 167.759 101.048 167.759 101.048L180.225 108.683C180.225 108.683 161.774 120.625 153.994 127.442C146.481 134.023 135.917 145.533 135.917 145.533L125.355 138.799C125.355 138.799 128.376 131.913 129.479 127.255C130.678 122.189 130.969 114.009 130.969 114.009L130.79 113.895L140.897 97.91Z" fill="url(#paint1_linear_33_831)"/>
</g>
</g>
<defs>
<filter id="filter0_d_33_831" x="82.0088" y="67" width="116.217" height="120.533" filterUnits="userSpaceOnUse" color-interpolation-filters="sRGB">
<feFlood flood-opacity="0" result="BackgroundImageFix"/>
<feColorMatrix in="SourceAlpha" type="matrix" values="0 0 0 0 0 0 0 0 0 0 0 0 0 0 0 0 0 0 127 0" result="hardAlpha"/>
<feOffset dy="24"/>
<feGaussianBlur stdDeviation="9"/>
<feComposite in2="hardAlpha" operator="out"/>
<feColorMatrix type="matrix" values="0 0 0 0 0 0 0 0 0 0 0 0 0 0 0 0 0 0 0.14 0"/>
<feBlend mode="normal" in2="BackgroundImageFix" result="effect1_dropShadow_33_831"/>
<feBlend mode="normal" in="SourceGraphic" in2="effect1_dropShadow_33_831" result="shape"/>
</filter>
<linearGradient id="paint0_linear_33_831" x1="115.481" y1="67.7466" x2="107.358" y2="147.833" gradientUnits="userSpaceOnUse">
<stop stop-color="#CB98FF"/>
<stop offset="1" stop-color="#8DC1FF"/>
</linearGradient>
<linearGradient id="paint1_linear_33_831" x1="115.481" y1="67.7466" x2="107.358" y2="147.833" gradientUnits="userSpaceOnUse">
<stop stop-color="#CB98FF"/>
<stop offset="1" stop-color="#8DC1FF"/>
</linearGradient>
</defs>
</svg>
