<svg width="98" height="98" viewBox="0 0 98 98" fill="none" xmlns="http://www.w3.org/2000/svg">
<g id="sun clouds">
<g id="Group 6496">
<g id="Vector" filter="url(#filter0_d_2608_7869)">
<path d="M50.2006 28.3687C50.1864 25.3571 48.7879 22.4727 46.3105 20.3453C43.8331 18.2179 40.4781 17.0204 36.9781 17.0143C35.4229 16.9428 33.8667 17.1395 32.401 17.5927C30.9353 18.0459 29.5896 18.7465 28.4429 19.6535C27.2963 20.5604 26.3718 21.6554 25.7238 22.874C25.0758 24.0927 24.7173 25.4104 24.6694 26.75H32.2481C32.3048 26.2669 32.4729 25.7984 32.7424 25.3718C33.0119 24.9452 33.3776 24.5692 33.818 24.2656C34.2584 23.962 34.7646 23.737 35.3072 23.6037C35.8498 23.4704 36.4179 23.4316 36.9781 23.4893C38.4799 23.4954 39.9181 24.0114 40.9801 24.9252C42.042 25.8389 42.6417 27.0765 42.6488 28.3687C42.6488 31.0743 40.3644 33.2712 34.5863 33.2712H14V39.7693H34.5863C44.315 39.7693 50.2006 34.6587 50.2006 28.3687ZM50.2006 28.3687C50.1864 25.3571 48.7879 22.4727 46.3105 20.3453C43.8331 18.2179 40.4781 17.0204 36.9781 17.0143C35.4229 16.9428 33.8667 17.1395 32.401 17.5927C30.9353 18.0459 29.5896 18.7465 28.4429 19.6535C27.2963 20.5604 26.3718 21.6554 25.7238 22.874C25.0758 24.0927 24.7173 25.4104 24.6694 26.75H32.2481C32.3048 26.2669 32.4729 25.7984 32.7424 25.3718C33.0119 24.9452 33.3776 24.5692 33.818 24.2656C34.2584 23.962 34.7646 23.737 35.3072 23.6037C35.8498 23.4704 36.4179 23.4316 36.9781 23.4893C38.4799 23.4954 39.9181 24.0114 40.9801 24.9252C42.042 25.8389 42.6417 27.0765 42.6488 28.3687C42.6488 31.0743 40.3644 33.2712 34.5863 33.2712H14V39.7693H34.5863C44.315 39.7693 50.2006 34.6587 50.2006 28.3687Z" fill="url(#paint0_linear_2608_7869)"/>
</g>
<g id="Vector_2" filter="url(#filter1_d_2608_7869)">
<path d="M66.9977 70.4104C66.9835 73.426 65.5813 76.3139 63.0981 78.442C60.6149 80.57 57.253 81.7648 53.7483 81.7648C52.1931 81.8331 50.6376 81.6333 49.1733 81.1773C47.709 80.7212 46.3653 80.018 45.2212 79.1089C44.0771 78.1998 43.1556 77.1032 42.5108 75.8835C41.866 74.6638 41.511 73.3455 41.4664 72.006H49.0183C49.0752 72.4899 49.2431 72.9593 49.5123 73.387C49.7815 73.8147 50.1466 74.1922 50.5866 74.4976C51.0265 74.8031 51.5325 75.0303 52.0752 75.1663C52.6179 75.3023 53.1866 75.3442 53.7483 75.2898C55.2476 75.2837 56.6831 74.7669 57.7407 73.8525C58.7983 72.9381 59.3921 71.7005 59.3921 70.4104C59.3921 67.7048 56.5433 65.5773 51.3296 65.5773H28.5127V59.0098H51.3296C61.1121 59.0098 66.9977 64.1204 66.9977 70.4104ZM66.9977 70.4104C66.9835 73.426 65.5813 76.3139 63.0981 78.442C60.6149 80.57 57.253 81.7648 53.7483 81.7648C52.1931 81.8331 50.6376 81.6333 49.1733 81.1773C47.709 80.7212 46.3653 80.018 45.2212 79.1089C44.0771 78.1998 43.1556 77.1032 42.5108 75.8835C41.866 74.6638 41.511 73.3455 41.4664 72.006H49.0183C49.0752 72.4899 49.2431 72.9593 49.5123 73.387C49.7815 73.8147 50.1466 74.1922 50.5866 74.4976C51.0265 74.8031 51.5325 75.0303 52.0752 75.1663C52.6179 75.3023 53.1866 75.3442 53.7483 75.2898C55.2476 75.2837 56.6831 74.7669 57.7407 73.8525C58.7983 72.9381 59.3921 71.7005 59.3921 70.4104C59.3921 67.7048 56.5433 65.5773 51.3296 65.5773H28.5127V59.0098H51.3296C61.1121 59.0098 66.9977 64.1204 66.9977 70.4104Z" fill="url(#paint1_linear_2608_7869)"/>
</g>
<g id="Vector_3" filter="url(#filter2_d_2608_7869)">
<path d="M68.9862 27.0281C67.068 27.0009 65.1637 27.3125 63.391 27.9437C61.6183 28.5749 60.0149 29.5123 58.6799 30.6978C57.3449 31.8834 56.3067 33.292 55.6295 34.8365C54.9522 36.381 54.6504 38.0286 54.7425 39.6775H61.4344C61.4131 38.8338 61.5968 37.9956 61.9738 37.2166C62.3509 36.4375 62.9129 35.7349 63.6238 35.1536C64.3348 34.5723 65.179 34.1252 66.1024 33.841C67.0259 33.5568 68.0081 33.4417 68.9862 33.5031C69.9258 33.4533 70.8666 33.5818 71.7421 33.8795C72.6176 34.1772 73.4063 34.6369 74.0524 35.226C74.6986 35.815 75.1863 36.5191 75.4812 37.2884C75.7761 38.0576 75.8708 38.8732 75.7587 39.6775C75.7587 43.2387 72.8294 46.1756 64.8475 46.1756H14V52.6969H65.9762C77.8012 52.6969 83.2837 46.1525 83.2837 39.6775C83.3966 38.0204 83.1072 36.3613 82.434 34.8058C81.7608 33.2503 80.7185 31.8324 79.3736 30.6425C78.0286 29.4526 76.4105 28.5167 74.6221 27.8944C72.8337 27.2721 70.9144 26.9771 68.9862 27.0281Z" fill="url(#paint2_linear_2608_7869)"/>
</g>
<g id="Vector_4" filter="url(#filter3_d_2608_7869)">
<path d="M23.9169 59.0098H14V65.5773H23.9169V59.0098Z" fill="url(#paint3_linear_2608_7869)"/>
</g>
</g>
</g>
<defs>
<filter id="filter0_d_2608_7869" x="10" y="17" width="44.2007" height="30.7695" filterUnits="userSpaceOnUse" color-interpolation-filters="sRGB">
<feFlood flood-opacity="0" result="BackgroundImageFix"/>
<feColorMatrix in="SourceAlpha" type="matrix" values="0 0 0 0 0 0 0 0 0 0 0 0 0 0 0 0 0 0 127 0" result="hardAlpha"/>
<feOffset dy="4"/>
<feGaussianBlur stdDeviation="2"/>
<feComposite in2="hardAlpha" operator="out"/>
<feColorMatrix type="matrix" values="0 0 0 0 0 0 0 0 0 0 0 0 0 0 0 0 0 0 0.25 0"/>
<feBlend mode="normal" in2="BackgroundImageFix" result="effect1_dropShadow_2608_7869"/>
<feBlend mode="normal" in="SourceGraphic" in2="effect1_dropShadow_2608_7869" result="shape"/>
</filter>
<filter id="filter1_d_2608_7869" x="24.5127" y="59.0098" width="46.4851" height="30.7686" filterUnits="userSpaceOnUse" color-interpolation-filters="sRGB">
<feFlood flood-opacity="0" result="BackgroundImageFix"/>
<feColorMatrix in="SourceAlpha" type="matrix" values="0 0 0 0 0 0 0 0 0 0 0 0 0 0 0 0 0 0 127 0" result="hardAlpha"/>
<feOffset dy="4"/>
<feGaussianBlur stdDeviation="2"/>
<feComposite in2="hardAlpha" operator="out"/>
<feColorMatrix type="matrix" values="0 0 0 0 0 0 0 0 0 0 0 0 0 0 0 0 0 0 0.25 0"/>
<feBlend mode="normal" in2="BackgroundImageFix" result="effect1_dropShadow_2608_7869"/>
<feBlend mode="normal" in="SourceGraphic" in2="effect1_dropShadow_2608_7869" result="shape"/>
</filter>
<filter id="filter2_d_2608_7869" x="10" y="27.0225" width="77.3076" height="33.6748" filterUnits="userSpaceOnUse" color-interpolation-filters="sRGB">
<feFlood flood-opacity="0" result="BackgroundImageFix"/>
<feColorMatrix in="SourceAlpha" type="matrix" values="0 0 0 0 0 0 0 0 0 0 0 0 0 0 0 0 0 0 127 0" result="hardAlpha"/>
<feOffset dy="4"/>
<feGaussianBlur stdDeviation="2"/>
<feComposite in2="hardAlpha" operator="out"/>
<feColorMatrix type="matrix" values="0 0 0 0 0 0 0 0 0 0 0 0 0 0 0 0 0 0 0.25 0"/>
<feBlend mode="normal" in2="BackgroundImageFix" result="effect1_dropShadow_2608_7869"/>
<feBlend mode="normal" in="SourceGraphic" in2="effect1_dropShadow_2608_7869" result="shape"/>
</filter>
<filter id="filter3_d_2608_7869" x="10" y="59.0098" width="17.917" height="14.5674" filterUnits="userSpaceOnUse" color-interpolation-filters="sRGB">
<feFlood flood-opacity="0" result="BackgroundImageFix"/>
<feColorMatrix in="SourceAlpha" type="matrix" values="0 0 0 0 0 0 0 0 0 0 0 0 0 0 0 0 0 0 127 0" result="hardAlpha"/>
<feOffset dy="4"/>
<feGaussianBlur stdDeviation="2"/>
<feComposite in2="hardAlpha" operator="out"/>
<feColorMatrix type="matrix" values="0 0 0 0 0 0 0 0 0 0 0 0 0 0 0 0 0 0 0.25 0"/>
<feBlend mode="normal" in2="BackgroundImageFix" result="effect1_dropShadow_2608_7869"/>
<feBlend mode="normal" in="SourceGraphic" in2="effect1_dropShadow_2608_7869" result="shape"/>
</filter>
<linearGradient id="paint0_linear_2608_7869" x1="32.1003" y1="17" x2="32.1003" y2="39.7693" gradientUnits="userSpaceOnUse">
<stop stop-color="#E7E7E7"/>
<stop offset="0.453125" stop-color="white"/>
<stop offset="1" stop-color="#F0F0F0"/>
</linearGradient>
<linearGradient id="paint1_linear_2608_7869" x1="47.7552" y1="59.0098" x2="47.7552" y2="81.7778" gradientUnits="userSpaceOnUse">
<stop stop-color="#E7E7E7"/>
<stop offset="0.453125" stop-color="white"/>
<stop offset="1" stop-color="#F0F0F0"/>
</linearGradient>
<linearGradient id="paint2_linear_2608_7869" x1="48.6538" y1="27.0225" x2="48.6538" y2="52.6969" gradientUnits="userSpaceOnUse">
<stop stop-color="#E7E7E7"/>
<stop offset="0.453125" stop-color="white"/>
<stop offset="1" stop-color="#F0F0F0"/>
</linearGradient>
<linearGradient id="paint3_linear_2608_7869" x1="18.9584" y1="59.0098" x2="18.9584" y2="65.5773" gradientUnits="userSpaceOnUse">
<stop stop-color="#E7E7E7"/>
<stop offset="0.453125" stop-color="white"/>
<stop offset="1" stop-color="#F0F0F0"/>
</linearGradient>
</defs>
</svg>
