<svg width="375" height="160" viewBox="0 0 375 160" fill="none" xmlns="http://www.w3.org/2000/svg">
<mask id="mask0_102_1232" style="mask-type:alpha" maskUnits="userSpaceOnUse" x="0" y="0" width="375" height="160">
<path d="M0 0H375V160H0V0Z" fill="#E7CFFF"/>
</mask>
<g mask="url(#mask0_102_1232)">
<path d="M0 0H375V160H0V0Z" fill="url(#paint0_linear_102_1232)"/>
<path opacity="0.3" d="M246.25 77.7646C257.279 77.7646 267.517 81.1131 276.007 86.8533C284.518 80.4267 294.964 76.4335 306.347 75.9344C313.859 46.6508 340.432 25 372.062 25C403.691 25 427.975 44.8413 436.715 72.2115C437.776 72.1491 438.838 72.1075 439.92 72.1075C470.904 72.1075 496 97.2108 496 128.158C496 139.992 492.317 150.953 486.074 160H201.615C196.163 151.66 193 141.698 193 130.987C193 101.578 216.847 77.7438 246.271 77.7438L246.25 77.7646Z" fill="white"/>
<path opacity="0.3" d="M-144.713 91.7751C-135.54 91.7751 -127.025 94.5531 -119.964 99.3154C-112.886 93.9837 -104.198 90.6708 -94.7315 90.2567C-88.4838 65.9621 -66.3834 48 -40.0775 48C-13.7716 48 6.42506 64.4609 13.6938 87.1681C14.5764 87.1163 15.459 87.0818 16.359 87.0818C42.1284 87.0818 63 107.908 63 133.583C63 143.401 59.9367 152.494 54.7448 160H-181.835C-186.369 153.081 -189 144.816 -189 135.93C-189 111.532 -169.167 91.7578 -144.695 91.7578L-144.713 91.7751Z" fill="white"/>
</g>
<defs>
<linearGradient id="paint0_linear_102_1232" x1="7.49999" y1="-58.5" x2="449.5" y2="283" gradientUnits="userSpaceOnUse">
<stop stop-color="#E0EEFF"/>
<stop offset="1" stop-color="#AFD3FF"/>
</linearGradient>
</defs>
</svg>
