<svg width="43" height="40" viewBox="0 0 43 40" fill="none" xmlns="http://www.w3.org/2000/svg">
<g filter="url(#filter0_dd_3470_8460)">
<path d="M37.6559 11.6616C37.6841 11.5008 37.6987 11.3354 37.6987 11.1665C37.6987 9.58706 36.4156 8.30664 34.8329 8.30664C33.6562 8.30664 32.6452 9.01429 32.2038 10.0264C31.8462 9.71831 31.3823 9.53231 30.8752 9.53231C29.7447 9.53231 28.8282 10.4571 28.8282 11.5978C28.8282 11.6613 28.831 11.7242 28.8366 11.7862C28.2928 12.052 27.9184 12.6097 27.9184 13.2547C27.9184 14.1573 28.6516 14.8889 29.556 14.8889H37.2893C38.1937 14.8889 38.9269 14.1573 38.9269 13.2547C38.9269 12.4779 38.3839 11.8277 37.6559 11.6616Z" fill="url(#paint0_linear_3470_8460)" shape-rendering="crispEdges"/>
</g>
<g filter="url(#filter1_d_3470_8460)">
<path d="M33.7601 17.4764C33.7601 23.6491 28.7858 28.6531 22.6497 28.6531C16.5136 28.6531 11.5392 23.6491 11.5392 17.4764C11.5392 11.3038 16.5136 6.2998 22.6497 6.2998C28.7858 6.2998 33.7601 11.3038 33.7601 17.4764Z" fill="url(#paint1_linear_3470_8460)"/>
</g>
<g filter="url(#filter2_di_3470_8460)">
<path d="M24.0037 24.9471C24.061 24.62 24.091 24.2835 24.091 23.9401C24.091 20.7274 21.4726 18.123 18.2427 18.123C15.8416 18.123 13.7784 19.5624 12.8777 21.621C12.1481 20.9944 11.2013 20.6161 10.1666 20.6161C7.85954 20.6161 5.9893 22.497 5.9893 24.8173C5.9893 24.9465 5.9951 25.0743 6.00645 25.2006C4.89679 25.7412 4.13272 26.8756 4.13272 28.1875C4.13272 30.0233 5.62891 31.5115 7.47457 31.5115H23.2555C25.1012 31.5115 26.5974 30.0233 26.5974 28.1875C26.5974 26.6075 25.4891 25.285 24.0037 24.9471Z" fill="url(#paint2_linear_3470_8460)"/>
</g>
<defs>
<filter id="filter0_dd_3470_8460" x="23.9184" y="3.30664" width="19.0085" height="19.582" filterUnits="userSpaceOnUse" color-interpolation-filters="sRGB">
<feFlood flood-opacity="0" result="BackgroundImageFix"/>
<feColorMatrix in="SourceAlpha" type="matrix" values="0 0 0 0 0 0 0 0 0 0 0 0 0 0 0 0 0 0 127 0" result="hardAlpha"/>
<feOffset dy="-1"/>
<feGaussianBlur stdDeviation="2"/>
<feComposite in2="hardAlpha" operator="out"/>
<feColorMatrix type="matrix" values="0 0 0 0 0 0 0 0 0 0 0 0 0 0 0 0 0 0 0.1 0"/>
<feBlend mode="normal" in2="BackgroundImageFix" result="effect1_dropShadow_3470_8460"/>
<feColorMatrix in="SourceAlpha" type="matrix" values="0 0 0 0 0 0 0 0 0 0 0 0 0 0 0 0 0 0 127 0" result="hardAlpha"/>
<feOffset dy="4"/>
<feGaussianBlur stdDeviation="2"/>
<feComposite in2="hardAlpha" operator="out"/>
<feColorMatrix type="matrix" values="0 0 0 0 0 0 0 0 0 0 0 0 0 0 0 0 0 0 0.1 0"/>
<feBlend mode="normal" in2="effect1_dropShadow_3470_8460" result="effect2_dropShadow_3470_8460"/>
<feBlend mode="normal" in="SourceGraphic" in2="effect2_dropShadow_3470_8460" result="shape"/>
</filter>
<filter id="filter1_d_3470_8460" x="7.53925" y="6.2998" width="30.2209" height="30.3535" filterUnits="userSpaceOnUse" color-interpolation-filters="sRGB">
<feFlood flood-opacity="0" result="BackgroundImageFix"/>
<feColorMatrix in="SourceAlpha" type="matrix" values="0 0 0 0 0 0 0 0 0 0 0 0 0 0 0 0 0 0 127 0" result="hardAlpha"/>
<feOffset dy="4"/>
<feGaussianBlur stdDeviation="2"/>
<feComposite in2="hardAlpha" operator="out"/>
<feColorMatrix type="matrix" values="0 0 0 0 0 0 0 0 0 0 0 0 0 0 0 0 0 0 0.25 0"/>
<feBlend mode="normal" in2="BackgroundImageFix" result="effect1_dropShadow_3470_8460"/>
<feBlend mode="normal" in="SourceGraphic" in2="effect1_dropShadow_3470_8460" result="shape"/>
</filter>
<filter id="filter2_di_3470_8460" x="0.13269" y="18.123" width="30.4647" height="23.3887" filterUnits="userSpaceOnUse" color-interpolation-filters="sRGB">
<feFlood flood-opacity="0" result="BackgroundImageFix"/>
<feColorMatrix in="SourceAlpha" type="matrix" values="0 0 0 0 0 0 0 0 0 0 0 0 0 0 0 0 0 0 127 0" result="hardAlpha"/>
<feOffset dy="4"/>
<feGaussianBlur stdDeviation="2"/>
<feColorMatrix type="matrix" values="0 0 0 0 0 0 0 0 0 0 0 0 0 0 0 0 0 0 0.25 0"/>
<feBlend mode="normal" in2="BackgroundImageFix" result="effect1_dropShadow_3470_8460"/>
<feBlend mode="normal" in="SourceGraphic" in2="effect1_dropShadow_3470_8460" result="shape"/>
<feColorMatrix in="SourceAlpha" type="matrix" values="0 0 0 0 0 0 0 0 0 0 0 0 0 0 0 0 0 0 127 0" result="hardAlpha"/>
<feOffset dy="11"/>
<feGaussianBlur stdDeviation="5"/>
<feComposite in2="hardAlpha" operator="arithmetic" k2="-1" k3="1"/>
<feColorMatrix type="matrix" values="0 0 0 0 1 0 0 0 0 1 0 0 0 0 1 0 0 0 1 0"/>
<feBlend mode="normal" in2="shape" result="effect2_innerShadow_3470_8460"/>
</filter>
<linearGradient id="paint0_linear_3470_8460" x1="35.0542" y1="15.875" x2="33.4652" y2="11.4945" gradientUnits="userSpaceOnUse">
<stop stop-color="white"/>
<stop offset="1" stop-color="white" stop-opacity="0.11"/>
</linearGradient>
<linearGradient id="paint1_linear_3470_8460" x1="20.962" y1="23.5599" x2="30.1857" y2="7.47877" gradientUnits="userSpaceOnUse">
<stop stop-color="#FF9900"/>
<stop offset="1" stop-color="#FFEE94"/>
</linearGradient>
<linearGradient id="paint2_linear_3470_8460" x1="5.56156" y1="30.3161" x2="28.2885" y2="13.3874" gradientUnits="userSpaceOnUse">
<stop stop-color="white"/>
<stop offset="1" stop-color="white" stop-opacity="0.83"/>
</linearGradient>
</defs>
</svg>
